<?xml version="1.0" encoding="UTF-8"?>
<svg width="27px" height="31px" viewBox="0 0 27 31" version="1.1" xmlns="http://www.w3.org/2000/svg" xmlns:xlink="http://www.w3.org/1999/xlink">
    <!-- Generator: Sketch 45.2 (43514) - http://www.bohemiancoding.com/sketch -->
    <title>icon_人工保洁</title>
    <desc>Created with Sketch.</desc>
    <defs></defs>
    <g id="01首页" stroke="none" stroke-width="1" fill="none" fill-rule="evenodd">
        <g id="01首页-" transform="translate(-1266.000000, -2324.000000)">
            <g id="06服务您的办公环境" transform="translate(390.000000, 2025.000000)">
                <g id="拎包入驻_icon" transform="translate(669.000000, 153.000000)">
                    <g id="icon_人工保洁" transform="translate(208.000000, 147.000000)">
                        <path d="M6.5711367,27.2572308 C6.49843919,27.5072001 6.1360207,28.0580757 5.55657874,28.7938342 C5.71587182,28.8259058 5.86768134,28.8626937 6.02162902,28.8900488 C6.30065918,28.9334397 6.58182751,28.9692844 6.86192676,29.0145618 C6.9560059,29.0296543 6.99983822,28.998526 7.05115411,28.9353263 C7.61455985,28.1967379 8.06785024,27.4062691 8.44844311,26.5856153 C8.59704538,26.2620702 8.72640419,25.9319221 8.86324657,25.6064905 C8.87714463,25.5725324 8.8899736,25.5395176 8.90814798,25.4998998 C9.20962885,25.5923413 9.50469523,25.6800663 9.81365967,25.7762809 C9.75806745,25.9187162 9.70888972,26.0545486 9.65436658,26.1894376 C9.19038539,27.3242037 8.6130816,28.4099192 7.84441229,29.4135693 C7.77919834,29.496578 7.70863899,29.5748702 7.6455632,29.6578789 C7.50016817,29.8512513 7.29811185,29.9116213 7.04367055,29.8889826 C6.07007514,29.8074432 5.11327153,29.6110626 4.19884575,29.3050921 C2.52787199,28.7504434 1.08781976,27.9014912 -0.0518206931,26.6752269 C-0.187593992,26.5309051 -0.228219074,26.3667743 -0.138416262,26.1960406 C-0.0528897742,26.0281367 0.113886877,25.9526743 0.313805042,25.9507878 C1.17428061,25.9370604 2.02534941,25.7901965 2.82828378,25.5168789 C3.56167341,25.2725693 4.2298491,24.9329884 4.74407711,24.3972053 C4.89267938,24.2434506 5.01241646,24.0680005 5.15353517,23.8934937 C5.41866728,24.0236663 5.6891448,24.1604419 5.99169475,24.3104235 C5.83560891,24.5075691 5.69769745,24.7066012 5.53412804,24.8867677 C5.13856803,25.3301094 4.637169,25.6659171 4.08017775,25.9385251 C3.23988,26.3516818 2.33650648,26.5884452 1.39357695,26.7223909 L1.31018862,26.7355969 C1.44382376,26.8440741 1.55821544,26.9478349 1.68329793,27.03556 C1.91956485,27.2034638 2.15583177,27.3666513 2.39851318,27.5222925 C2.4541707,27.5549215 2.52205957,27.5671046 2.58774053,27.5562506 C3.07096519,27.4581495 3.51570293,27.2874158 3.88667407,26.9855661 C3.85567072,27.1355477 3.54991352,27.513803 3.11907384,27.9363926 C3.39062044,28.0543026 3.66216704,28.1580634 3.91553926,28.2891793 C4.24481623,28.4608563 4.56019516,28.4136923 4.88198857,28.2910659 C5.42615085,28.0844875 5.89333929,27.7713185 6.34128427,27.4355108 L6.5711367,27.2572308 L6.5711367,27.2572308 Z M5,23.9171424 C5.1340357,23.617718 5.34417643,23.3893249 5.62928627,23.2297776 C6.0745134,22.9591459 6.63237745,22.9253709 7.1093585,23.1401688 C7.7590909,23.4122735 8.4076874,23.6843782 9.04946853,23.9717819 C9.80597514,24.3116396 10.1603746,25.0667574 9.93092367,25.8175041 C9.91388524,25.8743292 9.89003142,25.9333398 9.86390582,26 C8.23957483,25.3006145 6.62546689,24.6132496 5,23.9171424 Z" id="Shape" fill="#333333" fill-rule="nonzero"></path>
                        <path d="M18,11.5499106 L13.7447137,10.029587 C13.7447137,10.029587 12.5724284,9.71280802 12.106801,11.1523207 C11.6378869,12.5907558 12.8649519,12.8224139 12.8649519,12.8224139 L18,15 L18,11.5499106 Z" id="Path" stroke="#333333" fill="#FFFFFF"></path>
                        <path d="M7.69160895,23.7831351 C7.68295529,23.7770814 7.67526315,23.7680009 7.66372494,23.7569025 L7.71180083,23.6539904 C8.24736623,22.6016627 12.6633397,12.2610191 13.1989052,11.2076825 C13.2883263,11.0321264 13.3931317,10.9776435 13.5835123,11.0079118 C13.756812,11.0295043 13.8130177,11.0875026 13.9250403,11.2279206 C13.999635,11.3158436 14.0204808,11.4404473 13.9788853,11.5497734 C13.5779324,12.7040043 9.20846822,23.0790956 8.81136137,24.2333265 C8.80559226,24.2484606 8.7969386,24.2625858 8.78540039,24.2888184 L7.69160895,23.7831351 Z" id="Shape" fill="#333333" fill-rule="nonzero"></path>
                        <path d="M2.99971282,24.0136777 C2.98638761,24.5674435 2.52267037,25.0147158 1.98344361,24.9996292 C1.43243204,24.984652 0.9949956,24.5314749 1.00004325,23.9808422 C1.01248011,23.4421631 1.4770857,22.9886786 2.01364741,23.0002154 C2.5608693,23.0099773 3.01303803,23.4723362 2.99971282,24.0136777" id="Path" fill="#FF9D00"></path>
                        <path d="M0.500554529,21 C0.776390646,21 1,21.2238576 1,21.5 C1,21.7761424 0.776390646,22 0.500554529,22 C0.225110022,21.9975881 0.00240927346,21.77464 0,21.4988897 C0,21.2227979 0.224768946,21 0.500554529,21" id="Path" fill="#FF9D00"></path>
                        <path d="M2,21.3912509 C2,21.1703064 2.16974391,20.9982666 2.38384302,21.0000132 C2.59623615,21.0000132 2.77024499,21.180786 2.76598007,21.3947441 C2.7605304,21.6078888 2.59207028,21.7788209 2.38384302,21.7824886 C2.17251681,21.7824907 2.00093923,21.6076077 2,21.3912509" id="Path" fill="#FF9D00"></path>
                        <path d="M17,3.99949605 C16.9997217,6.20863504 18.790357,7.99972167 20.999496,8 C23.208635,8.00027833 24.9997216,6.20964298 25,4.00050398 C25.00018,2.57144163 24.2379507,1.2508375 23.0004364,0.536150399 C21.7629221,-0.178536707 20.2381308,-0.178728818 19.0004364,0.53564643 C17.7627421,1.25002168 17.0001801,2.57043369 17,3.99949605 L17,3.99949605 Z" id="Path" stroke="#333333" fill="#FFFFFF"></path>
                        <path d="M21.465884,8.00517571 C17.8544255,8.04136208 17.9210259,10.5464926 17.9210259,10.5464926 L17.9210259,12.5191666 C16.9145011,13.1043519 15.3612087,14.020384 15.3612087,14.020384 L11.8013119,14.3874171 C11.8013119,14.3874171 10.966659,14.7234334 11.0010333,15.9951258 C11.0354077,17.267852 12.2191755,17.1675641 12.2191755,17.1675641 L15.7683303,16.7653785 L17.9887005,15.7924821 L18.0359652,17.1003608 L18.0359652,19.2736107 L15.4729255,26.084919 C15.4729255,26.084919 14.9003772,27.889068 16.3516206,28.5176769 C17.8060866,29.1411163 18.4559772,28.2230164 18.4559772,28.2230164 L20.6763474,22.4042485 C21.019017,21.223539 21.4594388,21.8893682 21.4594388,21.8893682 L21.4594388,27.8166952 C21.5947879,29.1400824 23.2769842,28.9953369 23.2769842,28.9953369 C24.8066441,28.9953369 25,27.8901019 25,27.8901019 L25,10.2518322 C24.8474637,7.78288803 21.465884,8.00517571 21.465884,8.00517571 L21.465884,8.00517571 Z" id="Shape" stroke="#333333" fill="#FFFFFF" fill-rule="nonzero"></path>
                    </g>
                </g>
            </g>
        </g>
    </g>
</svg>