<?xml version="1.0" encoding="UTF-8"?>
<svg width="29px" height="28px" viewBox="0 0 29 28" version="1.1" xmlns="http://www.w3.org/2000/svg" xmlns:xlink="http://www.w3.org/1999/xlink">
    <!-- Generator: Sketch 45.2 (43514) - http://www.bohemiancoding.com/sketch -->
    <title>icon_coffee</title>
    <desc>Created with Sketch.</desc>
    <defs>
        <path d="M2,7 L22,7 L22,7 C23.1045695,7 24,7.8954305 24,9 L24,18 L24,18 C24,24.0751322 19.0751322,29 13,29 L11,29 L11,29 C4.92486775,29 7.43989126e-16,24.0751322 0,18 L0,9 L0,9 C-1.3527075e-16,7.8954305 0.8954305,7 2,7 Z" id="path-1"></path>
    </defs>
    <g id="01首页" stroke="none" stroke-width="1" fill="none" fill-rule="evenodd">
        <g id="01首页-" transform="translate(-1174.000000, -2245.000000)">
            <g id="06服务您的办公环境" transform="translate(390.000000, 2025.000000)">
                <g id="拎包入驻_icon" transform="translate(669.000000, 153.000000)">
                    <g id="icon_coffee" transform="translate(115.000000, 66.000000)">
                        <circle id="Oval-9" stroke="#333333" fill="#FFFFFF" cx="25" cy="13" r="3"></circle>
                        <g id="Rectangle-30">
                            <use fill="#FFFFFF" fill-rule="evenodd" xlink:href="#path-1"></use>
                            <path stroke="#333333" stroke-width="1" d="M2,7.5 C1.17157288,7.5 0.5,8.17157288 0.5,9 L0.5,18 C0.5,23.7989899 5.20101013,28.5 11,28.5 L13,28.5 C18.7989899,28.5 23.5,23.7989899 23.5,18 L23.5,9 C23.5,8.17157288 22.8284271,7.5 22,7.5 L2,7.5 Z"></path>
                        </g>
                        <g id="Group-4" transform="translate(4.616455, 0.993408)" stroke="#FF9D00" stroke-linecap="round" stroke-linejoin="round">
                            <path d="M1.55819457,0.288873176 C2.83651488,2.08379236 -1.29751832,2.60675714 0.428067618,4.3000952" id="Path-4"></path>
                            <path d="M8.05819457,0.288873176 C9.33651488,2.08379236 5.20248168,2.60675714 6.92806762,4.3000952" id="Path-4-Copy"></path>
                            <path d="M14.5581946,0.288873176 C15.8365149,2.08379236 11.7024817,2.60675714 13.4280676,4.3000952" id="Path-4-Copy-2"></path>
                        </g>
                    </g>
                </g>
            </g>
        </g>
    </g>
</svg>