<?xml version="1.0" encoding="UTF-8"?>
<svg width="27px" height="25px" viewBox="0 0 27 25" version="1.1" xmlns="http://www.w3.org/2000/svg" xmlns:xlink="http://www.w3.org/1999/xlink">
    <!-- Generator: Sketch 45.2 (43514) - http://www.bohemiancoding.com/sketch -->
    <title>icon_ 快递代收发</title>
    <desc>Created with Sketch.</desc>
    <defs></defs>
    <g id="01首页" stroke="none" stroke-width="1" fill="none" fill-rule="evenodd">
        <g id="01首页-" transform="translate(-1360.000000, -2327.000000)" fill-rule="nonzero">
            <g id="06服务您的办公环境" transform="translate(390.000000, 2025.000000)">
                <g id="拎包入驻_icon" transform="translate(669.000000, 153.000000)">
                    <g id="icon_-快递代收发" transform="translate(301.000000, 149.000000)">
                        <path d="M8.26364784,0.5 C7.45401484,0.5 6.67075248,0.73662238 6.04571144,1.16743972 L0.658333583,4.88075714 C0.553220328,4.95320777 0.5,5.04854326 0.5,5.14006788 C0.5,5.32069254 0.708513504,5.5 1,5.5 L25.9553469,5.5 C26.1352464,5.5 26.2974206,5.42738409 26.3868263,5.31753585 C26.506972,5.16991892 26.4685802,4.98291019 26.2709188,4.86394435 L19.9341543,1.05005474 C19.3406474,0.692842498 18.6291517,0.5 17.8983592,0.5 L8.26364784,0.5 Z" id="Rectangle-32" stroke="#333333"></path>
                        <path d="M1,6 L1,21 C1,22.6568542 2.34314575,24 4,24 L23,24 C24.6568542,24 26,22.6568542 26,21 L26,6 L1,6 Z M1,5 L26,5 C26.5522847,5 27,5.44771525 27,6 L27,21 C27,23.209139 25.209139,25 23,25 L4,25 C1.790861,25 2.22044605e-16,23.209139 0,21 L0,6 C-1.77635684e-15,5.44771525 0.44771525,5 1,5 Z" id="Rectangle-32" fill="#333333"></path>
                        <path d="M19.5,17 L24.5,17 C24.7761424,17 25,17.2238576 25,17.5 C25,17.7761424 24.7761424,18 24.5,18 L19.5,18 C19.2238576,18 19,17.7761424 19,17.5 C19,17.2238576 19.2238576,17 19.5,17 Z" id="Rectangle-33" fill="#FF9D00"></path>
                        <path d="M16.5,20 L24.5,20 C24.7761424,20 25,20.2238576 25,20.5 C25,20.7761424 24.7761424,21 24.5,21 L16.5,21 C16.2238576,21 16,20.7761424 16,20.5 C16,20.2238576 16.2238576,20 16.5,20 Z" id="Rectangle-33-Copy" fill="#FF9D00"></path>
                    </g>
                </g>
            </g>
        </g>
    </g>
</svg>