<?xml version="1.0" encoding="UTF-8"?>
<svg width="24px" height="26px" viewBox="0 0 24 26" version="1.1" xmlns="http://www.w3.org/2000/svg" xmlns:xlink="http://www.w3.org/1999/xlink">
    <!-- Generator: Sketch 45.2 (43514) - http://www.bohemiancoding.com/sketch -->
    <title>icon_智能门禁</title>
    <desc>Created with Sketch.</desc>
    <defs></defs>
    <g id="01首页" stroke="none" stroke-width="1" fill="none" fill-rule="evenodd">
        <g id="01首页-" transform="translate(-1176.000000, -2401.000000)">
            <g id="06服务您的办公环境" transform="translate(390.000000, 2025.000000)">
                <g id="拎包入驻_icon" transform="translate(669.000000, 153.000000)">
                    <g id="icon_智能门禁" transform="translate(117.000000, 223.000000)">
                        <path d="M4,1 C2.34314575,1 1,2.34314575 1,4 L1,22 C1,23.6568542 2.34314575,25 4,25 L20,25 C21.6568542,25 23,23.6568542 23,22 L23,4 C23,2.34314575 21.6568542,1 20,1 L4,1 Z M4,0 L20,0 C22.209139,-2.81201105e-15 24,1.790861 24,4 L24,22 C24,24.209139 22.209139,26 20,26 L4,26 C1.790861,26 2.705415e-16,24.209139 0,22 L0,4 C-2.705415e-16,1.790861 1.790861,4.05812251e-16 4,0 Z" id="Rectangle-27" fill="#333333" fill-rule="nonzero"></path>
                        <rect id="Rectangle-29" fill="#FF9D00" x="14" y="10" width="1" height="5" rx="0.5"></rect>
                        <path d="M12.0408936,0.0147705078 L12.0408936,0.0147705078 L12.0408936,0.0147705078 C12.3170359,0.0147705078 12.5408936,0.238628133 12.5408936,0.514770508 L12.5408936,25.5147705 L12.5408936,25.5147705 C12.5408936,25.7909129 12.3170359,26.0147705 12.0408936,26.0147705 L12.0408936,26.0147705 L12.0408936,26.0147705 C11.7647512,26.0147705 11.5408936,25.7909129 11.5408936,25.5147705 L11.5408936,0.514770508 L11.5408936,0.514770508 C11.5408936,0.238628133 11.7647512,0.0147705078 12.0408936,0.0147705078 Z" id="Rectangle-28" fill="#333333"></path>
                    </g>
                </g>
            </g>
        </g>
    </g>
</svg>