<?xml version="1.0" encoding="UTF-8"?>
<svg width="18px" height="18px" viewBox="0 0 18 18" version="1.1" xmlns="http://www.w3.org/2000/svg" xmlns:xlink="http://www.w3.org/1999/xlink">
    <!-- Generator: Sketch 45.2 (43514) - http://www.bohemiancoding.com/sketch -->
    <title>phone_icon</title>
    <desc>Created with Sketch.</desc>
    <defs></defs>
    <g id="01首页" stroke="none" stroke-width="1" fill="none" fill-rule="evenodd" stroke-linecap="round" stroke-linejoin="round">
        <g id="01首页-" transform="translate(-781.000000, -26.000000)" stroke="#CCCCCC" fill-rule="nonzero">
            <g id="01顶部tab">
                <g id="Group" transform="translate(782.000000, 22.000000)">
                    <g id="phone_icon" transform="translate(0.000000, 5.000000)">
                        <g id="符号-电话">
                            <path d="M4.49878077,6.50221541 C4.59754493,6.77267384 7.23736476,10.6720953 9.41589096,11.40812 C10.2926363,10.7724402 10.408868,10.0988614 10.910048,9.927561 C11.411228,9.75626063 14.3944591,10.5355814 15.177867,10.9159018 C15.8566564,11.2451436 16.0812784,11.9750142 15.9748137,12.8753521 C15.8609642,13.8427692 14.5932342,15.9763791 12.3088587,15.9997645 C10.0244832,16.0231499 6.6606911,14.3024769 4.25077341,11.7633148 C1.84085573,9.2235374 -0.308131132,6.00558338 0.036494482,3.27195329 C0.380504693,0.539554001 2.76149844,0.0503068324 3.35720843,0.00661306002 C3.95907245,-0.0376961176 4.43724049,0.138925188 4.80032819,0.588786421 C5.26803438,1.16849816 6.655876,4.26462766 6.19975434,4.77292668 C5.74363268,5.28122569 4.80032819,5.96870844 4.49878077,6.50221541 Z" id="phone_icon"></path>
                        </g>
                    </g>
                </g>
            </g>
        </g>
    </g>
</svg>