<?xml version="1.0" encoding="UTF-8"?>
<svg width="16px" height="13px" viewBox="0 0 16 13" version="1.1" xmlns="http://www.w3.org/2000/svg" xmlns:xlink="http://www.w3.org/1999/xlink">
    <!-- Generator: Sketch 45.2 (43514) - http://www.bohemiancoding.com/sketch -->
    <title>icon_酒店</title>
    <desc>Created with Sketch.</desc>
    <defs></defs>
    <g id="04社区" stroke="none" stroke-width="1" fill="none" fill-rule="evenodd">
        <g id="02详情页" transform="translate(-946.000000, -3200.000000)" stroke="#FFFFFF" stroke-width="0.6">
            <g id="06_地理位置" transform="translate(389.000000, 2893.000000)">
                <g id="酒店" transform="translate(545.000000, 302.000000)">
                    <g id="icon_酒店" transform="translate(13.000000, 5.000000)">
                        <path d="M0,12.2416667 L14.0833333,12.2416667" id="Line-14" stroke-linecap="round" stroke-linejoin="round"></path>
                        <path d="M1.38333333,12.2618795 L8.36666667,12.2618795 L8.36666667,1 C8.36666667,0.613400675 8.05326599,0.3 7.66666667,0.3 L2.08333333,0.3 C1.69673401,0.3 1.38333333,0.613400675 1.38333333,1 L1.38333333,12.2618795 Z" id="Rectangle-45"></path>
                        <g id="Group-10" transform="translate(3.250000, 3.250000)" stroke-linecap="round" stroke-linejoin="round">
                            <path d="M0.541666667,0.325 L2.70833333,0.325" id="Line-15"></path>
                            <path d="M0.541666667,2.49166667 L2.70833333,2.49166667" id="Line-15"></path>
                            <path d="M0.541666667,4.65833333 L2.70833333,4.65833333" id="Line-15"></path>
                        </g>
                        <path d="M8.31237869,5.71666667 L8.31237869,12.2720126 L12.7,12.2720126 L12.7,6.41666667 C12.7,6.03006734 12.3865993,5.71666667 12,5.71666667 L8.31237869,5.71666667 Z" id="Rectangle-45"></path>
                    </g>
                </g>
            </g>
        </g>
    </g>
</svg>