<?xml version="1.0" encoding="UTF-8"?>
<svg width="15px" height="17px" viewBox="0 0 15 17" version="1.1" xmlns="http://www.w3.org/2000/svg" xmlns:xlink="http://www.w3.org/1999/xlink">
    <!-- Generator: Sketch 45.2 (43514) - http://www.bohemiancoding.com/sketch -->
    <title>即将被租满</title>
    <desc>Created with Sketch.</desc>
    <defs></defs>
    <g id="04社区" stroke="none" stroke-width="1" fill="none" fill-rule="evenodd">
        <g id="02详情页" transform="translate(-1127.000000, -741.000000)" fill="#FFFFFF">
            <g id="限时优惠" transform="translate(1120.000000, 734.000000)">
                <g id="即将被租满" transform="translate(8.000000, 8.000000)">
                    <path d="M6.88890435,-0.00027826087 C7.09829565,0.00667826087 7.27012174,0.167373913 7.29168696,0.375373913 C7.32925217,0.817113043 7.32925217,1.26372174 7.29168696,1.70546087 C7.26873043,1.88772174 7.13168696,2.0338087 6.95151304,2.0685913 C6.77133913,2.10198261 6.58977391,2.01572174 6.50212174,1.85502609 C6.47429565,1.80006957 6.4589913,1.73954783 6.4562087,1.67763478 C6.44925217,1.24285217 6.42073043,0.808069565 6.4589913,0.375373913 C6.46386087,0.328765217 6.47638261,0.28146087 6.49655652,0.238330435 C6.56403478,0.0978086957 6.70525217,0.00876521739 6.86038261,-0.00027826087 L6.88890435,-0.00027826087 Z M2.5856,1.37850435 C2.68368696,1.38337391 2.77412174,1.42024348 2.84925217,1.48493913 C3.17133913,1.78128696 3.50177391,2.07693913 3.77864348,2.4178087 C3.8482087,2.50685217 3.87881739,2.62163478 3.8656,2.73433043 C3.84681739,2.85467826 3.77725217,2.9618087 3.6749913,3.02789565 C3.57203478,3.09328696 3.44612174,3.11137391 3.32855652,3.07728696 C3.26664348,3.05850435 3.21029565,3.0258087 3.16368696,2.98128696 C2.85203478,2.67937391 2.51812174,2.39276522 2.24194783,2.05746087 C2.14386087,1.92806957 2.12786087,1.75485217 2.20090435,1.61015652 C2.27394783,1.46546087 2.42351304,1.37641739 2.5856,1.37850435 L2.5856,1.37850435 Z M11.1622957,1.37850435 C11.2262957,1.37989565 11.2902957,1.3965913 11.3473391,1.42650435 C11.5323826,1.52528696 11.6165565,1.74511304 11.5462957,1.94198261 C11.5261217,1.99485217 11.4962087,2.04354783 11.4572522,2.0845913 C11.1560348,2.39485217 10.8708174,2.73015652 10.5334261,3.00493913 C10.4102957,3.10093913 10.2433391,3.12041739 10.1014261,3.05641739 C9.95881739,2.99172174 9.8642087,2.85398261 9.85586087,2.69746087 C9.8509913,2.58406957 9.89133913,2.47346087 9.96925217,2.39067826 C10.2704696,2.07902609 10.555687,1.74372174 10.8937739,1.46893913 C10.9445565,1.42998261 11.0029913,1.40215652 11.0662957,1.38754783 C11.0976,1.3805913 11.1302957,1.3778087 11.1622957,1.37850435 L11.1622957,1.37850435 Z M13.5136,4.92633043 C13.6290783,4.9298087 13.7389913,4.98198261 13.8141217,5.06963478 C13.9170783,5.19206957 13.9421217,5.36250435 13.8781217,5.50928696 C13.8148174,5.65606957 13.6736,5.75415652 13.5136,5.76250435 C13.0802087,5.77015652 12.6440348,5.79798261 12.2113391,5.76041739 C12.027687,5.74163478 11.8781217,5.60389565 11.8433391,5.42233043 C11.8092522,5.24076522 11.8976,5.0578087 12.0624696,4.97224348 C12.1181217,4.94441739 12.1786435,4.92911304 12.2398609,4.92633043 C12.6649043,4.91937391 13.0885565,4.91937391 13.5136,4.92633043 L13.5136,4.92633043 Z M1.67777391,4.92633043 C1.80994783,4.93189565 1.93307826,4.99937391 2.00751304,5.10998261 C2.08333913,5.21989565 2.10073043,5.35833043 2.0576,5.48424348 C2.03951304,5.53363478 2.01238261,5.57954783 1.9776,5.6192 C1.90246957,5.70754783 1.79325217,5.75972174 1.67777391,5.76250435 C1.24438261,5.77015652 0.808208696,5.79798261 0.376208696,5.76041739 C0.19186087,5.74163478 0.0416,5.60389565 0.0068173913,5.42233043 C-0.026573913,5.24076522 0.061773913,5.0578087 0.225947826,4.97224348 C0.2816,4.94441739 0.342121739,4.92911304 0.404034783,4.92633043 C0.828382609,4.91937391 1.25203478,4.91937391 1.67777391,4.92633043 L1.67777391,4.92633043 Z M8.47916522,13.0849391 L8.48333913,12.7030261 C8.49794783,12.1924174 8.66768696,11.6985043 8.96751304,11.2873739 C9.0829913,11.1287652 9.22073043,10.9952 9.35846957,10.8574609 C9.42455652,10.7885913 9.42455652,10.7885913 9.48855652,10.7176348 C9.94977391,10.1924174 10.2662957,9.5565913 10.4068174,8.87276522 C10.5292522,8.27311304 10.5188174,7.65328696 10.375513,7.0578087 C10.2092522,6.36215652 9.85864348,5.72493913 9.35916522,5.21293913 C9.00577391,4.8512 8.58003478,4.56667826 8.10907826,4.38163478 C7.48577391,4.13746087 6.80473043,4.08389565 6.15081739,4.2272 C5.74455652,4.31693913 5.35846957,4.47833043 5.01064348,4.7058087 C4.60786087,4.96876522 4.26003478,5.30615652 3.98455652,5.7005913 C3.67986087,6.13746087 3.4642087,6.63067826 3.35151304,7.15102609 C3.22212174,7.7485913 3.22629565,8.36563478 3.36264348,8.9618087 C3.52125217,9.66372174 3.86768696,10.309287 4.36438261,10.8303304 C4.43812174,10.9061565 4.51533913,10.977113 4.58838261,11.0522435 C4.91394783,11.3993739 5.13586087,11.8285913 5.23116522,12.2946783 C5.26038261,12.4435478 5.27429565,12.5938087 5.27846957,12.7454609 L5.27638261,13.0849391 C6.34351304,13.0647652 7.41133913,13.0647652 8.47916522,13.0849391 L8.47916522,13.0849391 Z M6.22177391,14.0261565 L6.22525217,14.053287 C6.2509913,14.2014609 6.32403478,14.3364174 6.43255652,14.4400696 C6.68438261,14.6633739 7.0642087,14.6633739 7.31673043,14.4400696 C7.43429565,14.3322435 7.50873043,14.1854609 7.52681739,14.0261565 C7.09203478,14.0296348 6.65725217,14.0296348 6.22177391,14.0261565 L6.22177391,14.0261565 Z M4.43812174,13.1044174 L4.43812174,13.0564174 C4.43951304,12.9416348 4.4429913,12.8275478 4.43951304,12.7141565 C4.42490435,12.3684174 4.30386087,12.0358957 4.09307826,11.7604174 C3.99568696,11.633113 3.87464348,11.5259826 3.76194783,11.4118957 C3.68264348,11.3277217 3.68333913,11.3277217 3.60542609,11.2414609 C3.13933913,10.7037217 2.79777391,10.069287 2.60577391,9.38337391 C2.36507826,8.52285217 2.35881739,7.61293913 2.58768696,6.74963478 C2.75325217,6.13189565 3.03916522,5.54754783 3.43012174,5.0418087 C3.63186087,4.78024348 3.86212174,4.54024348 4.11603478,4.32806957 C4.45203478,4.04563478 4.82838261,3.81467826 5.23325217,3.64354783 C5.71603478,3.43902609 6.23429565,3.32702609 6.75881739,3.31450435 C6.8749913,3.31172174 6.87429565,3.31172174 6.99046957,3.31450435 C7.44125217,3.32493913 7.88716522,3.40911304 8.31081739,3.56285217 C8.62038261,3.67485217 8.91742609,3.82372174 9.1936,4.00250435 C10.1327304,4.62302609 10.8186435,5.55728696 11.1302957,6.63833043 C11.3216,7.29433043 11.3744696,7.99137391 11.287513,8.67102609 C11.1866435,9.47798261 10.8847304,10.2459826 10.4102957,10.9068522 C10.2948174,11.0661565 10.1696,11.2178087 10.0346435,11.361113 C9.94351304,11.4598957 9.84264348,11.5503304 9.75012174,11.6498087 C9.71325217,11.6922435 9.67777391,11.7353739 9.6429913,11.781287 C9.44403478,12.0609391 9.33412174,12.3823304 9.3202087,12.7259826 C9.31881739,12.8518957 9.31673043,12.9778087 9.31603478,13.1044174 C9.58942609,13.1127652 9.86142609,13.121113 10.1348174,13.1315478 C10.199513,13.1392 10.2607304,13.1558957 10.3170783,13.189287 C10.4228174,13.2546783 10.4951652,13.3625043 10.5132522,13.4856348 C10.5320348,13.6080696 10.4965565,13.733287 10.4151652,13.8278957 C10.3428174,13.9072 10.2419478,13.9565913 10.1348174,13.9663304 C9.54629565,13.9885913 8.95777391,14.005287 8.36925217,14.0157217 L8.3616,14.1047652 C8.34351304,14.2765913 8.29551304,14.4449391 8.22177391,14.6007652 C8.00890435,15.0404174 7.58455652,15.3562435 7.10246957,15.4306783 C6.68090435,15.4939826 6.25307826,15.3764174 5.92333913,15.1065043 C5.62142609,14.8553739 5.42803478,14.4957217 5.38838261,14.1047652 C5.38490435,14.0755478 5.38142609,14.0456348 5.38073043,14.0157217 C4.79151304,14.005287 4.2029913,13.9885913 3.61446957,13.9663304 C3.54977391,13.9607652 3.48786087,13.941287 3.4322087,13.909287 C3.32646957,13.8438957 3.25412174,13.7353739 3.23533913,13.6122435 C3.21655652,13.4898087 3.25203478,13.3645913 3.33412174,13.2706783 C3.40646957,13.1913739 3.50733913,13.1419826 3.61446957,13.1315478 C3.88855652,13.121113 4.16403478,13.1120696 4.43812174,13.1044174 L4.43812174,13.1044174 Z" id="Fill-1" stroke="#FFFFFF" stroke-width="0.2"></path>
                    <path d="M6.87347412,14.3214722 C8.71382215,14.3214722 10.205719,10.8295753 10.205719,8.98922729 C10.205719,7.14887927 8.71382215,7.76037598 6.87347412,7.76037598 C5.0331261,7.76037598 3.54122925,7.14887927 3.54122925,8.98922729 C3.54122925,10.8295753 5.0331261,14.3214722 6.87347412,14.3214722 Z" id="Oval-16"></path>
                    <circle id="Oval-16" cx="7" cy="14" r="1"></circle>
                    <rect id="Rectangle-47" x="3" y="6.99707031" width="8" height="3.00292969"></rect>
                </g>
            </g>
        </g>
    </g>
</svg>