<?xml version="1.0" encoding="UTF-8"?>
<svg width="38px" height="51px" viewBox="0 0 38 51" version="1.1" xmlns="http://www.w3.org/2000/svg" xmlns:xlink="http://www.w3.org/1999/xlink">
    <!-- Generator: Sketch 45.2 (43514) - http://www.bohemiancoding.com/sketch -->
    <title>黑色标志</title>
    <desc>Created with Sketch.</desc>
    <defs></defs>
    <g id="Page-1" stroke="none" stroke-width="1" fill="none" fill-rule="evenodd">
        <g id="黑色标志">
            <ellipse id="Oval-2" fill-opacity="0.35" fill="#000000" cx="19" cy="49.5" rx="7" ry="1.5"></ellipse>
            <path d="M19,48.265625 C31.6666667,35.7508152 38,25.9956068 38,19 C38,8.50658975 29.4934102,0 19,0 C8.50658975,0 0,8.50658975 0,19 C0,25.9956068 6.33333333,35.7508152 19,48.265625 Z" id="Oval" fill="#000000"></path>
            <g id="Page-1" transform="translate(9.000000, 9.000000)" fill="#FEFEFE">
                <g id="Group-3" transform="translate(2.000000, 7.000000)">
                    <path d="M18.3908729,9.13695349 C17.8933305,8.95560465 17.6215339,9.12230233 17.574839,9.63672093 C17.5152627,10.2432791 17.0109576,13.7992791 16.1607881,11.7399767 C15.7073644,10.6414651 15.5733983,9.33132558 15.4445847,8.155 C15.1776186,5.71802326 15.1418729,3.25662791 15.1502458,0.80727907 C15.1502458,0.353418605 14.9170932,0.126813953 14.4507881,0.126813953 L0.671923729,0.126813953 C0.236211864,0.126813953 0.0191610169,0.315976744 0.0191610169,0.693651163 C0.0191610169,1.04202326 0.252313559,1.21588372 0.718618644,1.21588372 L13.0753814,1.21588372 C13.4631102,1.21588372 13.6582627,1.40537209 13.6582627,1.78337209 C13.6582627,2.69727907 13.6843475,3.61248837 13.7242797,4.5254186 C13.7845,5.91793023 13.8859407,7.32118605 14.1013814,8.69872093 C14.1918729,9.27955814 14.2987881,9.85974419 14.4192288,10.4350465 C14.5535169,11.0783953 14.7051949,11.8093256 14.9853644,12.4041628 C15.2491102,12.9635116 15.6867542,13.5860233 16.1530593,13.8582093 C16.9610424,14.2362093 17.6215339,13.8582093 18.1345339,12.7232326 C18.4452966,11.921 18.6935847,11.0585349 18.8806864,10.1358372 C18.9737542,9.63672093 18.8111271,9.30397674 18.3908729,9.13695349" id="Fill-1"></path>
                </g>
                <path d="M3.36773729,15.4064993 C2.98839722,15.4064993 2.7980981,15.2116311 2.7980981,14.8218949 L2.7980981,14.1437136 C2.7980981,13.7546481 2.98839722,13.5591092 3.36773729,13.5591092 L10.6091693,13.5591092 C10.9888239,13.5591092 11.1788085,13.7546481 11.1788085,14.1437136 L11.1788085,14.8218949 C11.1788085,15.2116311 10.9888239,15.4064993 10.6091693,15.4064993 L3.36773729,15.4064993 Z M13.6284772,18.4516072 C13.5929337,18.4308123 13.5580193,18.4127007 13.5249922,18.3976076 C13.1953501,18.2480187 12.9890092,18.3825146 12.7990246,18.722276 C12.3794229,19.4735748 11.6411882,19.6020335 10.8950898,19.5956609 C10.3559614,19.5913007 9.26606642,19.6647535 9.26606642,18.773257 L9.26606642,17.1368343 C9.26606642,16.7474335 9.45542191,16.5518945 9.83539106,16.5518945 L11.6798771,16.5518945 C12.1353368,16.5518945 12.3630667,16.3181199 12.3630667,15.8505705 L12.3630667,13.1147025 C12.3630667,12.6471532 12.1353368,12.4137139 11.6798771,12.4137139 L8.12710258,12.4137139 C7.74776252,12.4137139 7.55777794,12.1796038 7.55777794,11.7120545 C7.55777794,11.260269 7.74776252,11.0342086 8.12710258,11.0342086 L12.8638207,11.0342086 C13.319595,11.0342086 13.5470103,10.8628185 13.5470103,10.5193677 C13.5470103,10.1923514 13.319595,10.0286756 12.8638207,10.0286756 L8.12710258,10.0286756 C7.74776252,10.0286756 7.55777794,9.84957137 7.55777794,9.49069203 C7.55777794,9.16334041 7.32218448,9 6.8519412,9 C6.39679603,9 6.16875163,9.17139004 6.16875163,9.51417012 C6.16875163,9.85728559 5.97908159,10.0286756 5.59974153,10.0286756 L0.930964906,10.0286756 C0.475505191,10.0286756 0.247775333,10.2004011 0.247775333,10.5428457 C0.247775333,10.8705328 0.475505191,11.0342086 0.930964906,11.0342086 L5.59974153,11.0342086 C5.97908159,11.0342086 6.16875163,11.2679832 6.16875163,11.735868 C6.16875163,12.1876535 5.97908159,12.4137139 5.59974153,12.4137139 L2.29797314,12.4137139 C1.84219888,12.4137139 1.61478357,12.6471532 1.61478357,13.1147025 L1.61478357,15.8505705 C1.61478357,16.3181199 1.84219888,16.5518945 2.29797314,16.5518945 L3.57281998,16.5518945 C3.95216005,16.5518945 4.02041609,16.7937188 3.77790267,17.277032 C3.48946582,17.9625922 2.93523929,18.5861031 2.11553762,19.1472294 C1.72078489,19.4121964 1.17379288,19.685213 0.475505191,19.9656085 C0.00494736372,20.1212346 -0.116152077,20.3550093 0.111263236,20.6672679 C0.369503862,21.0100479 0.756078441,21.0881964 1.27255969,20.9007071 C3.04910422,20.3083885 4.316402,19.0928944 5.07602576,17.2535539 C5.28802842,16.7856692 5.57646527,16.5518945 5.94133631,16.5518945 L7.44391301,16.5518945 C7.82325308,16.5518945 8.0135522,16.7474335 8.0135522,17.1368343 L8.0135522,19.4514383 C8.11389174,20.4479154 8.85873193,20.7883477 9.68881355,20.8356393 C10.874959,20.9033903 12.1089151,20.8601236 13.2736715,20.5968336 C14.0115918,20.4301392 14.2852451,18.835977 13.6284772,18.4516072 L13.6284772,18.4516072 Z" id="Fill-4"></path>
                <path d="M3.71551602,4 C3.23850534,4 3,4.17037471 3,4.50995316 C3,4.83665105 3.23850534,5 3.71551602,5 L16.284484,5 C16.7614947,5 17,4.82991803 17,4.4897541 C17,4.16305621 16.7614947,4 16.284484,4 L3.71551602,4 Z" id="Fill-6"></path>
                <g id="Group-10">
                    <path d="M1.46361905,5.54153333 C2.276,4.78253333 2.93473016,4.03086667 3.44044444,3.2872 C3.79250794,2.82253333 4.15314286,2.5902 4.52044444,2.5902 L19.000127,2.5902 C19.4598095,2.5902 19.6896508,2.39653333 19.6896508,2.0092 C19.6896508,1.62253333 19.4598095,1.4282 19.000127,1.4282 L5.2328254,1.4282 C4.86520635,1.4282 4.78107937,1.21186667 4.98012698,0.777533333 C5.14838095,0.421866667 4.98012698,0.173533333 4.4744127,0.0345333333 C4.06107937,-0.0588 3.7312381,0.150533333 3.48615873,0.661533333 C2.56711111,2.24153333 1.5328254,3.5742 0.383619048,4.6582 C-0.0459047619,5.04553333 -0.114793651,5.4102 0.176634921,5.7502 C0.482666667,6.07586667 0.912190476,6.00586667 1.46361905,5.54153333" id="Fill-8"></path>
                </g>
            </g>
        </g>
    </g>
</svg>