<?xml version="1.0" encoding="UTF-8"?>
<svg width="28px" height="28px" viewBox="0 0 28 28" version="1.1" xmlns="http://www.w3.org/2000/svg" xmlns:xlink="http://www.w3.org/1999/xlink">
    <!-- Generator: Sketch 45.2 (43514) - http://www.bohemiancoding.com/sketch -->
    <title>icon_智能云印机</title>
    <desc>Created with Sketch.</desc>
    <defs>
        <path d="M7,0.000109141085 L21,0.000109141085 L21,0.000109141085 C22.1045695,0.000109141085 23,0.895539641 23,2.00010914 L23,8 L23,8 C23,9.1045695 22.1045695,10 21,10 L7,10 L7,10 C5.8954305,10 5,9.1045695 5,8 L5,2.00010914 L5,2.00010914 C5,0.895539641 5.8954305,0.000109141085 7,0.000109141085 Z" id="path-1"></path>
        <path d="M4,6 L24,6 L24,6 C26.209139,6 28,7.790861 28,10 L28,17 L28,17 C28,17.5522847 27.5522847,18 27,18 L1,18 L1,18 C0.44771525,18 1.04869017e-15,17.5522847 0,17 L0,10 L0,10 C-2.705415e-16,7.790861 1.790861,6 4,6 Z" id="path-2"></path>
        <path d="M6,11 L22.0074463,11 L22.0074463,11 C22.559731,11 23.0074463,11.4477153 23.0074463,12 L23.0074463,26 L23.0074463,26 C23.0074463,27.1045695 22.1120158,28 21.0074463,28 L7,28 L7,28 C5.8954305,28 5,27.1045695 5,26 L5,12 L5,12 C5,11.4477153 5.44771525,11 6,11 Z" id="path-3"></path>
    </defs>
    <g id="01首页" stroke="none" stroke-width="1" fill="none" fill-rule="evenodd">
        <g id="01首页-" transform="translate(-1266.000000, -2400.000000)">
            <g id="06服务您的办公环境" transform="translate(390.000000, 2025.000000)">
                <g id="拎包入驻_icon" transform="translate(669.000000, 153.000000)">
                    <g id="icon_智能云印机" transform="translate(207.000000, 222.000000)">
                        <g id="Rectangle-19-Copy">
                            <use fill="#FFFFFF" fill-rule="evenodd" xlink:href="#path-1"></use>
                            <path stroke="#333333" stroke-width="1" d="M7,0.500109141 C6.17157288,0.500109141 5.5,1.17168202 5.5,2.00010914 L5.5,8 C5.5,8.82842712 6.17157288,9.5 7,9.5 L21,9.5 C21.8284271,9.5 22.5,8.82842712 22.5,8 L22.5,2.00010914 C22.5,1.17168202 21.8284271,0.500109141 21,0.500109141 L7,0.500109141 Z"></path>
                        </g>
                        <g id="Rectangle-19">
                            <use fill="#FFFFFF" fill-rule="evenodd" xlink:href="#path-2"></use>
                            <path stroke="#333333" stroke-width="1" d="M4,6.5 C2.06700338,6.5 0.5,8.06700338 0.5,10 L0.5,17 C0.5,17.2761424 0.723857625,17.5 1,17.5 L27,17.5 C27.2761424,17.5 27.5,17.2761424 27.5,17 L27.5,10 C27.5,8.06700338 25.9329966,6.5 24,6.5 L4,6.5 Z"></path>
                        </g>
                        <g id="Rectangle-19-Copy">
                            <use fill="#FFFFFF" fill-rule="evenodd" xlink:href="#path-3"></use>
                            <path stroke="#333333" stroke-width="1" d="M6,11.5 C5.72385763,11.5 5.5,11.7238576 5.5,12 L5.5,26 C5.5,26.8284271 6.17157288,27.5 7,27.5 L21.0074463,27.5 C21.8358734,27.5 22.5074463,26.8284271 22.5074463,26 L22.5074463,12 C22.5074463,11.7238576 22.2835887,11.5 22.0074463,11.5 L6,11.5 Z"></path>
                        </g>
                        <rect id="Rectangle-20-Copy" fill="#FF9D00" x="10" y="16" width="8" height="1" rx="0.5"></rect>
                        <rect id="Rectangle-20-Copy-2" fill="#FF9D00" x="10" y="19" width="8" height="1" rx="0.5"></rect>
                    </g>
                </g>
            </g>
        </g>
    </g>
</svg>