<?xml version="1.0" encoding="UTF-8"?>
<svg width="24px" height="28px" viewBox="0 0 24 28" version="1.1" xmlns="http://www.w3.org/2000/svg" xmlns:xlink="http://www.w3.org/1999/xlink">
    <!-- Generator: Sketch 45.2 (43514) - http://www.bohemiancoding.com/sketch -->
    <title>icon_空气净化系统</title>
    <desc>Created with Sketch.</desc>
    <defs>
        <rect id="path-1" x="0" y="0" width="24" height="28" rx="4"></rect>
    </defs>
    <g id="01首页" stroke="none" stroke-width="1" fill="none" fill-rule="evenodd">
        <g id="01首页-" transform="translate(-1361.000000, -2249.000000)">
            <g id="06服务您的办公环境" transform="translate(390.000000, 2025.000000)">
                <g id="拎包入驻_icon" transform="translate(669.000000, 153.000000)">
                    <g id="icon_空气净化系统" transform="translate(302.000000, 71.000000)">
                        <g id="Rectangle-24">
                            <use fill="#FFFFFF" fill-rule="evenodd" xlink:href="#path-1"></use>
                            <rect stroke="#333333" stroke-width="1" x="0.5" y="0.5" width="23" height="27" rx="4"></rect>
                        </g>
                        <path d="M8.41884993,15.3983931 C9.13482125,16.9349675 10.6930348,18 12.5,18 C14.9852814,18 17,15.9852814 17,13.5 M16.7120886,11.9127766 C16.0703824,10.2107001 14.4265783,9 12.5,9 C10.0147186,9 8,11.0147186 8,13.5" id="Oval-8" stroke="#FF9D00" stroke-linecap="round" stroke-linejoin="round"></path>
                        <polyline id="循环1" stroke="#FF9D00" stroke-linecap="round" stroke-linejoin="round" points="6.97317505 13.0014954 7.98933955 13.9298343 9.16048241 13.08824"></polyline>
                        <polyline id="循环1" stroke="#FF9D00" stroke-linecap="round" stroke-linejoin="round" points="15.7661438 14.272594 16.9372867 13.4309998 17.9534512 14.3593387"></polyline>
                    </g>
                </g>
            </g>
        </g>
    </g>
</svg>