<?xml version="1.0" encoding="UTF-8"?>
<svg width="28px" height="28px" viewBox="0 0 28 28" version="1.1" xmlns="http://www.w3.org/2000/svg" xmlns:xlink="http://www.w3.org/1999/xlink">
    <!-- Generator: Sketch 45.2 (43514) - http://www.bohemiancoding.com/sketch -->
    <title>icon_路演厅</title>
    <desc>Created with Sketch.</desc>
    <defs>
        <path d="M4,0 L24,-5.42101086e-20 L24,8.8817842e-16 C26.209139,-1.47974623e-15 28,1.790861 28,4 L28,17 L28,17 C28,19.209139 26.209139,21 24,21 L4,21 L4,21 C1.790861,21 2.705415e-16,19.209139 0,17 L0,4 L0,4 C-2.705415e-16,1.790861 1.790861,1.29399529e-15 4,8.8817842e-16 Z" id="path-1"></path>
        <rect id="path-2" x="0" y="27" width="28" height="1" rx="0.5"></rect>
    </defs>
    <g id="01首页" stroke="none" stroke-width="1" fill="none" fill-rule="evenodd">
        <g id="01首页-" transform="translate(-1453.000000, -2326.000000)">
            <g id="06服务您的办公环境" transform="translate(390.000000, 2025.000000)">
                <g id="拎包入驻_icon" transform="translate(669.000000, 153.000000)">
                    <g id="icon_路演厅" transform="translate(394.000000, 148.000000)">
                        <g id="Rectangle-22">
                            <use fill="#FFFFFF" fill-rule="evenodd" xlink:href="#path-1"></use>
                            <path stroke="#333333" stroke-width="1" d="M4,0.5 C2.06700338,0.5 0.5,2.06700338 0.5,4 L0.5,17 C0.5,18.9329966 2.06700338,20.5 4,20.5 L24,20.5 C25.9329966,20.5 27.5,18.9329966 27.5,17 L27.5,4 C27.5,2.06700338 25.9329966,0.5 24,0.5 L4,0.5 Z"></path>
                        </g>
                        <path d="M10.8322675,8.1919174 C10.7130618,8.20095323 10.6010388,8.2524008 10.5165059,8.33693375 C10.3212437,8.5321959 10.3212437,8.84877839 10.5165059,9.04404053 L14.9985672,13.5261019 C15.0831002,13.6106348 15.1951232,13.6620824 15.3143289,13.6711182 C15.5896813,13.69199 15.8298185,13.4856927 15.8506903,13.2103402 L16.2182966,8.36067264 C16.2202036,8.33551424 16.2202036,8.31024758 16.2182966,8.28508918 C16.1974248,8.00973671 15.9572876,7.80343937 15.6819351,7.82431117 L10.8322675,8.1919174 Z" id="Rectangle-23" stroke="#FF9D00" transform="translate(13.294893, 10.747715) rotate(-315.000000) translate(-13.294893, -10.747715) "></path>
                        <path d="M14,27 C15.6568542,27 17,28.6568542 17,27 C17,25.3431458 15.6568542,24 14,24 C12.3431458,24 11,25.3092041 11,27 C11,28.6907959 12.3431458,27 14,27 Z" id="Oval-7" fill="#333333"></path>
                        <g id="Rectangle-22-Copy">
                            <use fill="#D8D8D8" fill-rule="evenodd" xlink:href="#path-2"></use>
                            <rect stroke="#333333" stroke-width="1" x="0.5" y="27.5" width="27" height="1" rx="0.5"></rect>
                        </g>
                    </g>
                </g>
            </g>
        </g>
    </g>
</svg>