<?xml version="1.0" encoding="UTF-8"?>
<svg width="30px" height="30px" viewBox="0 0 30 30" version="1.1" xmlns="http://www.w3.org/2000/svg" xmlns:xlink="http://www.w3.org/1999/xlink">
    <!-- Generator: Sketch 45.2 (43514) - http://www.bohemiancoding.com/sketch -->
    <title>icon_24小时保安服务</title>
    <desc>Created with Sketch.</desc>
    <defs></defs>
    <g id="01首页" stroke="none" stroke-width="1" fill="none" fill-rule="evenodd">
        <g id="01首页-" transform="translate(-1173.000000, -2326.000000)">
            <g id="06服务您的办公环境" transform="translate(390.000000, 2025.000000)">
                <g id="拎包入驻_icon" transform="translate(669.000000, 153.000000)">
                    <g id="icon_24小时保安服务" transform="translate(115.000000, 149.000000)">
                        <circle id="Oval-2-Copy-11" stroke="#333333" fill="#FFFFFF" cx="14" cy="14" r="14"></circle>
                        <path d="M13.6497964,18.5347811 L13.6497964,19.1395733 L6.49308894,19.1395733 L6.49308894,18.5347811 C7.23228308,17.0899926 8.44185536,15.7964222 10.121842,14.6540313 C11.9362277,13.4108411 12.793008,12.3188662 12.6922088,11.3780736 C12.6586091,9.79888614 11.8522276,8.99250463 10.2730401,8.95890489 C8.89545101,9.05970409 7.97147219,9.79888715 7.50107592,11.1764762 L6.59388764,11.1764762 C7.19868285,9.32849088 8.45865396,8.40451206 10.3738388,8.40451206 C12.4570223,8.50531126 13.5321976,9.44608969 13.5993971,11.2268756 C13.7673958,12.4700657 12.8098177,13.7804357 10.7266342,15.1580248 C9.14744674,16.1996165 8.03867216,17.3251907 7.40027722,18.5347811 L13.6497964,18.5347811 Z M20.6553059,19.1395733 L19.8489163,19.1395733 L19.8489163,16.5692065 L14.5569847,16.5692065 L14.5569847,16.0148137 L19.8489163,8.5557101 L20.6553059,8.5557101 L20.6553059,16.0148137 L22.116887,16.0148137 L22.116887,16.5692065 L20.6553059,16.5692065 L20.6553059,19.1395733 Z M15.4137737,16.0148137 L19.8489163,16.0148137 L19.8489163,9.76529447 L15.4137737,16.0148137 Z" id="24" stroke="#FF9D00" stroke-width="0.4" fill="#FF9D00"></path>
                    </g>
                </g>
            </g>
        </g>
    </g>
</svg>