<?xml version="1.0" encoding="UTF-8"?>
<svg width="28px" height="25px" viewBox="0 0 28 25" version="1.1" xmlns="http://www.w3.org/2000/svg" xmlns:xlink="http://www.w3.org/1999/xlink">
    <!-- Generator: Sketch 45.2 (43514) - http://www.bohemiancoding.com/sketch -->
    <title>icon_VRV空调系统</title>
    <desc>Created with Sketch.</desc>
    <defs></defs>
    <g id="01首页" stroke="none" stroke-width="1" fill="none" fill-rule="evenodd">
        <g id="01首页-" transform="translate(-1359.000000, -2403.000000)">
            <g id="06服务您的办公环境" transform="translate(390.000000, 2025.000000)">
                <g id="拎包入驻_icon" transform="translate(669.000000, 153.000000)">
                    <g id="icon_VRV空调系统" transform="translate(300.000000, 225.000000)">
                        <path d="M4,0.5 L24,0.5 C25.9329966,0.5 27.5,2.06700338 27.5,4 L27.5,13 C27.5,14.9329966 25.9329966,16.5 24,16.5 L4,16.5 C2.06700338,16.5 0.5,14.9329966 0.5,13 L0.5,4 C0.5,2.06700338 2.06700338,0.5 4,0.5 Z M4,1.5 C2.61928813,1.5 1.5,2.61928813 1.5,4 L1.5,13 C1.5,14.3807119 2.61928813,15.5 4,15.5 L24,15.5 C25.3807119,15.5 26.5,14.3807119 26.5,13 L26.5,4 C26.5,2.61928813 25.3807119,1.5 24,1.5 L4,1.5 Z" id="Rectangle-25" fill="#333333" fill-rule="nonzero"></path>
                        <path d="M6.5,21 C6.22385763,21 6,20.7761424 6,20.5 L6,24.5 C6,24.2238576 6.22385763,24 6.5,24 C6.77614237,24 7,24.2238576 7,24.5 L7,20.5 C7,20.7761424 6.77614237,21 6.5,21 Z" id="Rectangle-26" fill="#FF9D00"></path>
                        <path d="M6.5,20 C6.77614237,20 7,20.2238576 7,20.5 L7,24.5 C7,24.7761424 6.77614237,25 6.5,25 C6.22385763,25 6,24.7761424 6,24.5 L6,20.5 C6,20.2238576 6.22385763,20 6.5,20 Z" id="Rectangle-26" fill="#FF9D00"></path>
                        <path d="M10.5,21 C10.2238576,21 10,20.7761424 10,20.5 L10,24.5 C10,24.2238576 10.2238576,24 10.5,24 C10.7761424,24 11,24.2238576 11,24.5 L11,20.5 C11,20.7761424 10.7761424,21 10.5,21 Z" id="Rectangle-26-Copy" fill="#FF9D00"></path>
                        <path d="M10.5,20 C10.7761424,20 11,20.2238576 11,20.5 L11,24.5 C11,24.7761424 10.7761424,25 10.5,25 C10.2238576,25 10,24.7761424 10,24.5 L10,20.5 C10,20.2238576 10.2238576,20 10.5,20 Z" id="Rectangle-26-Copy" fill="#FF9D00"></path>
                        <path d="M14.5,21 C14.2238576,21 14,20.7761424 14,20.5 L14,24.5 C14,24.2238576 14.2238576,24 14.5,24 C14.7761424,24 15,24.2238576 15,24.5 L15,20.5 C15,20.7761424 14.7761424,21 14.5,21 Z" id="Rectangle-26-Copy-2" fill="#FF9D00"></path>
                        <path d="M14.5,20 C14.7761424,20 15,20.2238576 15,20.5 L15,24.5 C15,24.7761424 14.7761424,25 14.5,25 C14.2238576,25 14,24.7761424 14,24.5 L14,20.5 C14,20.2238576 14.2238576,20 14.5,20 Z" id="Rectangle-26-Copy-2" fill="#FF9D00"></path>
                        <path d="M18.5,21 C18.2238576,21 18,20.7761424 18,20.5 L18,24.5 C18,24.2238576 18.2238576,24 18.5,24 C18.7761424,24 19,24.2238576 19,24.5 L19,20.5 C19,20.7761424 18.7761424,21 18.5,21 Z" id="Rectangle-26-Copy-3" fill="#FF9D00"></path>
                        <path d="M18.5,20 C18.7761424,20 19,20.2238576 19,20.5 L19,24.5 C19,24.7761424 18.7761424,25 18.5,25 C18.2238576,25 18,24.7761424 18,24.5 L18,20.5 C18,20.2238576 18.2238576,20 18.5,20 Z" id="Rectangle-26-Copy-3" fill="#FF9D00"></path>
                        <path d="M22.5,21 C22.2238576,21 22,20.7761424 22,20.5 L22,24.5 C22,24.2238576 22.2238576,24 22.5,24 C22.7761424,24 23,24.2238576 23,24.5 L23,20.5 C23,20.7761424 22.7761424,21 22.5,21 Z" id="Rectangle-26-Copy-4" fill="#FF9D00"></path>
                        <path d="M22.5,20 C22.7761424,20 23,20.2238576 23,20.5 L23,24.5 C23,24.7761424 22.7761424,25 22.5,25 C22.2238576,25 22,24.7761424 22,24.5 L22,20.5 C22,20.2238576 22.2238576,20 22.5,20 Z" id="Rectangle-26-Copy-4" fill="#FF9D00"></path>
                        <path d="M5.5,10 L22.5,10 C22.2238576,10 22,9.77614237 22,9.5 C22,9.22385763 22.2238576,9 22.5,9 L5.5,9 C5.77614237,9 6,9.22385763 6,9.5 C6,9.77614237 5.77614237,10 5.5,10 Z" id="Rectangle-25" fill="#333333"></path>
                        <path d="M5.5,9 L22.5,9 C22.7761424,9 23,9.22385763 23,9.5 C23,9.77614237 22.7761424,10 22.5,10 L5.5,10 C5.22385763,10 5,9.77614237 5,9.5 C5,9.22385763 5.22385763,9 5.5,9 Z" id="Rectangle-25" fill="#333333"></path>
                        <path d="M5.5,13 L22.5,13 C22.2238576,13 22,12.7761424 22,12.5 C22,12.2238576 22.2238576,12 22.5,12 L5.5,12 C5.77614237,12 6,12.2238576 6,12.5 C6,12.7761424 5.77614237,13 5.5,13 Z" id="Rectangle-25-Copy" fill="#333333"></path>
                        <path d="M5.5,12 L22.5,12 C22.7761424,12 23,12.2238576 23,12.5 C23,12.7761424 22.7761424,13 22.5,13 L5.5,13 C5.22385763,13 5,12.7761424 5,12.5 C5,12.2238576 5.22385763,12 5.5,12 Z" id="Rectangle-25-Copy" fill="#333333"></path>
                    </g>
                </g>
            </g>
        </g>
    </g>
</svg>