<?xml version="1.0" encoding="UTF-8"?>
<svg width="35px" height="28px" viewBox="0 0 35 28" version="1.1" xmlns="http://www.w3.org/2000/svg" xmlns:xlink="http://www.w3.org/1999/xlink">
    <!-- Generator: Sketch 45.2 (43514) - http://www.bohemiancoding.com/sketch -->
    <title>icon_Wi-Fi</title>
    <desc>Created with Sketch.</desc>
    <defs></defs>
    <g id="01首页" stroke="none" stroke-width="1" fill="none" fill-rule="evenodd">
        <g id="01首页-" transform="translate(-1076.000000, -2249.000000)" fill-rule="nonzero">
            <g id="06服务您的办公环境" transform="translate(390.000000, 2025.000000)">
                <g id="拎包入驻_icon" transform="translate(669.000000, 153.000000)">
                    <g id="icon_Wi-Fi" transform="translate(17.000000, 65.000000)">
                        <path d="M18.0178223,33.923584 C16.0848256,33.923584 14.5178223,32.3565806 14.5178223,30.423584 C14.5178223,28.4905874 16.0848256,26.923584 18.0178223,26.923584 C19.9508189,26.923584 21.5178223,28.4905874 21.5178223,30.423584 C21.5178223,32.3565806 19.9508189,33.923584 18.0178223,33.923584 Z M18.0178223,32.923584 C19.3985341,32.923584 20.5178223,31.8042959 20.5178223,30.423584 C20.5178223,29.0428721 19.3985341,27.923584 18.0178223,27.923584 C16.6371104,27.923584 15.5178223,29.0428721 15.5178223,30.423584 C15.5178223,31.8042959 16.6371104,32.923584 18.0178223,32.923584 Z" id="Oval-5" fill="#FF9D00"></path>
                        <path d="M24.8666096,23.3774637 C23.4698803,21.8714048 21.5213915,21 19.4355451,21 C15.3279663,21 12,24.3588944 12,28.5 C12,28.7761424 12.2238576,29 12.5,29 C12.7761424,29 13,28.7761424 13,28.5 C13,24.9091191 15.8823323,22 19.4355451,22 C21.2397703,22 22.9237188,22.7530969 24.1333904,24.0574561 C24.3211651,24.259929 24.6375233,24.2718442 24.8399962,24.0840695 C25.0424691,23.8962947 25.0543843,23.5799366 24.8666096,23.3774637 Z" id="Oval-6" fill="#333333" transform="translate(18.500001, 25.000000) rotate(-338.000000) translate(-18.500001, -25.000000) "></path>
                        <path d="M28.8641173,17.6181003 C26.705983,15.3248509 23.7053663,14 20.494195,14 C14.1460673,14 9,19.1487844 9,25.5 C9,25.7761424 9.22385763,26 9.5,26 C9.77614237,26 10,25.7761424 10,25.5 C10,19.7009511 14.6984702,15 20.494195,15 C23.4267034,15 26.1648003,16.2089416 28.1358827,18.3034282 C28.3251308,18.5045247 28.6415676,18.5141296 28.842664,18.3248815 C29.0437604,18.1356334 29.0533654,17.8191967 28.8641173,17.6181003 Z" id="Oval-6" fill="#333333" transform="translate(19.000001, 20.000000) rotate(-338.000000) translate(-19.000001, -20.000000) "></path>
                        <path d="M33.8727236,11.9146057 C30.5237279,8.16928428 25.8368249,6 20.8150858,6 C10.9716527,6 3,14.2869788 3,24.5 C3,24.7761424 3.22385763,25 3.5,25 C3.77614237,25 4,24.7761424 4,24.5 C4,14.8307702 11.5328033,7 20.8150858,7 C25.547399,7 29.964963,9.04462353 33.1272764,12.5811704 C33.3113432,12.78702 33.6274328,12.8046784 33.8332824,12.6206116 C34.0391319,12.4365449 34.0567903,12.1204552 33.8727236,11.9146057 Z" id="Oval-6" fill="#333333" transform="translate(18.500002, 15.500000) rotate(-338.000000) translate(-18.500002, -15.500000) "></path>
                    </g>
                </g>
            </g>
        </g>
    </g>
</svg>