<?xml version="1.0" encoding="UTF-8"?>
<svg width="23px" height="21px" viewBox="0 0 23 21" version="1.1" xmlns="http://www.w3.org/2000/svg" xmlns:xlink="http://www.w3.org/1999/xlink">
    <!-- Generator: Sketch 45.2 (43514) - http://www.bohemiancoding.com/sketch -->
    <title>“</title>
    <desc>Created with Sketch.</desc>
    <defs></defs>
    <g id="01首页" stroke="none" stroke-width="1" fill="none" fill-rule="evenodd">
        <g id="01首页-" transform="translate(-1452.000000, -3801.000000)" fill="#666666">
            <g id="09会员说" transform="translate(0.000000, 3593.000000)">
                <g id="pic">
                    <path d="M1469.72461,217.667969 L1474.39746,217.667969 L1474.39746,228.732422 L1464.19238,228.732422 L1464.19238,216.969727 C1464.19238,215.50162 1464.35351,214.337895 1464.67578,213.478516 C1464.99805,212.619136 1465.51725,211.768722 1466.2334,210.927246 C1466.94955,210.085771 1467.81787,209.441246 1468.83838,208.993652 C1469.85889,208.546059 1471.04947,208.268555 1472.41016,208.161133 L1474.29004,208 L1474.29004,212.780273 C1473.6455,212.816081 1473.02783,212.878743 1472.43701,212.968262 C1471.84619,213.05778 1471.27328,213.344236 1470.71826,213.827637 C1470.16325,214.311038 1469.90365,214.749673 1469.93945,215.143555 L1469.72461,217.667969 Z M1457.47852,217.667969 L1462.15137,217.667969 L1462.15137,228.732422 L1452,228.732422 L1452,216.969727 C1452,215.430005 1452.15218,214.248377 1452.45654,213.424805 C1452.76091,212.601233 1453.28011,211.777673 1454.01416,210.954102 C1454.74821,210.13053 1455.63443,209.486005 1456.67285,209.020508 C1457.71127,208.555011 1458.87499,208.268555 1460.16406,208.161133 L1462.04395,208 L1462.04395,212.780273 C1461.39941,212.816081 1460.78174,212.878743 1460.19092,212.968262 C1459.60009,213.05778 1459.02718,213.344236 1458.47217,213.827637 C1457.91715,214.311038 1457.65755,214.749673 1457.69336,215.143555 L1457.47852,217.667969 Z" id="“" transform="translate(1463.198730, 218.366211) rotate(-180.000000) translate(-1463.198730, -218.366211) "></path>
                </g>
            </g>
        </g>
    </g>
</svg>