<?xml version="1.0" encoding="UTF-8"?>
<svg width="15px" height="13px" viewBox="0 0 15 13" version="1.1" xmlns="http://www.w3.org/2000/svg" xmlns:xlink="http://www.w3.org/1999/xlink">
    <!-- Generator: Sketch 50.2 (55047) - http://www.bohemiancoding.com/sketch -->
    <title>icon_会员专属</title>
    <desc>Created with Sketch.</desc>
    <defs></defs>
    <g id="01首页" stroke="none" stroke-width="1" fill="none" fill-rule="evenodd">
        <g transform="translate(-391.000000, -2598.000000)" fill="#DBAE3C" fill-rule="nonzero" id="入驻会员专享">
            <g transform="translate(391.000000, 2594.000000)">
                <g id="icon_会员专属" transform="translate(0.000000, 4.000000)">
                    <path d="M4.43920829,5.41784548 L10.730443,5.38955386 L7.70499528,13 L4.43920829,5.41784548 Z M5.1602262,2.65941239 L9.95287465,2.70184982 L10.801131,4.55495102 L4.58058435,4.51251359 L5.1602262,2.65941239 Z M3.78887842,4.45593035 L0,2.87159955 L2.03581527,1.35799781 L4.4674835,2.61697496 L3.78887842,4.45593035 Z M0,3.79107725 L3.59095194,5.38955386 L7.45051838,12.9434168 L0,3.79107725 Z M11.6352498,5.37540805 L15,3.63547333 L7.91705937,12.9009793 L11.6352498,5.37540805 Z M11.5645617,4.44178454 L10.6173421,2.48966267 L12.7803959,1.28726876 L14.6465599,2.85745375 L11.5645617,4.44178454 Z M5.08953817,1.72578889 L4.26955702,1.51360174 L2.72855796,0.650707291 L4.53817153,0 L10.4476909,0 L12.2431668,0.749727963 L10.5183789,1.58433079 L9.93873704,1.72578889 L5.08953817,1.72578889 Z" id="Shape"></path>
                </g>
            </g>
        </g>
    </g>
</svg>