<?xml version="1.0" encoding="UTF-8"?>
<svg width="68px" height="68px" viewBox="0 0 68 68" version="1.1" xmlns="http://www.w3.org/2000/svg" xmlns:xlink="http://www.w3.org/1999/xlink">
    <!-- Generator: Sketch 48.2 (47327) - http://www.bohemiancoding.com/sketch -->
    <title>icon_build</title>
    <desc>Created with Sketch.</desc>
    <defs></defs>
    <g id="Symbols" stroke="none" stroke-width="1" fill="none" fill-rule="evenodd">
        <g id="icon_build">
            <g id="城市-(1)">
                <rect id="Rectangle-3" x="0" y="0" width="68" height="68"></rect>
                <path d="M58.7228426,59.4745843 L56.1742809,59.4745843 L56.1742809,35.4745843 C56.1742809,34.0779097 55.0294416,32.9491686 53.6257191,32.9491686 L40.8771574,32.9491686 L40.8771574,35.4745843 L52.3485618,35.4745843 C53.050423,35.4745843 53.6257191,36.0389549 53.6257191,36.7401425 L53.6257191,58.2147268 C53.6257191,58.9159145 53.050423,59.4745843 52.3485618,59.4745843 L37.0456853,59.4745843 L37.0456853,16.5254157 C37.0456853,15.1287411 35.906599,14 34.4971235,14 L15.3800338,14 C13.9705584,14 12.8314721,15.1344418 12.8314721,16.5254157 L12.8314721,59.4745843 L10.2771574,59.4745843 C9.57529611,59.4745843 9,60.0389549 9,60.7344418 C9,61.4356295 9.56954315,62 10.2771574,62 L58.7228426,62 C59.4247039,62 60,61.4356295 60,60.7344418 C60,60.0389549 59.4247039,59.4745843 58.7228426,59.4745843 Z M34.5028765,59.4745843 L15.3800338,59.4745843 L15.3800338,17.7852732 C15.3800338,17.0897862 15.949577,16.5254157 16.6571912,16.5254157 L33.2314721,16.5254157 C33.9333333,16.5254157 34.5086294,17.0897862 34.5086294,17.7852732 L34.5086294,59.4745843 L34.5028765,59.4745843 Z" id="Shape" fill="#000000" fill-rule="nonzero"></path>
                <polygon id="Path" fill="#F4A500" points="19 33 23 33 23 29 19 29 19 33"></polygon>
                <polygon id="Path" fill="#F4A500" points="19 26 23 26 23 22 19 22 19 26"></polygon>
                <polygon id="Path" fill="#F4A500" points="27 33 31 33 31 29 27 29"></polygon>
                <polygon id="Path" fill="#F4A500" points="27 26 31 26 31 22 27 22"></polygon>
            </g>
        </g>
    </g>
</svg>