<?xml version="1.0" encoding="UTF-8"?>
<svg width="68px" height="68px" viewBox="0 0 68 68" version="1.1" xmlns="http://www.w3.org/2000/svg" xmlns:xlink="http://www.w3.org/1999/xlink">
    <!-- Generator: Sketch 48.2 (47327) - http://www.bohemiancoding.com/sketch -->
    <title>icon_city</title>
    <desc>Created with Sketch.</desc>
    <defs></defs>
    <g id="Symbols" stroke="none" stroke-width="1" fill="none" fill-rule="evenodd">
        <g id="icon_city">
            <g id="Group-8">
                <rect id="Rectangle-3" x="0" y="0" width="68" height="68"></rect>
                <g id="城市" transform="translate(6.000000, 6.000000)">
                    <path d="M9.95120226,26.021018 C8.9582744,26.5013679 8.57213579,27.6316031 9.04101839,28.7053266 C9.50990099,29.8355618 10.0891089,30.965797 10.6958982,32.0395204 C14.4745403,38.6231405 19.4391796,44.1895489 24.9830269,49.2756073 C26.0586987,50.2645631 26.9964639,50.2363072 28.0445545,49.2190956 C31.023338,46.3652517 33.8090523,43.3136166 36.4016973,40.0641904 C39.1874116,36.5887171 41.7524752,32.9719645 43.7107496,28.9031177 C45.0070721,26.1905532 45.9724187,23.3932211 46,20.3133302 C45.917256,15.9336688 44.7036775,11.9495897 42.2213579,8.36109288 C37.7256011,1.89049633 29.7821782,-1.27416225 22.3628006,0.47770232 C13.3988685,2.59689333 7.02758133,10.7910986 7,20.2568184 C7,21.5000771 7.82743989,22.4325212 8.9582744,22.4325212 C10.0891089,22.4325212 10.8889675,21.528333 10.9165488,20.2568184 C10.9441301,18.476698 11.2199434,16.7530893 11.77157,15.0577365 C13.950495,8.332837 20.0459689,3.7836403 26.9413013,4.03794322 C32.9816124,4.26399026 37.4222065,7.34388119 40.2630835,12.7407543 C41.7524752,15.5663423 42.3868458,18.6462332 41.9731259,21.8956595 C41.6973126,24.0431064 40.8698727,26.021018 39.8769448,27.8859061 C36.45686,34.3565026 31.7680339,39.7816316 26.748232,44.9524577 C26.4724187,45.2350165 26.3620934,45.0937371 26.169024,44.8959459 C24.6520509,43.454896 23.1902405,41.9573344 21.7835926,40.3750051 C18.1704385,36.3061583 14.8606789,32.0112646 12.5714286,26.9817179 C12.0749646,25.9645062 10.9441301,25.540668 9.95120226,26.021018 Z" id="Shape" fill="#F4A500" fill-rule="nonzero"></path>
                    <path d="M47.7122939,38.9936243 C47.3726167,38.4013625 46.8347945,38.0629272 46.1271337,38.0065213 C45.36286,37.9501154 44.7401185,38.2603478 44.315522,38.9090155 C43.8343126,39.6140891 43.8626191,40.3473657 44.2872156,41.0806422 L50.1466472,51.3183112 C50.2598729,51.5157318 50.4297115,51.6849495 50.4297115,51.938776 L5.42248327,51.938776 C6.15845053,50.6696434 6.83780491,49.4851198 7.5171593,48.3005961 C8.90417451,45.9033458 10.2911897,43.4778925 11.6498985,41.0806422 C12.3575593,39.8397127 11.7631242,38.4013625 10.4327219,38.0629272 C9.52691603,37.8373036 8.64941661,38.2603478 8.11159439,39.2192479 C5.535709,43.7035161 3.04474291,48.2159873 0.383938226,52.6438496 C-0.635093356,54.3360263 0.497163958,56 2.33708209,56 C10.5176412,55.9153912 18.7265067,55.9717971 26.9070658,55.9717971 L53.798177,55.9717971 C55.5248694,55.9717971 56.5155945,54.4206351 55.7230144,52.9822849 C53.0622097,48.3005961 50.3730986,43.6471102 47.7122939,38.9936243 Z" id="Path" fill="#111111"></path>
                    <path d="M34.9998355,19 C34.9998355,14.6183746 31.4097664,11.0282686 27.028186,11 C22.5900691,11 19,14.5618375 19,19 C19,23.3816254 22.5618008,26.9717314 26.9716495,27 C31.4097664,27 35.0281037,23.409894 34.9998355,19 Z M23.0423613,19 C23.0423613,16.795053 24.8515299,15.0141343 27.0564543,15.0141343 C29.2331103,15.0141343 31.0140107,16.8233216 31.0140107,18.9717314 C31.0140107,21.1484099 29.2331103,22.9575972 27.0847225,22.9858657 C24.8515299,23.0141343 23.014093,21.204947 23.0423613,19 Z" id="Shape" fill="#F4A500" fill-rule="nonzero"></path>
                </g>
            </g>
        </g>
    </g>
</svg>