<?xml version="1.0" encoding="UTF-8"?>
<svg width="68px" height="68px" viewBox="0 0 68 68" version="1.1" xmlns="http://www.w3.org/2000/svg" xmlns:xlink="http://www.w3.org/1999/xlink">
    <!-- Generator: Sketch 48.2 (47327) - http://www.bohemiancoding.com/sketch -->
    <title>icon_phone</title>
    <desc>Created with Sketch.</desc>
    <defs></defs>
    <g id="Symbols" stroke="none" stroke-width="1" fill="none" fill-rule="evenodd">
        <g id="icon_phone">
            <g id="手机">
                <rect id="Path" x="0" y="0" width="68" height="68"></rect>
                <path d="M49.6606398,6 C51.9867872,6 53.8470097,7.98173157 54,10.2662277 L54,56.7337043 C54,59.1695827 51.9833102,60.999932 49.6606398,60.999932 L18.3428373,60.999932 C17.1938915,61.00634 16.0897303,60.5594417 15.274684,59.7581275 C14.4596377,58.9568132 14.0009068,57.8671515 14,56.7302638 L14,10.2662277 C14,7.82346828 16.0166898,6 18.3428373,6 L49.6606398,6 Z M18.3428373,8.89346571 C17.9728057,8.8897845 17.6166982,9.03289853 17.3540549,9.29084187 C17.0914117,9.5487852 16.9441141,9.90006797 16.9450626,10.2662277 L16.945058,43.477434 L51.0549419,43.477434 L51.0549374,10.2662277 C51.0558762,9.90066968 50.9090547,9.54991649 50.6471674,9.29207414 C50.38528,9.03423179 50.0300715,8.89070906 49.6606398,8.89346571 L18.3428373,8.89346571 Z M49.6606398,58.1030258 C50.029468,58.1057768 50.3841456,57.9627248 50.6459313,57.7056284 C50.9077171,57.448532 51.0549479,57.0986664 51.0549374,56.7337043 L51.0549374,46.6771047 L16.9450626,46.6771047 L16.9450626,56.7337043 C16.9450626,57.4940562 17.5674548,58.1030258 18.3428373,58.1030258 L49.6606398,58.1030258 Z" id="Shape" fill="#333333" fill-rule="nonzero"></path>
                <path d="M34.0208623,49.6256185 C35.5513593,49.6256185 36.7920723,50.8532911 36.7920723,52.367702 C36.7920723,53.8821129 35.5513593,55.1097854 34.0208623,55.1097854 C32.4903653,55.1097854 31.2496523,53.8821129 31.2496523,52.367702 C31.2496523,50.8532911 32.4903653,49.6256185 34.0208623,49.6256185 Z" id="Path" fill="#F4A500"></path>
            </g>
        </g>
    </g>
</svg>