<?xml version="1.0" encoding="UTF-8"?>
<svg width="68px" height="68px" viewBox="0 0 68 68" version="1.1" xmlns="http://www.w3.org/2000/svg" xmlns:xlink="http://www.w3.org/1999/xlink">
    <!-- Generator: Sketch 48.2 (47327) - http://www.bohemiancoding.com/sketch -->
    <title>icon_count</title>
    <desc>Created with Sketch.</desc>
    <defs></defs>
    <g id="Symbols" stroke="none" stroke-width="1" fill="none" fill-rule="evenodd">
        <g id="icon_count">
            <g id="人数">
                <rect id="Path" x="0" y="0" width="68" height="68"></rect>
                <path d="M39.6522032,36.2694664 L40.9838249,36.2694664 C47.6090375,36.2694664 53,41.6064458 53,48.1651901 L53,49.3507546 C53,53.0173422 49.9867454,56 46.2826792,56 L18.7173208,56 C15.0132546,56 12,53.0173422 12,49.3507546 L12,48.1651901 C12,41.6064458 17.3909625,36.2694664 24.0161751,36.2694664 L25.4780641,36.2694664 C21.5952915,33.8569118 19.2469997,29.652953 19.2607593,25.1391235 C19.2607593,21.5074435 20.7292275,18.1239951 23.3964184,15.6132359 C26.0271784,13.1157192 29.6013182,11.8133939 33.2533136,12.0216349 C36.7034244,12.2013442 39.9087904,13.6920267 42.2772875,16.2183004 C44.6384571,18.7235651 45.9124853,22.0346402 45.8287172,25.4481201 C45.7181874,29.9615395 43.429956,33.9397094 39.6522032,36.2694664 Z M33.1348888,14.8155333 C30.2611015,14.659028 27.450407,15.6832327 25.3754292,17.6430463 C23.2843559,19.5933139 22.1071042,22.3063438 22.1226933,25.1391235 C22.1226933,29.1858157 24.509612,32.8717964 28.2044674,34.5279666 C28.7202734,34.768441 29.0400205,35.2571469 29.0400205,35.8079108 L29.0400205,37.6735264 C29.0400205,38.4479573 28.403158,39.0775864 27.621554,39.0775864 L24.0161751,39.0775864 C18.9541705,39.0775864 14.8369331,43.1540147 14.8369331,48.1651901 L14.8369331,49.3507546 C14.8369331,51.4684804 16.5777785,53.19188 18.7173208,53.19188 L46.2826792,53.19188 C48.4222215,53.19188 50.1630669,51.4684804 50.1630669,49.3507546 L50.1630669,48.1651901 C50.1630669,43.1540147 46.0445136,39.0775864 40.9838249,39.0775864 L37.5442408,39.0775864 C36.7582376,39.0740238 36.1235886,38.4458206 36.1257743,37.6735264 L36.1257743,35.8079108 C36.1257743,35.2661971 36.4521005,34.7645624 36.9573799,34.5292595 C40.5969704,32.8821394 42.9180975,29.3784538 43.0167849,25.3847694 C43.1417889,19.8525661 38.7087519,15.1103083 33.1348888,14.8155333 Z" id="Shape" fill="#000000" fill-rule="nonzero"></path>
                <path d="M57.5547186,50 L55.5215405,50 C54.7572395,49.9957656 54.1404866,49.3734195 54.1426155,48.6085701 C54.1426155,47.8411055 54.7610192,47.2171401 55.5215405,47.2171401 L57.5547186,47.2171401 C59.0496738,47.2100794 60.2566464,45.9930826 60.2523927,44.4970611 L60.2523927,43.5720037 C60.2523927,39.8128366 57.2179895,36.7532282 53.4896426,36.7532282 L50.8367804,36.7532282 C50.0719786,36.7496977 49.4544484,36.1271453 49.4565751,35.3617982 L49.4565751,33.8998999 C49.4602675,33.3572384 49.7749809,32.8649024 50.2657493,32.6340318 C52.9608627,31.4027572 54.6777971,28.7633966 54.7494961,25.7460692 C54.8455215,21.5730606 51.5665736,18.000955 47.438761,17.7831437 C46.7358549,17.7472689 46.3952848,17.8049248 45.6757343,17.9650802 C45.3219848,18.0473695 44.9500245,17.983639 44.6437812,17.7882686 C44.1734746,17.4903212 43.9272949,16.9394208 44.0189401,16.3900004 C44.1105852,15.84058 44.5222204,15.3995604 45.0637323,15.2706261 C46.0355095,15.048971 46.6026997,14.9631277 47.5911213,15.0143775 C50.3105611,15.1553142 52.8405108,16.3571202 54.7123663,18.3981403 C56.5721324,20.415559 57.5749054,23.0777245 57.5086264,25.8216625 C57.4394881,29.0696136 55.9210062,32.0613162 53.4038599,33.9831807 L53.4896426,33.9831807 C58.7339108,33.9831807 63,38.2855949 63,43.5720037 L63,44.4970611 C63,47.5310447 60.5571134,50 57.5547186,50 Z" id="Path" fill="#F4A500"></path>
            </g>
        </g>
    </g>
</svg>