<?xml version="1.0" encoding="UTF-8"?>
<svg width="120px" height="120px" viewBox="0 0 120 120" version="1.1" xmlns="http://www.w3.org/2000/svg" xmlns:xlink="http://www.w3.org/1999/xlink">
    <!-- Generator: Sketch 48.2 (47327) - http://www.bohemiancoding.com/sketch -->
    <title>icon_write</title>
    <desc>Created with Sketch.</desc>
    <defs></defs>
    <g id="Symbols" stroke="none" stroke-width="1" fill="none" fill-rule="evenodd" opacity="0.8">
        <g id="icon_write">
            <g id="悬浮">
                <path d="M60,0 C26.86125,0 0,26.86125 0,60 C0,93.13875 26.86125,120 60,120 C93.13875,120 120,93.13875 120,60 C120,26.86125 93.13875,0 60,0 Z" id="Path" fill="#FFFFFF"></path>
                <path d="M39.465,71.89875 L47.41875,79.8525 L79.23375,48.03375 L71.2875,40.08 L39.465,71.89875 Z M60,0 C26.86125,0 0,26.86125 0,60 C0,93.13875 26.86125,120 60,120 C93.13875,120 120,93.13875 120,60 C120,26.86125 93.13875,0 60,0 Z M27.5475,91.78125 L31.4925,74.5125 L44.8275,87.8475 L27.5475,91.78125 Z M88.52625,44.05875 L47.42625,85.15875 L34.16625,71.89875 L75.26625,30.79875 C78.9515036,27.2803263 84.7716792,27.3477119 88.3744837,30.9505163 C91.9772881,34.5533208 92.0446737,40.3734964 88.52625,44.05875 Z M77.91375,33.45375 L73.93875,37.4325 L81.8925,45.38625 L85.8675,41.4075 C88.0613308,39.2100825 88.0613308,35.6511675 85.8675,33.45375 C84.8141255,32.3964614 83.3830918,31.8021527 81.890625,31.8021527 C80.3981582,31.8021527 78.9671245,32.3964614 77.91375,33.45375 Z" id="Shape" fill="#F4A500" fill-rule="nonzero"></path>
            </g>
        </g>
    </g>
</svg>