<?xml version="1.0" encoding="UTF-8"?>
<svg width="652px" height="196px" viewBox="0 0 652 196" version="1.1" xmlns="http://www.w3.org/2000/svg" xmlns:xlink="http://www.w3.org/1999/xlink">
    <!-- Generator: Sketch 48.2 (47327) - http://www.bohemiancoding.com/sketch -->
    <title>mainpoint</title>
    <desc>Created with Sketch.</desc>
    <defs>
        <polygon id="path-1" points="0.133973684 0.396153846 36.5247632 0.396153846 36.5247632 30.1359231 0.133973684 30.1359231"></polygon>
        <polygon id="path-3" points="0 0 60.1449275 0 60.1449275 59.7565158 0 59.7565158"></polygon>
    </defs>
    <g id="Page-1" stroke="none" stroke-width="1" fill="none" fill-rule="evenodd">
        <g id="mainpoint" transform="translate(-1.000000, 0.000000)">
            <g id="Group-4" transform="translate(16.000000, 0.000000)">
                <g id="circle_2_pic" transform="translate(170.000000, 0.000000)" fill-rule="nonzero">
                    <g id="Group">
                        <circle id="Oval-4" fill="#F8F8F8" cx="60" cy="60" r="60"></circle>
                        <g id="1" transform="translate(23.000000, 12.000000)">
                            <g id="Group-6">
                                <g id="Group-3" fill="#333333">
                                    <path d="M61.7988474,72.7706747 C58.8551632,74.5884283 54.6042684,75.091971 51.2847947,75.7624685 C41.8793211,77.6659315 31.5674789,78.9149675 22.3382684,81.5933863 L14.6721632,58.6973695 C18.9490053,56.9197922 21.5437421,51.934362 23.4065842,47.5292559 C25.5074263,42.5554322 27.6887947,37.427153 33.1332684,35.3656633 C33.8123737,37.0093197 34.2642158,38.5770875 34.8109,40.4894785 C35.0999,41.505492 36.2711105,41.7438713 37.1032158,41.2894329 C41.4990579,38.8931409 46.2626368,36.3057883 51.2722684,35.4433375 C51.3071632,35.4558368 51.3456368,35.4656576 51.3814263,35.4790497 C51.3894789,35.4611936 51.3975316,35.4388734 51.4055842,35.4201245 C51.4896895,35.4076252 51.5720053,35.3888763 51.6561105,35.376377 C53.1735842,35.1424618 55.6314263,34.9888991 56.4053737,36.6959447 C56.9851632,37.9717648 56.7811632,39.4922139 56.5082684,40.8162456 C56.3472158,41.5956655 55.9696368,42.7679201 55.8926895,42.957195 C55.5544789,43.786612 55.8792684,45.0133278 56.9296895,45.1383207 C60.9506368,45.6124009 61.5259526,50.1683912 60.0111632,53.2780355 C59.7355842,53.8413962 59.7973211,54.7109895 60.3574263,55.1065027 C63.5373211,57.3474464 63.0103211,60.9034938 61.2432158,63.9345711 C60.9980579,64.3506188 60.9989526,65.0836127 61.3300053,65.4630554 C63.0729526,67.4781192 64.7004789,70.9770269 61.7988474,72.7706747 Z M32.2000579,31.0507306 C32.1937947,31.0578731 32.1884263,31.0650155 32.1830579,31.0730508 L32.0971632,30.8239578 C32.1320579,30.8989536 32.1669526,30.9757349 32.2000579,31.0507306 Z M43.4129,24.726091 C43.7430579,26.0974415 44.8954789,27.4509358 46.5766895,28.2294628 C49.1061105,29.399039 51.8654789,28.823179 52.7378474,26.9420362 C53.6120053,25.062679 52.2690053,22.5904984 49.7395842,21.4200294 C47.2352158,20.2629525 44.5071632,20.818278 43.6070579,22.6547805 C44.0257947,17.5675704 44.0070053,12.5491063 43.9023211,9.01448632 C46.4415842,9.00734387 47.7845842,6.20750342 48.3106895,4.74419395 C52.8514789,5.21916688 56.7856368,7.82348276 59.4510579,10.135851 C58.6896368,11.6598713 57.6678474,14.550778 59.6756368,16.3122848 C55.6869,21.2878941 52.6761105,27.0366736 50.6396895,31.6087345 C47.4741105,32.1667385 44.3702684,33.4005967 41.3952684,34.8433717 C42.3937947,31.8658627 43.0281632,28.3321355 43.4129,24.726091 Z M6.71616316,61.4579265 L5.54226842,57.8625957 L9.14626842,56.690341 L10.3219526,60.2865647 L6.71616316,61.4579265 Z M65.2802684,64.6720291 C67.1583211,60.8677816 67.2817947,56.2796501 64.0312158,53.3182118 C65.4976895,49.0077431 64.2889,43.5982299 59.9252684,41.9992139 C60.7010053,39.344008 60.9059,36.3575711 59.4949,33.9710999 C58.2207947,31.818544 55.6260579,31.2551833 53.2773737,31.3176797 C55.8300579,25.8171003 59.6926368,18.9540985 64.7836895,14.0150942 L65.4976895,13.3231694 L64.8973211,12.527679 C64.4866368,11.9857456 54.6749526,-0.734065313 42.2032158,3.11482251 L41.3433737,3.38087877 L41.4113737,4.27725627 C41.4283737,4.50402906 43.0344263,26.5572367 38.3639,36.3941761 C37.9397947,36.6200561 37.5192684,36.8450433 37.1014263,37.0709233 C36.4223211,34.9647933 35.5848474,32.846164 34.5836368,30.8123514 C32.5507947,26.113512 29.4031105,19.9174365 25.1477421,14.6079176 C27.1564263,12.8464108 26.1319526,9.95550413 25.3714263,8.43148383 C28.0377421,6.1191156 31.9719,3.51390691 36.5126895,3.03893397 C36.9600579,4.28439872 38.0006368,6.49052301 39.8625842,7.12709387 C39.7936895,5.48611595 39.7212158,4.4817089 39.7167421,4.43528298 L39.5816368,2.6443136 L41.3013211,2.11220107 C41.9679,1.90774843 42.6434263,1.75329295 43.3234263,1.62919288 L42.6183737,1.41134815 C30.1475316,-2.43932528 20.3376368,10.2813784 19.9269526,10.8242046 L19.3247947,11.6179094 L20.0387947,12.3116199 C25.4626895,17.57382 29.4952684,25.0242883 32.0327421,30.6793232 C24.4265842,33.2791751 21.6573737,39.8305875 19.2120579,45.6124009 C17.5165316,49.6300291 16.0312684,53.1360793 13.2781632,54.4752887 L13.1851105,54.1967331 L12.3377947,51.5950957 L0.000268421053,55.607367 L11.8689526,91.958867 L24.2073737,87.9483813 L23.4924789,85.7627915 C34.6802684,82.5227976 46.3297421,81.2639407 57.6472684,78.5739155 C61.1242158,77.7471769 64.7371632,76.9311519 66.6563737,73.6849083 C68.2856895,70.926137 67.0956895,67.1665298 65.2802684,64.6720291 Z" id="Fill-1"></path>
                                </g>
                                <path d="M35.2316282,17.728964 C32.3293424,19.0719731 30.7873427,21.9096049 31.7903612,24.0670246 C32.792353,26.2244443 35.9564296,26.8851925 38.859742,25.5432078 C39.3001667,25.3383246 39.7046593,25.0965625 40.078353,24.8322632 C40.3781292,22.4463988 40.5731891,19.9867764 40.6943316,17.5865702 C39.243702,16.8336246 37.1812004,16.8295269 35.2316282,17.728964" id="Fill-4" fill="#F4A500"></path>
                            </g>
                            <path d="M43,24.8999559 C43.3097976,26.2679122 44.3911506,27.620175 45.9686836,28.396135 C48.3421192,29.5626905 50.9313217,28.9881314 51.7498926,27.1118777 C52.569303,25.2373677 51.3091237,22.7699894 48.9365276,21.6034339 C46.58576,20.4482126 44.0267817,21.001847 43.1821845,22.8353793" id="Fill-7" fill="#F4A500"></path>
                        </g>
                    </g>
                </g>
                <g id="circle_1_pic" fill-rule="nonzero">
                    <g id="Group">
                        <circle id="Oval-4-Copy" fill="#F8F8F8" cx="60" cy="60" r="60"></circle>
                        <g id="2" transform="translate(27.000000, 13.000000)">
                            <g id="地铁" transform="translate(28.000000, 35.000000)">
                                <path d="M27.4981489,44.7951389 L9.74185111,44.7951389 L10.9826112,41.9583333 L6.45712384,41.9583333 L0,57 L4.52548736,57 L5.38644533,54.9548611 L31.8535547,54.9548611 L32.7145126,57 L37.24,57 L30.7828762,41.9583333 L26.2573888,41.9583333 L27.4981489,44.7951389 Z M7.10836129,50.9305556 L8.01993515,48.8194444 L29.2200039,48.8194444 L30.1315777,50.9305556 L7.10836129,50.9305556 Z" id="Shape" fill="#333333"></path>
                                <path d="M38,37.9057586 C38,40.128925 36.2603221,41.9583333 34.084715,41.9583333 L3.93914976,41.9583333 C1.76360386,41.9583333 0,40.128925 0,37.9057586 L0,4.0253737 C0,1.80220734 1.76360386,0 3.93914976,0 L34.0847762,0 C36.2603221,0 38,1.80220734 38,4.0253737 L38,37.9057586 Z M9.53616425,36.2192963 C11.3039903,36.2192963 12.737037,34.7548191 12.737037,32.9483597 C12.737037,31.1419002 11.3039903,29.6774231 9.53616425,29.6774231 C7.76839936,29.6774231 6.33529147,31.1419002 6.33529147,32.9483597 C6.33529147,34.7548191 7.76833816,36.2192963 9.53616425,36.2192963 Z M29.3961514,36.2192963 C31.1639775,36.2192963 32.5970242,34.7548191 32.5970242,32.9483597 C32.5970242,31.1419002 31.1639163,29.6774231 29.3961514,29.6774231 C27.6283865,29.6774231 26.1952786,31.1419002 26.1952786,32.9483597 C26.1952786,34.7548191 27.6283253,36.2192963 29.3961514,36.2192963 Z M32.6151369,17.9855553 C32.6151369,20.2087216 30.851533,22.010929 28.6759871,22.010929 L9.44639614,22.010929 C7.27085024,22.010929 5.50724638,20.2087216 5.50724638,17.9855553 L5.50724638,10.4035406 C5.50724638,8.18037425 7.27085024,6.37816692 9.44639614,6.37816692 L28.6759259,6.37816692 C30.851533,6.37816692 32.6151369,8.18037425 32.6151369,10.4035406 L32.6151369,17.9855553 Z" id="Shape" fill="#F4A500"></path>
                                <path d="M32.68,10.4103533 C32.68,8.15866333 30.8999942,6.33333333 28.7042153,6.33333333 L9.29578474,6.33333333 C7.10000578,6.33333333 5.32,8.15866333 5.32,10.4103533 L5.32,18.0895833 C5.32,20.3413367 7.10000578,22.1666667 9.29578474,22.1666667 L28.7041535,22.1666667 C30.8999942,22.1666667 32.68,20.3413367 32.68,18.0896467 L32.68,10.4103533 Z" id="Shape" fill="#F0F0F0"></path>
                            </g>
                            <g id="楼盘" fill="#333333">
                                <path d="M24.0246154,38.8977764 L24.0246154,78 L0,78 L0,18.9913043 L7.5712,18.9913043 L7.60940308,11.336646 L12.2092308,11.336646 L12.2092308,0 L19.7907692,0 L19.7907692,11.336646 L25.4030769,11.336646 L25.4030769,18.9913043 L32,18.9913043 L32,31.7813665 L31.1730215,31.7813665 C27.2019692,31.7813665 24.0246154,34.9900248 24.0246154,38.8977764 Z M4.44444444,26.5714286 L4.44444444,32.5714286 L10.6666667,32.5714286 L10.6666667,26.5714286 L4.44444444,26.5714286 Z M4.44444444,36.8571429 L4.44444444,42.8571429 L10.6666667,42.8571429 L10.6666667,36.8571429 L4.44444444,36.8571429 Z M4.44444444,47.1428571 L4.44444444,53.1428571 L10.6666667,53.1428571 L10.6666667,47.1428571 L4.44444444,47.1428571 Z" id="Combined-Shape"></path>
                            </g>
                        </g>
                    </g>
                </g>
                <g id="circle_3_pic" transform="translate(340.000000, 0.000000)">
                    <g id="Group">
                        <circle id="Oval-4-Copy-2" fill="#F8F8F8" fill-rule="nonzero" cx="60" cy="60" r="60"></circle>
                        <g id="3" transform="translate(25.000000, 17.000000)">
                            <path d="M19.5,28.0952381 C24.5959053,28.0952381 28.7652823,24.0238095 28.7652823,19.0476191 C28.7652823,14.0714286 24.5959053,10 19.5,10 C14.4040947,10 10.2347177,14.0714286 10.2347177,19.0476191 C10.2347177,24.0238095 14.4040947,28.0952381 19.5,28.0952381 Z M38.86444,53.4285714 L33.3979235,33.5238095 C32.9346593,31.8047619 31.1742557,30.7190476 29.3211993,30.9 L9.49349511,30.9 C7.64043868,30.7190476 5.9726878,31.8047619 5.41677092,33.5238095 L0.135560027,53.4285714 C-0.420356932,55.3285714 0.784129763,57.3190476 2.8224919,57.8619047 L2.8224919,60.6666667 C1.80331083,60.6666667 0.969435467,61.4809524 0.969435391,62.4761905 L0.969435391,75.1428572 C0.969435391,76.1380953 1.80331083,76.9523809 2.8224919,76.9523809 L4.67554833,76.9523809 C5.69472939,76.9523809 6.52860476,76.1380952 6.52860476,75.1428572 L6.52860476,62.4761905 C6.52860476,61.4809524 5.69472932,60.6666667 4.67554833,60.6666667 L4.67554833,57.8619047 C5.97268787,57.5904761 7.08452172,56.595238 7.45513305,55.3285714 L9.30818948,48.5428572 L9.30818948,81.4761905 C9.30818948,84.0095238 11.3465516,86 13.9408306,86 C16.5351097,86 18.5734718,84.0095238 18.5734718,81.4761905 L18.5734718,61.5714286 L20.4265282,61.5714286 L20.4265282,81.4761905 C20.4265282,84.0095238 22.4648903,86 25.0591694,86 C27.6534484,86 29.6918105,84.0095238 29.6918105,81.4761905 L29.6918105,48.5428572 L31.544867,55.2380953 C32.1007839,57.1380953 34.139146,58.3142857 36.1775081,57.7714286 C38.2158702,57.3190476 39.4203569,55.3285714 38.86444,53.4285714 Z" id="Shape" fill="#333333" fill-rule="nonzero"></path>
                            <path d="M39.140625,83 L43.6289062,76.5898438 L39.328125,70.5546875 L43.3476562,70.5546875 L45.5507812,73.9765625 L47.8710938,70.5546875 L51.7382812,70.5546875 L47.5195312,76.4492188 L52.125,83 L48.0820312,83 L45.5507812,79.1445312 L42.9960938,83 L39.140625,83 Z M61.7929688,83 L58.5,83 L58.5,70.5898438 C57.296869,71.7148494 55.8789144,72.5468723 54.2460938,73.0859375 L54.2460938,70.0976562 C55.105473,69.8164048 56.0390575,69.2832071 57.046875,68.4980469 C58.0546925,67.7128867 58.7460919,66.7968802 59.1210938,65.75 L61.7929688,65.75 L61.7929688,83 Z" id="x1" fill="#111111" fill-rule="nonzero"></path>
                            <path d="M19,34 C20.1,34 21,34.9 21,36 C21,37.0999999 20.1,37.9999999 19,38 C17.9,38.0000001 17,37.1 17,36 C17,34.8999999 17.9,34 19,34 Z" id="Path" fill="#F4A500" fill-rule="nonzero"></path>
                            <polygon id="Path" fill="#F4A500" fill-rule="nonzero" points="19 56 16 50.9473684 18 40 20 40 22 50.9473684"></polygon>
                            <g id="Page-1" transform="translate(31.000000, 0.000000)">
                                <path d="M31.1471842,18.3109231 C31.4408684,19.3732308 31.6129737,20.4855385 31.6129737,21.6355385 C31.6129737,27.4916923 27.5637632,32.4309231 22.0532368,33.9678462 L21.5574474,34.0916923 C20.5556053,34.3309231 19.5158684,34.4693846 18.4406053,34.4693846 C11.1766579,34.4693846 5.26823684,28.7124615 5.26823684,21.6355385 C5.26823684,14.5593846 11.1766579,8.80169231 18.4406053,8.80169231 C20.5129737,8.80169231 22.4661316,9.28323077 24.2124474,10.1170769 C25.4187632,8.78630769 26.7277105,7.51630769 28.1313947,6.37861538 C25.3098158,4.67169231 21.9979737,3.66861538 18.4406053,3.66861538 C8.27139474,3.66861538 7.89473685e-05,11.7286154 7.89473685e-05,21.6355385 C7.89473685e-05,31.544 8.27139474,39.604 18.4406053,39.604 C28.6082368,39.604 36.8803421,31.544 36.8803421,21.6355385 C36.8803421,18.9870769 36.2740263,16.4809231 35.2137632,14.2147692 C33.8140263,15.3232308 32.4332368,16.7493846 31.1471842,18.3109231" id="Fill-1" fill="#333333" fill-rule="nonzero"></path>
                                <g id="Group-5" transform="translate(7.894737, 0.373308)">
                                    <g id="Fill-3-Clipped">
                                        <mask id="mask-2" fill="white">
                                            <use xlink:href="#path-1"></use>
                                        </mask>
                                        <g id="path-1"></g>
                                        <path d="M36.2587105,0.395923077 C33.1734474,1.03284615 30.3952895,2.56053846 27.8413421,4.25823077 C25.2984474,5.99361538 22.9537105,7.97361538 20.7400263,10.0636154 C18.5295,12.1605385 16.4381842,14.3674615 14.4416053,16.6520769 C13.4429211,17.7951538 12.4687105,18.9559231 11.5142368,20.1382308 L11.3279211,20.3728462 L6.35265789,12.4866923 L0.133973684,16.8943846 L8.82844737,26.819 L11.7345,30.1359231 L13.4902895,26.6366923 L13.4918684,26.6351538 L14.5410789,24.7874615 L15.6581842,22.9282308 C16.4184474,21.6928462 17.2039737,20.4713077 18.0147632,19.2636154 C19.6323947,16.8474615 21.3542368,14.4951538 23.1945,12.2413077 C25.0387105,9.99284615 27.0139737,7.84669231 29.1889737,5.91976923 C31.3742368,4.03207692 33.7687105,2.299 36.5247632,1.36438462 L36.2587105,0.395923077 Z" id="Fill-3" fill="#F4A500" fill-rule="nonzero" mask="url(#mask-2)"></path>
                                    </g>
                                </g>
                            </g>
                            <path d="M15,23 L24,23 C22.6666667,24.3333333 21.1666667,25 19.5,25 C17.8333333,25 16.3333333,24.3333333 15,23 Z" id="Path-2" fill="#FFFFFF" fill-rule="nonzero"></path>
                        </g>
                    </g>
                </g>
                <g id="circle_4_pic" transform="translate(510.000000, 0.000000)">
                    <g id="Group">
                        <circle id="Oval-4-Copy-3" fill="#F8F8F8" fill-rule="nonzero" cx="60" cy="60" r="60"></circle>
                        <g id="4" transform="translate(22.000000, 16.000000)">
                            <g id="Group-7">
                                <g id="Page-1" transform="translate(8.420290, 0.000000)">
                                    <g id="Fill-1-Clipped">
                                        <mask id="mask-4" fill="white">
                                            <use xlink:href="#path-3"></use>
                                        </mask>
                                        <g id="path-3"></g>
                                        <path d="M33.7720639,50.0040336 L33.7720639,56.6540997 L26.1350322,56.6540997 L26.1350322,50.5280313 C22.4541503,50.2326672 18.7721674,49.1431022 16.5050612,47.6389336 L15.7497262,47.1400966 L18.1390513,38.8720921 L19.521997,39.6837962 C22.3165164,41.3214255 25.6615715,42.2611207 28.6972255,42.2611207 C31.9883281,42.2611207 34.1178003,40.8072734 34.1178003,38.559225 C34.1178003,37.0211443 33.3855878,35.3320997 28.0817266,33.4100457 C22.3044046,31.3326522 16.3905498,28.2389876 16.3905498,21.0714875 C16.3905498,15.2998559 20.2398956,10.9219049 26.5115987,9.45164844 L26.5115987,3.10132215 L34.1486303,3.10132215 L34.1486303,8.97140844 C37.1116136,9.19347842 39.674908,9.87828535 42.1369038,11.1002172 L43.0640059,11.5640481 L40.6713777,19.6635857 L39.012063,18.9076727 C37.5212122,18.2163021 35.0261843,17.0600067 31.3342917,17.0600067 C28.3746116,17.0600067 26.6062908,18.2305233 26.6062908,20.1985228 C26.6062908,21.9094462 28.2645044,23.1193447 33.4318328,25.1726716 C41.1063009,28.0333267 44.3963024,31.8336771 44.3963024,37.8711363 C44.3963024,43.8954682 40.2617791,48.5665954 33.7720639,50.0040336 M30.0735648,0 C13.4650029,0 0,13.376708 0,29.8788049 C0,46.3798078 13.4650029,59.7565158 30.0735648,59.7565158 C46.6810257,59.7565158 60.1449275,46.3798078 60.1449275,29.8788049 C60.1449275,13.376708 46.6810257,0 30.0735648,0" id="Fill-1" fill="#F4A500" fill-rule="nonzero" mask="url(#mask-4)"></path>
                                    </g>
                                </g>
                                <path d="M3.58449441,58.8095399 L7.55551034,58.8095399 L7.55551034,54.7481281 L3.58449441,54.7481281 L3.58449441,58.8095399 Z M82.9864826,62.5633205 C82.8331744,60.6604392 81.4642321,59.1810832 79.4553946,57.5449291 C78.0506248,56.4021777 75.3285709,55.0642808 72.2774042,55.0642808 C69.6953273,55.0642808 65.9559401,56.0204084 62.7781275,60.5735185 C59.9210957,64.3042908 56.3383495,65.816029 53.4304927,66.3878308 C53.6896169,65.7197345 53.8604222,64.920405 53.8654214,63.7895839 C53.8912505,57.4588606 48.9603919,52.700379 42.1381765,52.6679968 L17.7921662,52.6927095 C15.5083737,52.6927095 13.2595756,53.3838142 11.3623865,54.6288252 L11.3623865,51.3906036 L8.17971015e-05,51.3906036 L8.17971015e-05,84.984597 L11.3623865,84.984597 L11.3623865,81.4140315 C11.7914828,81.6313332 12.3838858,82.0701975 12.3838858,82.0701975 C14.3402318,83.1728972 17.3714018,84.5269851 20.4633951,84.5269851 L42.8297299,84.5269851 C62.0965725,84.5269851 75.3985594,73.4872057 80.223602,68.0188719 C81.6650325,66.3844221 83.1581211,64.6920252 82.9864826,62.5633205 Z" id="Fill-5" fill="#3B3D3D" fill-rule="nonzero"></path>
                                <path d="M77.2749186,65.2979135 C72.8064842,70.3640261 60.5035003,80.4664256 42.8297299,80.4664256 L20.4633951,80.4664256 C16.6815148,80.4664256 12.6096821,77.4412448 12.5730214,77.4105669 C12.2247452,77.1481005 11.80898,77.0143108 11.3907152,77.0143108 C11.3823832,77.0143108 11.3715517,77.0160152 11.3623865,77.0160152 L11.3623865,59.1154666 C11.7981484,59.1239882 12.2305776,58.9961637 12.588019,58.7183584 L13.0237809,58.3809016 C14.3743929,57.3318882 16.0674488,56.7541213 17.783001,56.7541213 L42.1198462,56.7311128 C46.0033764,56.7490083 49.913569,59.0302502 49.8935723,63.7733928 C49.8935723,66.5105423 48.1063652,66.6502971 48.0130471,66.6741577 L30.1718041,66.6741577 C29.0736508,66.6741577 28.1862962,67.5859728 28.1862962,68.7065679 C28.1862962,69.8280152 29.0736508,70.7364216 30.1718041,70.7364216 L49.1053681,70.7364216 L50.1610285,70.7347173 C53.1330414,70.7347173 60.6193146,70.014639 65.9367766,63.0371235 C65.9559401,63.0124107 65.9734372,62.9894023 65.9901012,62.9638374 C67.7573116,60.4175726 69.871965,59.1256926 72.2774042,59.1256926 C74.4478818,59.1256926 76.3034111,60.1712973 76.9808001,60.7226471 C78.9713072,62.3426101 79.0271314,62.8743602 79.0279646,62.8973687 C79.033797,63.3038507 77.7556731,64.7516766 77.2749186,65.2979135 Z" id="Path" fill="#F0F0F0" fill-rule="nonzero"></path>
                            </g>
                        </g>
                    </g>
                </g>
            </g>
            <g id="circle_1_txt" transform="translate(177.000000, 133.000000)" fill-rule="nonzero">
                <g id="Group-2">
                    <path d="M6.012,60.312 C2.7,60.312 0.612,57.288 0.612,51.144 C0.612,45.048 2.7,42.12 6.012,42.12 C9.3,42.12 11.364,45.072 11.364,51.144 C11.364,57.288 9.3,60.312 6.012,60.312 Z M6.012,58.728 C8.076,58.728 9.468,56.376 9.468,51.144 C9.468,46.008 8.076,43.704 6.012,43.704 C3.924,43.704 2.508,46.008 2.508,51.144 C2.508,56.376 3.924,58.728 6.012,58.728 Z M27.612,48.744 L27.612,44.736 L21.804,44.736 L21.804,43.32 L27.612,43.32 L27.612,39.936 L29.196,39.936 L29.196,43.32 L34.908,43.32 L34.908,44.736 L29.196,44.736 L29.196,48.744 L34.476,48.744 L34.476,50.16 L22.524,50.16 L22.524,48.744 L27.612,48.744 Z M18.3,43.776 L17.292,44.808 C16.692,44.016 15.444,42.96 14.364,42.24 L15.348,41.328 C16.404,42 17.7,43.008 18.3,43.776 Z M19.236,51.144 L19.236,47.424 C17.46,48.288 15.612,49.128 14.124,49.824 L13.572,48.48 C15.036,47.904 17.1,46.896 19.236,45.936 L19.236,39.936 L20.748,39.936 L20.748,51.144 L19.236,51.144 Z M32.724,54.504 L33.9,55.368 C32.628,56.232 30.972,57.12 29.532,57.792 C31.188,58.992 33.252,59.832 35.532,60.336 C35.196,60.624 34.788,61.224 34.596,61.632 C29.916,60.48 26.388,57.864 24.444,53.976 L24.42,53.976 C23.388,54.936 22.02,55.824 20.508,56.592 L20.508,59.856 L26.46,58.584 C26.388,58.968 26.388,59.592 26.388,59.904 C19.596,61.416 18.78,61.608 18.3,61.92 C18.228,61.56 17.94,60.912 17.724,60.576 C18.18,60.432 18.948,60.096 18.948,59.136 L18.948,57.312 C17.484,57.96 15.972,58.44 14.508,58.8 C14.292,58.44 13.908,57.912 13.596,57.6 C16.668,56.976 20.172,55.632 22.428,53.976 L13.932,53.976 L13.932,52.656 L24.084,52.656 C23.844,52.104 23.532,51.48 23.22,50.976 L24.756,50.544 C25.164,51.192 25.596,52.008 25.908,52.656 L35.268,52.656 L35.268,53.976 L25.956,53.976 C26.628,55.104 27.468,56.136 28.5,57 C29.94,56.304 31.668,55.272 32.724,54.504 Z M42.396,40.104 L43.836,40.536 C43.332,42.144 42.66,43.752 41.94,45.312 L41.94,61.824 L40.404,61.824 L40.404,48.144 C39.66,49.416 38.844,50.544 38.028,51.552 C37.884,51.168 37.452,50.352 37.164,49.944 C39.276,47.544 41.196,43.848 42.396,40.104 Z M43.98,58.104 L43.98,46.608 L45.372,46.608 L45.372,58.104 L43.98,58.104 Z M49.716,43.968 C50.484,45.192 51.636,46.44 53.172,47.472 C54.636,46.536 55.884,45.36 56.724,43.944 L49.716,43.968 Z M57.828,42.528 L58.764,43.008 C57.828,45.216 56.316,46.896 54.42,48.24 C55.932,49.08 57.708,49.728 59.796,50.136 C59.484,50.424 59.076,51.024 58.884,51.432 C56.628,50.904 54.732,50.064 53.124,49.08 C51.06,50.28 48.66,51.048 46.26,51.576 C46.092,51.216 45.78,50.616 45.492,50.328 C47.724,49.92 49.956,49.224 51.924,48.216 C50.652,47.232 49.644,46.152 48.948,45.096 C48.252,46.032 47.484,46.896 46.716,47.616 C46.452,47.376 45.852,46.872 45.468,46.68 C47.412,45.048 49.164,42.528 50.196,39.936 L51.66,40.32 C51.324,41.088 50.94,41.88 50.556,42.6 L57.588,42.6 L57.828,42.528 Z M55.62,53.136 L56.844,53.664 C55.044,55.608 51.828,57.144 48.66,58.008 C48.444,57.672 48.132,57.24 47.796,56.928 C50.844,56.232 53.988,54.864 55.62,53.136 Z M53.34,50.736 L54.564,51.264 C53.1,52.776 50.652,54.048 48.372,54.816 C48.156,54.504 47.772,54.072 47.46,53.856 C49.62,53.184 52.044,52.032 53.34,50.736 Z M57.924,55.704 L59.316,56.304 C56.94,59.112 52.428,60.864 47.34,61.752 C47.148,61.344 46.812,60.816 46.5,60.456 C51.372,59.736 55.764,58.176 57.924,55.704 Z M70.404,50.64 L70.596,52.032 L67.5,53.04 L67.5,61.824 L66.012,61.824 L66.012,53.52 C64.572,53.952 63.18,54.408 61.98,54.768 L61.548,53.232 C62.772,52.896 64.332,52.464 66.012,51.96 L66.012,46.44 L63.732,46.44 C63.42,47.832 63.06,49.08 62.628,50.088 C62.388,49.896 61.74,49.512 61.404,49.344 C62.316,47.328 62.82,44.304 63.108,41.328 L64.524,41.568 C64.38,42.696 64.212,43.824 64.02,44.904 L66.012,44.904 L66.012,39.984 L67.5,39.984 L67.5,44.904 L70.068,44.904 L70.068,46.44 L67.5,46.44 L67.5,51.528 L70.404,50.64 Z M73.836,44.016 L83.268,44.016 C83.268,44.016 83.268,44.64 83.244,44.856 C82.668,55.776 82.164,59.496 81.156,60.648 C80.724,61.272 80.244,61.44 79.548,61.536 C78.9,61.584 77.868,61.584 76.812,61.512 C76.764,61.032 76.62,60.36 76.356,59.928 C77.484,60.024 78.468,60.048 78.924,60.048 C79.332,60.048 79.572,59.976 79.86,59.64 C80.628,58.776 81.18,55.2 81.684,45.504 L80.34,45.504 C79.116,51.84 76.452,58.296 72.468,61.44 C72.156,61.104 71.604,60.696 71.124,60.48 C75.108,57.6 77.7,51.6 78.948,45.504 L76.812,45.504 C75.732,49.656 73.5,54.168 70.86,56.472 C70.524,56.136 70.044,55.776 69.588,55.536 C72.156,53.52 74.316,49.416 75.444,45.504 L73.236,45.504 C72.444,47.28 71.508,48.864 70.452,50.112 C70.188,49.872 69.564,49.416 69.228,49.2 C71.22,47.04 72.66,43.584 73.476,39.936 L74.94,40.224 C74.628,41.544 74.268,42.816 73.836,44.016 Z M105.132,45.576 L106.572,46.272 C105.42,48.984 103.764,52.272 102.396,54.48 L101.1,53.76 C102.42,51.6 104.172,48.168 105.132,45.576 Z M91.62,53.688 L90.012,54.264 C89.436,52.2 87.972,48.624 86.7,45.96 L88.164,45.504 C89.46,48.12 90.972,51.6 91.62,53.688 Z M100.308,58.968 L107.1,58.968 L107.1,60.552 L86.148,60.552 L86.148,58.968 L92.916,58.968 L92.916,40.248 L94.524,40.248 L94.524,58.968 L98.7,58.968 L98.7,40.272 L100.308,40.272 L100.308,58.968 Z M113.22,47.664 L116.676,47.664 C116.988,47.04 117.132,46.392 117.18,45.72 L113.532,45.72 C113.436,46.392 113.316,47.04 113.22,47.664 Z M118.692,42.72 L118.692,44.544 L122.7,44.544 L122.7,42.72 L118.692,42.72 Z M127.98,42.72 L124.236,42.72 L124.236,44.544 L127.98,44.544 L127.98,42.72 Z M122.7,47.664 L122.7,45.72 L118.668,45.72 C118.62,46.392 118.524,47.04 118.308,47.664 L122.7,47.664 Z M113.172,58.584 L113.172,52.176 C112.524,52.416 111.756,52.632 110.916,52.848 C110.772,52.512 110.388,51.912 110.124,51.624 C113.124,50.88 114.9,49.944 115.908,48.84 L111.54,48.84 C111.78,47.664 112.092,45.936 112.26,44.544 L117.228,44.544 L117.228,42.72 L111.252,42.72 L111.252,41.544 L117.228,41.544 L117.228,39.96 L118.692,39.96 L118.692,41.544 L122.7,41.544 L122.7,39.96 L124.236,39.96 L124.236,41.544 L129.444,41.544 L129.444,45.72 L124.236,45.72 L124.236,47.664 L130.86,47.664 C130.86,47.664 130.836,48.024 130.812,48.24 C130.644,49.776 130.452,50.52 130.092,50.88 C129.804,51.144 129.468,51.264 128.964,51.288 C128.58,51.312 127.764,51.312 126.948,51.24 C126.924,50.928 126.78,50.448 126.612,50.136 C127.404,50.232 128.1,50.232 128.364,50.232 C128.604,50.232 128.772,50.208 128.916,50.064 C129.036,49.92 129.132,49.56 129.228,48.84 L124.236,48.84 L124.236,51.336 L122.7,51.336 L122.7,48.84 L117.78,48.84 C117.084,50.016 115.86,51.072 113.772,51.936 L128.196,51.936 L128.196,58.464 L126.588,58.464 L126.588,53.304 L114.708,53.304 L114.708,58.584 L113.172,58.584 Z M120.012,54.312 L121.62,54.312 C120.756,58.824 118.308,60.888 110.412,61.824 C110.316,61.464 110.028,60.84 109.764,60.504 C117.228,59.736 119.292,58.056 120.012,54.312 Z M121.116,58.488 L121.932,57.384 C124.932,58.176 128.964,59.544 131.1,60.552 L130.236,61.8 C128.196,60.816 124.164,59.352 121.116,58.488 Z" id="0装修物业费" fill="#999999"></path>
                    <path d="M12.288,11.68 L37.768,11.68 L37.768,14.508 L12.288,14.508 L12.288,11.68 Z M46.336,0.536 L48.772,1.264 C48.016,3.308 47.12,5.324 46.084,7.256 L46.084,26.184 L43.48,26.184 L43.48,11.456 C42.808,12.352 42.164,13.22 41.464,13.948 C41.24,13.332 40.484,11.932 40.036,11.316 C42.556,8.684 44.908,4.624 46.336,0.536 Z M51.18,15.264 L51.18,11.512 L53.812,11.512 L53.812,15.292 C53.812,18.54 53.196,23.16 48.996,26.436 C48.548,25.848 47.708,25.036 47.036,24.588 C50.872,21.9 51.18,17.784 51.18,15.264 Z M58.908,26.156 L58.908,11.456 L61.596,11.456 L61.596,26.156 L58.908,26.156 Z M55.464,0.424 L58.208,0.9 C58.068,1.32 57.872,1.74 57.676,2.188 C59.58,5.436 62.912,8.684 66.16,10.364 C65.572,10.84 64.76,11.792 64.34,12.436 C61.428,10.7 58.488,7.76 56.36,4.54 C54.456,7.648 51.712,10.588 47.82,12.828 C47.512,12.156 46.756,11.176 46.224,10.7 C51.18,8.012 54.12,4.008 55.464,0.424 Z M73.328,10.644 L88.784,10.644 C85.984,8.768 83.408,6.64 80.972,3.952 C78.844,6.5 76.156,8.768 73.328,10.644 Z M89.568,12.94 L82.372,12.94 L82.372,16.832 L89.456,16.832 L89.456,19.1 L82.372,19.1 L82.372,23.16 L92.928,23.16 L92.928,25.484 L69.24,25.484 L69.24,23.16 L79.628,23.16 L79.628,19.1 L72.852,19.1 L72.852,16.832 L79.628,16.832 L79.628,12.94 L72.572,12.94 L72.572,11.148 C71.592,11.736 70.556,12.324 69.548,12.8 C69.156,12.156 68.428,11.232 67.756,10.672 C72.796,8.488 77.864,4.596 80.636,0.228 L82.96,1.32 C82.792,1.572 82.624,1.796 82.456,2.048 C85.844,5.856 89.848,8.544 94.328,10.728 C93.684,11.26 92.928,12.184 92.564,12.94 C91.528,12.352 90.52,11.764 89.568,11.176 L89.568,12.94 Z M109.476,11.456 L103.064,11.456 L103.064,15.348 L109.476,15.348 L109.476,11.456 Z M106.48,23.188 L116.308,23.188 C118.688,23.188 119.052,22.628 119.36,19.856 C120.032,20.276 121.124,20.668 121.88,20.808 C121.404,24.56 120.424,25.624 116.448,25.624 L106.536,25.624 C101.86,25.624 100.488,24.784 100.488,21.312 L100.488,9.58 C99.732,10.392 98.92,11.148 98.136,11.82 C97.688,11.316 96.624,10.308 95.98,9.86 C99.032,7.676 101.776,4.12 103.372,0.396 L106.004,1.152 C105.556,2.188 105.052,3.224 104.464,4.204 L119.556,4.204 C119.556,4.204 119.528,5.016 119.528,5.352 C119.22,14.368 118.968,17.644 118.184,18.652 C117.652,19.408 117.12,19.632 116.308,19.744 C115.58,19.828 114.376,19.828 113.088,19.772 C113.06,19.044 112.78,17.98 112.416,17.308 C113.508,17.42 114.516,17.448 114.992,17.42 C115.356,17.448 115.636,17.364 115.888,17.028 C116.336,16.412 116.616,13.752 116.868,6.668 L102.84,6.668 C102.224,7.536 101.552,8.404 100.88,9.16 L112.024,9.16 L112.024,17.7 L103.064,17.7 L103.064,21.312 C103.064,22.852 103.54,23.188 106.48,23.188 Z" id="一价全包" fill="#F4A500"></path>
                </g>
            </g>
            <g id="circle_2_txt" transform="translate(0.000000, 133.000000)">
                <g id="Group-2">
                    <path d="M5.52,42.864 L7.056,42.864 L7.056,60 L5.088,60 L5.088,45.264 C4.008,46.368 2.664,47.136 1.056,47.616 L1.056,45.648 C1.824,45.432 2.64,45.096 3.456,44.616 C4.272,44.088 4.944,43.512 5.52,42.864 Z M15.144,42.864 L16.68,42.864 L16.68,60 L14.712,60 L14.712,45.264 C13.632,46.368 12.288,47.136 10.68,47.616 L10.68,45.648 C11.448,45.432 12.264,45.096 13.08,44.616 C13.896,44.088 14.568,43.512 15.144,42.864 Z M20.304,46.584 L22.464,46.584 L22.464,40.512 L24.144,40.512 L24.144,46.584 L26.28,46.584 L26.28,48.216 L24.144,48.216 L24.144,55.512 C24.816,55.176 25.464,54.816 26.112,54.432 L26.112,56.112 C24.384,57.12 22.512,57.984 20.496,58.656 L20.064,57.024 C20.88,56.808 21.696,56.544 22.464,56.256 L22.464,48.216 L20.304,48.216 L20.304,46.584 Z M29.256,50.544 L29.256,50.592 C29.16,55.392 28.056,59.256 25.944,62.136 L24.672,61.008 C26.52,58.512 27.48,55.056 27.576,50.592 L27.576,44.064 L34.536,44.064 C34.488,42.912 34.488,41.688 34.488,40.416 L36.072,40.416 C36.072,41.712 36.096,42.936 36.144,44.064 L41.544,44.064 L41.544,45.624 L36.192,45.624 C36.336,48.6 36.552,50.976 36.888,52.704 C36.96,53.184 37.056,53.616 37.152,54.048 C38.04,52.248 38.736,50.184 39.264,47.856 L40.68,48.456 C39.96,51.48 38.976,54.072 37.728,56.184 C37.968,57 38.256,57.672 38.544,58.224 C39.12,59.352 39.6,59.928 39.936,59.928 C40.272,59.904 40.56,58.728 40.824,56.424 L42.264,57.216 C41.784,60.432 41.112,62.04 40.248,62.04 C39.432,62.04 38.592,61.32 37.704,59.88 C37.32,59.28 36.984,58.584 36.672,57.768 C35.304,59.64 33.696,61.056 31.872,62.04 L30.84,60.72 C32.928,59.64 34.68,58.056 36.072,55.944 C35.808,55.128 35.592,54.24 35.4,53.28 C34.992,51.24 34.728,48.696 34.584,45.624 L29.256,45.624 L29.256,49.08 L33.408,49.08 C33.408,53.4 33.216,56.04 32.88,57 C32.544,57.912 31.92,58.392 31.032,58.44 L29.4,58.44 L28.968,57.024 L30.624,57.024 C31.152,56.976 31.464,56.568 31.608,55.824 C31.752,55.056 31.824,53.304 31.848,50.544 L29.256,50.544 Z M38.952,40.224 C39.6,41.16 40.152,42.144 40.632,43.2 L39.36,43.752 C38.832,42.6 38.28,41.592 37.68,40.728 L38.952,40.224 Z M52.464,42.864 L54.312,42.864 L54.312,54.504 L57.096,54.504 L57.096,56.112 L54.312,56.112 L54.312,60 L52.44,60 L52.44,56.112 L43.824,56.112 L43.824,54.24 L52.464,42.864 Z M52.368,45.432 L45.48,54.504 L52.44,54.504 L52.44,45.432 L52.368,45.432 Z M64.848,42.528 C66.888,42.528 68.424,43.416 69.48,45.24 C70.392,46.776 70.848,48.84 70.848,51.432 C70.848,54.024 70.392,56.088 69.48,57.624 C68.424,59.424 66.888,60.336 64.848,60.336 C62.784,60.336 61.248,59.424 60.216,57.624 C59.304,56.088 58.848,54.024 58.848,51.432 C58.848,48.84 59.304,46.776 60.216,45.24 C61.248,43.416 62.784,42.528 64.848,42.528 Z M64.848,44.208 C63.312,44.208 62.208,45.024 61.536,46.68 C61.056,47.832 60.816,49.416 60.816,51.432 C60.816,53.424 61.056,55.008 61.536,56.184 C62.208,57.816 63.312,58.656 64.848,58.656 C66.384,58.656 67.488,57.816 68.16,56.184 C68.64,55.008 68.904,53.424 68.904,51.432 C68.904,49.416 68.64,47.832 68.16,46.68 C67.488,45.024 66.384,44.208 64.848,44.208 Z M83.16,47.496 L84.936,47.496 L84.936,62.376 L83.16,62.376 L83.16,47.496 Z M83.28,40.416 L84.816,40.416 C86.832,43.728 90.288,46.632 95.184,49.152 L94.152,50.712 C89.64,48.36 86.256,45.48 84.048,42.024 C81.384,45.816 78.024,48.744 73.944,50.808 L72.912,49.248 C77.4,46.968 80.856,44.016 83.28,40.416 Z M103.584,53.568 L112.488,53.568 L112.488,59.472 L103.584,59.472 L103.584,53.568 Z M110.832,57.936 L110.832,55.128 L105.24,55.128 L105.24,57.936 L110.832,57.936 Z M110.376,48.888 C112.344,50.28 114,51.648 115.344,53.016 L114.048,54.288 C112.872,52.944 111.264,51.504 109.2,49.992 L110.376,48.888 Z M108.192,40.152 C108.48,40.824 108.768,41.544 109.032,42.36 L118.68,42.36 L118.68,44.04 L113.496,44.04 C113.064,45.12 112.584,46.08 112.104,46.944 L117.432,46.944 L117.432,59.904 C117.432,61.488 116.712,62.28 115.32,62.28 L112.872,62.28 L112.44,60.696 L114.768,60.768 C115.44,60.768 115.776,60.336 115.776,59.52 L115.776,48.48 L100.272,48.48 L100.272,62.232 L98.616,62.232 L98.616,46.944 L103.68,46.944 C103.32,45.912 102.888,44.952 102.408,44.04 L97.416,44.04 L97.416,42.36 L107.184,42.36 C106.896,41.664 106.608,41.04 106.296,40.464 L108.192,40.152 Z M105.48,46.944 L110.232,46.944 C110.736,45.984 111.192,45.024 111.6,44.04 L104.328,44.04 C104.736,44.904 105.12,45.888 105.48,46.944 Z M105.552,48.912 L106.776,49.992 C105.408,51.648 103.704,53.088 101.688,54.312 L100.584,52.872 C102.552,51.768 104.208,50.448 105.552,48.912 Z M125.808,46.032 L127.848,46.032 C127.56,45.384 127.224,44.784 126.84,44.232 L128.136,43.752 C128.544,44.4 128.928,45.168 129.264,46.032 L130.896,46.032 C131.136,45.216 131.304,44.352 131.424,43.464 L132.984,43.656 C132.864,44.496 132.696,45.288 132.504,46.032 L134.472,46.032 C134.952,45.288 135.288,44.52 135.504,43.728 L136.896,44.064 C136.704,44.736 136.416,45.408 136.032,46.032 L138.264,46.032 L138.264,47.376 L132.072,47.376 C131.88,47.952 131.664,48.48 131.424,48.96 L138.96,48.96 L138.96,50.304 L135.768,50.304 C136.632,51.6 138,52.8 139.92,53.856 L138.984,55.032 C137.544,54.096 136.416,53.112 135.552,52.056 L135.552,54.408 C135.552,55.368 134.928,55.872 133.704,55.92 C132.984,55.92 132.312,55.896 131.64,55.848 L131.304,54.648 C131.976,54.696 132.6,54.744 133.152,54.744 C133.752,54.744 134.064,54.504 134.064,54.048 L134.064,52.992 L129.768,52.992 L129.768,56.784 C129.768,57.216 130.008,57.432 130.536,57.432 L134.472,57.432 C135.288,57.432 135.816,57.312 136.032,57.072 C136.224,56.784 136.392,56.232 136.512,55.464 L137.904,55.896 C137.736,57.216 137.448,58.032 137.064,58.32 C136.68,58.584 135.936,58.728 134.856,58.728 L129.96,58.728 C128.808,58.728 128.256,58.224 128.256,57.216 L128.256,53.28 C127.344,54.096 126.312,54.792 125.208,55.392 L124.392,54.12 C126.288,53.208 127.8,51.936 128.952,50.304 L125.112,50.304 L125.112,48.96 L129.768,48.96 C130.032,48.456 130.272,47.928 130.464,47.376 L125.808,47.376 L125.808,46.032 Z M129.6,51.84 L135.384,51.84 C135,51.312 134.664,50.808 134.376,50.304 L130.68,50.304 C130.344,50.832 129.984,51.36 129.6,51.84 Z M123.864,61.464 L123.864,62.472 L122.232,62.472 L122.232,41.304 L141.864,41.304 L141.864,62.472 L140.232,62.472 L140.232,61.464 L123.864,61.464 Z M140.232,60 L140.232,42.744 L123.864,42.744 L123.864,60 L140.232,60 Z" id="11城40个商圈" fill="#9B9B9B"></path>
                    <path d="M39.84,8.516 L42.304,9.328 C39.84,13.696 35.528,17.7 30.46,20.052 C30.18,19.464 29.48,18.54 29.032,18.036 C31.72,16.86 34.24,15.18 36.228,13.22 C31.608,13.584 30.712,13.724 30.18,13.92 C30.068,13.332 29.676,12.1 29.48,11.54 C30.068,11.4 30.964,11.204 31.468,10.672 C31.944,10.168 33.288,7.984 34.24,6.472 L29.172,6.472 L29.172,4.092 L36.116,4.092 C35.864,3.168 35.388,2.02 34.912,1.096 L37.348,0.34 C38.048,1.516 38.72,3.056 38.916,4.092 L44.74,4.092 L44.74,6.472 L36.984,6.472 C36.088,7.928 34.94,9.776 33.988,11.204 L38.272,10.98 C38.86,10.196 39.42,9.328 39.84,8.516 Z M28.892,14.144 L27.352,15.964 C27.016,15.152 26.344,13.752 25.672,12.464 L25.672,26.212 L23.18,26.212 L23.18,14.2 C22.368,16.804 21.304,19.24 20.24,20.808 C19.96,20.08 19.4,18.932 18.924,18.232 C20.66,16.02 22.284,11.82 23.068,8.208 L19.624,8.208 L19.624,5.8 L23.18,5.8 L23.18,0.536 L25.672,0.536 L25.672,5.8 L28.64,5.8 L28.64,8.208 L25.672,8.208 L25.672,9.244 C26.4,10.28 28.416,13.388 28.892,14.144 Z M41.716,13.612 L44.376,14.564 C43.256,16.524 41.8,18.288 40.064,19.884 C41.884,21.312 43.928,23.048 45.02,24.224 L43.004,25.96 C41.996,24.756 40.064,22.964 38.272,21.452 C35.668,23.468 32.588,25.092 29.144,26.24 C28.836,25.624 28.108,24.616 27.632,24.056 C34.1,22.096 39.364,18.148 41.716,13.612 Z M55.464,3 L57.228,1.264 C59.804,2.972 63.22,5.492 64.872,7.256 L62.94,9.244 C61.4,7.508 58.068,4.792 55.464,3 Z M66.944,10.364 L69.352,9.412 C70.976,12.744 72.46,16.972 73.048,19.828 L70.444,20.92 C69.94,18.064 68.456,13.668 66.944,10.364 Z M49.64,10.224 L52.188,10.7 C51.768,14.144 50.956,18.876 49.892,21.928 L47.288,20.836 C48.38,17.952 49.276,13.696 49.64,10.224 Z M54.316,8.348 L57.004,8.348 L57.004,21.704 C57.004,23.02 57.312,23.244 58.796,23.244 L63.528,23.244 C65.124,23.244 65.376,22.32 65.572,17.7 C66.188,18.176 67.336,18.652 68.008,18.82 C67.7,24.084 66.944,25.68 63.696,25.68 L58.516,25.68 C55.24,25.68 54.316,24.784 54.316,21.704 L54.316,8.348 Z M91.024,18.064 L84.892,18.064 L84.892,20.836 L91.024,20.836 L91.024,18.064 Z M93.152,22.712 L84.892,22.712 L84.892,23.944 L82.708,23.944 L82.708,16.412 C82.232,16.776 81.784,17.112 81.336,17.364 C81.168,16.944 80.58,15.74 80.244,15.264 C81.896,14.312 83.856,12.996 85.116,11.708 L86.964,12.576 C85.872,13.78 84.388,15.096 82.988,16.188 L93.152,16.188 L93.152,22.712 Z M96.372,15.488 L94.804,17.224 C93.628,16.132 91.22,14.256 89.456,12.968 L90.94,11.428 C92.648,12.66 95.14,14.424 96.372,15.488 Z M100.292,3.364 L100.292,5.576 L84.08,5.576 C84.612,6.5 85.34,7.76 85.648,8.488 L83.492,9.328 L90.24,9.328 C90.884,8.208 91.612,6.696 92.032,5.632 L94.832,6.22 C94.188,7.284 93.488,8.376 92.816,9.328 L98.864,9.328 L98.864,23.552 C98.864,24.84 98.556,25.372 97.66,25.708 C96.764,26.044 95.308,26.072 92.984,26.072 C92.872,25.456 92.564,24.644 92.228,24.084 C93.824,24.14 95.42,24.14 95.812,24.112 C96.288,24.112 96.456,23.972 96.456,23.552 L96.456,11.428 L79.712,11.428 L79.712,26.156 L77.248,26.156 L77.248,9.328 L83.156,9.328 C82.82,8.488 82.12,7.144 81.616,6.22 L83.464,5.576 L75.792,5.576 L75.792,3.364 L87.132,3.364 C86.852,2.608 86.488,1.74 86.152,1.04 L88.728,0.368 C89.204,1.292 89.736,2.468 90.1,3.364 L100.292,3.364 Z M124.288,12.716 L120.788,12.716 C121.824,13.92 123.308,15.012 124.876,15.544 C124.428,15.936 123.756,16.72 123.448,17.224 C121.46,16.3 119.668,14.592 118.548,12.716 L113.9,12.716 C113.48,13.276 113.004,13.836 112.5,14.34 L119.696,14.34 L119.696,15.04 C119.584,17.056 119.472,18.036 119.08,18.428 C118.744,18.764 118.38,18.932 117.764,18.96 C117.316,18.988 116.42,19.016 115.58,18.932 C115.552,18.484 115.384,17.896 115.132,17.504 C115.944,17.588 116.672,17.588 116.952,17.588 C117.204,17.588 117.4,17.56 117.54,17.392 C117.652,17.224 117.736,16.804 117.792,15.908 L113.368,15.908 L113.368,19.576 C113.368,20.276 113.62,20.416 114.908,20.416 L119.388,20.416 C120.312,20.416 120.48,20.136 120.592,18.316 C121.068,18.652 121.824,18.904 122.384,19.016 C122.16,21.452 121.544,22.068 119.612,22.068 L114.712,22.068 C112.08,22.068 111.324,21.592 111.324,19.604 L111.324,15.404 C110.456,16.16 109.448,16.776 108.356,17.364 C108.076,16.916 107.404,16.02 106.984,15.6 C108.636,14.872 110.036,13.892 111.184,12.716 L107.768,12.716 L107.768,11.036 L112.528,11.036 C112.864,10.532 113.144,10.056 113.424,9.496 L108.944,9.496 L108.944,7.9 L111.128,7.9 C110.932,7.2 110.372,6.192 109.756,5.464 L111.38,4.82 C111.996,5.548 112.64,6.528 112.836,7.256 L111.212,7.9 L114.124,7.9 C114.544,6.808 114.852,5.632 115.104,4.344 L117.232,4.596 C117.036,5.8 116.728,6.892 116.364,7.9 L118.8,7.9 C119.304,6.976 119.864,5.716 120.144,4.792 L122.132,5.324 C121.656,6.22 121.208,7.144 120.732,7.9 L123.364,7.9 L123.364,9.496 L115.748,9.496 C115.524,10.028 115.272,10.532 114.992,11.036 L124.288,11.036 L124.288,12.716 Z M106.76,22.992 L125.24,22.992 L125.24,3.784 L106.76,3.784 L106.76,22.992 Z M104.324,1.572 L127.76,1.572 L127.76,26.184 L125.24,26.184 L125.24,25.148 L106.76,25.148 L106.76,26.184 L104.324,26.184 L104.324,1.572 Z" id="核心商圈" fill="#F4A500" fill-rule="nonzero"></path>
                </g>
            </g>
            <g id="circle_3_txt" transform="translate(359.000000, 133.000000)" fill-rule="nonzero">
                <g id="Group-2">
                    <path d="M6.96,60 L6.96,58.368 L10.896,58.368 L10.896,44.904 L7.8,44.904 L7.8,43.632 C9.312,43.368 10.44,42.984 11.352,42.432 L12.84,42.432 L12.84,58.368 L16.416,58.368 L16.416,60 L6.96,60 Z M29.16,40.032 L30.912,40.032 C30.888,40.872 30.864,42.072 30.744,43.488 C31.104,46.272 32.568,56.496 41.04,60.288 C40.608,60.648 40.128,61.176 39.888,61.632 C33.72,58.728 31.2,52.536 30.048,48.024 C28.992,52.92 26.472,58.56 20.424,61.704 C20.16,61.296 19.632,60.816 19.176,60.48 C29.16,55.488 29.088,43.632 29.16,40.032 Z M44.136,60 L44.136,58.368 L48.072,58.368 L48.072,44.904 L44.976,44.904 L44.976,43.632 C46.488,43.368 47.616,42.984 48.528,42.432 L50.016,42.432 L50.016,58.368 L53.592,58.368 L53.592,60 L44.136,60 Z M61.632,52.752 L73.08,52.752 L73.08,48.504 L61.896,48.504 C61.896,49.824 61.824,51.264 61.632,52.752 Z M73.08,42.792 L61.896,42.792 L61.896,46.992 L73.08,46.992 L73.08,42.792 Z M74.736,41.232 L74.736,59.352 C74.736,60.576 74.4,61.104 73.536,61.392 C72.648,61.68 71.088,61.704 68.52,61.704 C68.4,61.224 68.088,60.48 67.848,60.024 C69.864,60.096 71.784,60.072 72.36,60.048 C72.888,60.048 73.08,59.856 73.08,59.352 L73.08,54.312 L61.344,54.312 C60.744,57.048 59.544,59.76 57.192,61.848 C56.952,61.512 56.328,60.912 55.992,60.696 C59.88,57.24 60.288,52.368 60.288,48.48 L60.288,41.232 L74.736,41.232 Z M98.928,47.808 L98.928,42.6 L91.968,42.6 L91.968,41.136 L100.464,41.136 L100.464,49.224 L93.744,49.224 L93.744,54.672 C93.744,55.368 93.936,55.512 95.088,55.512 L99,55.512 C100.032,55.512 100.2,55.08 100.296,52.104 C100.656,52.392 101.28,52.656 101.736,52.752 C101.52,56.136 101.04,56.952 99.096,56.952 L94.944,56.952 C92.856,56.952 92.208,56.496 92.208,54.672 L92.208,47.808 L98.928,47.808 Z M86.976,53.928 L86.976,58.944 C88.392,59.472 90.192,59.664 92.496,59.664 C93.528,59.664 100.992,59.664 102.336,59.616 C102.096,60 101.784,60.72 101.688,61.176 L92.544,61.176 C87.312,61.176 84.48,60.36 82.776,56.952 C82.464,58.92 82.032,60.6 81.264,61.992 C81,61.776 80.304,61.392 79.944,61.2 C81.36,58.8 81.624,55.008 81.72,50.736 L83.232,50.832 C83.184,52.008 83.136,53.16 83.064,54.216 C83.64,56.04 84.384,57.288 85.488,58.128 L85.488,48.768 L80.424,48.768 L80.424,47.328 L85.104,47.328 L85.104,44.136 L81.048,44.136 L81.048,42.72 L85.104,42.72 L85.104,39.96 L86.616,39.96 L86.616,42.72 L90.576,42.72 L90.576,44.136 L86.616,44.136 L86.616,47.328 L91.176,47.328 L91.176,48.768 L86.976,48.768 L86.976,52.488 L90.96,52.488 L90.96,53.928 L86.976,53.928 Z" id="1人1月起" fill="#999999"></path>
                    <path d="M22.66,1.544 L22.66,11.904 L2.696,11.904 L2.696,9.58 L20.168,9.58 L20.168,7.648 L3.928,7.648 L3.928,5.772 L20.168,5.772 L20.168,3.868 L2.696,3.868 L2.696,1.544 L22.66,1.544 Z M20.196,20.136 L18.264,18.96 C19.188,17.616 20.42,15.376 21.036,13.752 L23.332,15.068 C22.324,16.804 21.148,18.792 20.196,20.136 Z M4.768,13.836 L7.036,14.676 C6.392,16.58 5.44,18.764 4.068,20.136 L1.856,18.82 C3.172,17.616 4.208,15.572 4.768,13.836 Z M11.768,12.492 L14.512,12.492 C14.4,13.752 14.232,14.9 14.008,16.02 C15.744,20.528 19.496,23.048 25.992,23.72 C25.46,24.308 24.76,25.372 24.48,26.128 C18.796,25.176 15.268,22.992 13.084,19.1 C11.516,22.6 8.408,25.036 1.492,26.408 C1.268,25.736 0.652,24.728 0.148,24.168 C10.032,22.432 11.208,18.568 11.768,12.492 Z M36.24,3.728 L34.7,5.828 C33.552,5.016 31.228,3.672 29.576,2.748 L31.032,0.9 C32.656,1.684 35.036,2.944 36.24,3.728 Z M34.812,11.232 L33.384,13.388 C32.236,12.604 29.912,11.26 28.232,10.392 L29.66,8.46 C31.256,9.244 33.636,10.476 34.812,11.232 Z M30.976,25.848 L28.792,24.112 C30.276,22.012 32.432,18.428 34.056,15.264 L35.932,17 C34.504,19.884 32.628,23.244 30.976,25.848 Z M49.652,22.656 L49.652,17.616 L40.384,17.616 L40.384,22.656 L49.652,22.656 Z M53.768,11.12 L46.348,11.12 L46.348,15.264 L52.116,15.264 L52.116,26.044 L49.652,26.044 L49.652,25.008 L40.384,25.008 L40.384,26.184 L38.004,26.184 L38.004,15.264 L43.884,15.264 L43.884,11.12 L36.1,11.12 L36.1,8.628 L43.884,8.628 L43.884,4.652 C41.924,4.96 39.908,5.184 38.06,5.324 C37.948,4.708 37.612,3.728 37.304,3.14 C42.092,2.636 47.524,1.74 50.604,0.592 L52.648,2.608 C50.856,3.28 48.672,3.812 46.348,4.232 L46.348,8.628 L53.768,8.628 L53.768,11.12 Z M66.928,15.88 L65.388,17.924 C64.94,17 63.96,15.348 63.092,14.004 L63.092,26.156 L60.6,26.156 L60.6,14.928 C59.592,17.42 58.36,19.8 57.128,21.368 C56.876,20.64 56.26,19.576 55.84,18.932 C57.492,17.028 59.228,13.724 60.264,10.756 L56.204,10.756 L56.204,8.32 L60.6,8.32 L60.6,4.568 C59.424,4.792 58.276,4.988 57.156,5.128 C57.1,4.54 56.736,3.644 56.456,3.084 C59.592,2.58 63.176,1.768 65.36,0.844 L66.872,2.944 C65.752,3.364 64.464,3.756 63.092,4.036 L63.092,8.32 L66.788,8.32 L66.788,10.756 L63.092,10.756 L63.092,11.204 C63.904,12.044 66.368,15.124 66.928,15.88 Z M70.82,18.12 L70.82,22.908 L76.644,22.908 L76.644,18.12 L70.82,18.12 Z M76.644,4.4 L70.82,4.4 L70.82,8.768 L76.644,8.768 L76.644,4.4 Z M76.644,15.768 L76.644,11.12 L70.82,11.12 L70.82,15.768 L76.644,15.768 Z M79.276,22.908 L81.796,22.908 L81.796,25.316 L65.556,25.316 L65.556,22.908 L68.272,22.908 L68.272,1.992 L79.276,1.992 L79.276,22.908 Z M98.512,15.432 L105.288,15.432 L105.288,11.288 L98.512,11.288 L98.512,15.432 Z M89.72,15.432 L95.908,15.432 L95.908,11.288 L89.832,11.288 L89.832,12.408 C89.832,13.36 89.804,14.396 89.72,15.432 Z M95.908,4.904 L89.832,4.904 L89.832,8.852 L95.908,8.852 L95.908,4.904 Z M105.288,8.852 L105.288,4.904 L98.512,4.904 L98.512,8.852 L105.288,8.852 Z M107.892,2.412 L107.892,22.936 C107.892,24.448 107.528,25.232 106.52,25.624 C105.484,26.044 103.86,26.1 101.284,26.072 C101.172,25.372 100.752,24.224 100.416,23.552 C102.208,23.636 104.056,23.608 104.588,23.608 C105.092,23.608 105.288,23.44 105.288,22.908 L105.288,17.896 L98.512,17.896 L98.512,25.904 L95.908,25.904 L95.908,17.896 L89.468,17.896 C89.02,20.976 88.012,24.112 85.968,26.38 C85.576,25.876 84.512,24.98 83.924,24.672 C86.976,21.284 87.256,16.328 87.256,12.38 L87.256,2.412 L107.892,2.412 Z" id="灵活租用" fill="#F4A500"></path>
                </g>
            </g>
            <g id="circle_3_txt" transform="translate(511.000000, 133.000000)" fill-rule="nonzero">
                <g id="Group-2">
                    <path d="M9.432,42.672 L10.464,43.032 C9.912,46.728 8.928,49.992 7.608,52.728 C8.76,54.456 9.72,56.112 10.368,57.384 L9.144,58.512 C8.592,57.36 7.776,55.896 6.792,54.312 C5.4,56.784 3.744,58.728 1.968,60.096 C1.704,59.664 1.224,59.112 0.816,58.824 C2.664,57.528 4.416,55.416 5.808,52.752 C4.464,50.688 2.952,48.504 1.56,46.68 L2.664,45.744 C3.936,47.376 5.304,49.296 6.576,51.168 C7.512,49.08 8.256,46.704 8.712,44.184 L1.344,44.184 L1.344,42.744 L9.168,42.744 L9.432,42.672 Z M22.92,45.288 L22.92,46.824 L19.992,46.824 L19.992,59.592 C19.992,60.672 19.68,61.152 19.008,61.44 C18.312,61.728 17.136,61.776 15.096,61.752 C15,61.32 14.784,60.624 14.544,60.144 C16.08,60.192 17.448,60.168 17.832,60.168 C18.24,60.144 18.408,60.024 18.408,59.616 L18.408,46.824 L11.448,46.824 L11.448,45.288 L18.408,45.288 L18.408,40.008 L19.992,40.008 L19.992,45.288 L22.92,45.288 Z M16.368,55.2 L14.952,55.896 C14.568,54.312 13.344,51.864 12.12,50.016 L13.44,49.44 C14.688,51.24 15.936,53.64 16.368,55.2 Z M46.104,42.528 L46.104,43.944 L33.24,43.944 L33.24,42.528 L38.808,42.528 C38.472,41.832 38.064,41.016 37.632,40.392 L39.096,40.128 C39.6,40.848 40.152,41.784 40.512,42.528 L46.104,42.528 Z M38.04,47.352 L36.792,47.952 C36.456,47.112 35.712,45.768 34.992,44.808 L36.192,44.304 C36.936,45.24 37.704,46.536 38.04,47.352 Z M46.728,48.12 L46.728,49.512 L32.376,49.512 L32.376,48.12 L40.416,48.12 C41.136,47.064 42.048,45.432 42.528,44.304 L44.04,44.712 C43.392,45.864 42.696,47.136 42,48.12 L46.728,48.12 Z M31.896,52.056 L29.472,52.896 L29.472,59.88 C29.472,60.768 29.256,61.2 28.728,61.464 C28.2,61.728 27.36,61.776 25.968,61.752 C25.896,61.368 25.704,60.696 25.488,60.264 C26.472,60.312 27.336,60.312 27.576,60.288 C27.864,60.288 27.984,60.192 27.984,59.88 L27.984,53.376 C27,53.712 26.04,54.048 25.2,54.288 L24.768,52.776 C25.656,52.512 26.784,52.176 27.984,51.768 L27.984,46.32 L25.08,46.32 L25.08,44.832 L27.984,44.832 L27.984,39.96 L29.472,39.96 L29.472,44.832 L31.968,44.832 L31.968,46.32 L29.472,46.32 L29.472,51.312 L31.656,50.592 L31.896,52.056 Z M42.432,53.616 L37.416,53.616 C36.912,54.456 36.384,55.272 35.904,55.968 C37.224,56.4 38.664,56.904 40.056,57.48 C41.184,56.472 41.952,55.224 42.432,53.616 Z M47.016,53.616 L44.064,53.616 C43.56,55.464 42.768,56.952 41.592,58.128 C43.44,58.92 45.144,59.808 46.344,60.648 L45.288,61.872 C44.088,61.032 42.288,60.048 40.32,59.16 C38.424,60.432 35.856,61.248 32.4,61.752 C32.28,61.32 31.992,60.744 31.728,60.384 C34.728,60.048 37.008,59.448 38.688,58.464 C37.032,57.768 35.28,57.144 33.672,56.664 C34.344,55.824 35.064,54.768 35.784,53.616 L32.088,53.616 L32.088,52.224 L36.6,52.224 C37.104,51.36 37.536,50.448 37.872,49.656 L39.36,49.968 C39.024,50.688 38.64,51.456 38.232,52.224 L47.016,52.224 L47.016,53.616 Z M60.912,42.336 L60.912,43.512 C60.912,45.624 60.264,48.168 57.36,49.872 C57.168,49.56 56.592,48.96 56.328,48.72 C58.944,47.208 59.4,45.216 59.4,43.464 L59.4,40.824 L66.816,40.824 L66.816,46.44 C66.816,47.112 66.864,47.328 67.272,47.328 L69.216,47.328 C69.576,47.328 70.08,47.28 70.392,47.232 C70.416,47.616 70.464,48.24 70.536,48.6 C70.248,48.696 69.744,48.72 69.264,48.72 L67.176,48.72 C65.64,48.72 65.28,48.096 65.28,46.392 L65.28,42.336 L60.912,42.336 Z M56.616,52.008 L54.096,52.776 L54.096,59.688 C54.096,60.672 53.856,61.08 53.28,61.32 C52.656,61.608 51.696,61.632 50.064,61.632 C49.992,61.224 49.776,60.576 49.584,60.144 C50.736,60.192 51.768,60.168 52.056,60.168 C52.392,60.168 52.536,60.048 52.536,59.712 L52.536,53.28 C51.408,53.616 50.328,53.928 49.392,54.216 L48.912,52.656 C49.92,52.416 51.168,52.056 52.536,51.672 L52.536,46.32 L49.2,46.32 L49.2,44.832 L52.536,44.832 L52.536,39.96 L54.096,39.96 L54.096,44.832 L57.144,44.832 L57.144,46.32 L54.096,46.32 L54.096,51.24 C54.864,51.024 55.632,50.784 56.424,50.544 L56.616,52.008 Z M66.984,52.032 L59.304,52.032 C60.168,53.88 61.464,55.512 63.072,56.832 C64.728,55.536 66.072,53.952 66.984,52.032 Z M68.136,50.448 L69.144,50.928 C68.16,53.784 66.456,56.064 64.392,57.768 C66.216,58.992 68.424,59.88 70.896,60.384 C70.512,60.744 70.08,61.392 69.84,61.848 C67.248,61.224 64.944,60.192 63.048,58.776 C60.912,60.24 58.44,61.224 55.92,61.872 C55.752,61.44 55.416,60.768 55.104,60.408 C57.456,59.904 59.76,59.016 61.776,57.744 C60.072,56.184 58.704,54.288 57.744,52.08 L57.864,52.032 L57.024,52.032 L57.024,50.52 L67.824,50.52 L68.136,50.448 Z M80.016,43.296 L79.176,44.568 C78.096,43.728 75.912,42.624 74.16,41.976 L74.952,40.872 C76.704,41.472 78.912,42.48 80.016,43.296 Z M80.184,46.104 L80.424,47.496 C78.096,48.264 75.648,49.08 73.728,49.704 L73.272,48.216 C75,47.736 77.592,46.92 80.184,46.104 Z M91.776,57.624 L90.144,57.624 L90.144,52.584 L78.072,52.584 L78.072,57.768 L76.512,57.768 L76.512,51.096 L91.776,51.096 L91.776,57.624 Z M83.496,53.304 L85.056,53.304 C84.24,58.152 82.032,60.744 74.016,61.872 C73.92,61.488 73.584,60.888 73.32,60.552 C80.928,59.616 82.776,57.432 83.496,53.304 Z M84.408,58.056 L85.296,56.88 C88.272,57.816 92.28,59.328 94.344,60.384 L93.432,61.728 C91.392,60.648 87.432,59.04 84.408,58.056 Z M91.968,43.464 L88.128,43.464 C88.008,43.944 87.864,44.352 87.672,44.808 C89.04,46.896 91.704,48.528 94.68,49.176 C94.344,49.464 93.936,50.04 93.72,50.448 C90.984,49.656 88.584,48.096 87.096,46.056 C85.92,48 84.024,49.608 80.688,50.568 C80.52,50.232 80.112,49.68 79.824,49.416 C84.12,48.288 85.776,46.032 86.544,43.464 L83.496,43.464 C82.824,44.424 82.008,45.36 81,46.176 C80.736,45.84 80.232,45.384 79.872,45.216 C81.816,43.728 83.112,41.688 83.712,40.008 L85.248,40.248 C84.984,40.872 84.696,41.544 84.312,42.192 L92.688,42.192 L92.976,42.12 L94.104,42.456 C93.48,43.728 92.736,45.168 92.136,46.08 L90.768,45.648 C91.104,45.096 91.56,44.28 91.968,43.464 Z M98.928,61.176 L97.632,60.408 C98.856,59.376 99.888,57.624 100.464,56.232 L101.784,56.832 C101.112,58.272 100.152,60.048 98.928,61.176 Z M113.952,51.12 L113.952,49.344 L102.144,49.344 L102.144,51.12 L113.952,51.12 Z M113.952,53.976 L113.952,52.2 L102.144,52.2 L102.144,53.976 L113.952,53.976 Z M115.512,48.216 L115.512,55.128 L107.064,55.128 C108.336,55.824 109.824,56.88 110.592,57.624 L109.584,58.608 C108.792,57.792 107.208,56.616 105.864,55.848 L106.656,55.128 L100.632,55.128 L100.632,48.216 L115.512,48.216 Z M106.272,60.264 L110.664,60.264 C111.696,60.264 111.864,59.976 111.96,57.768 C112.32,58.008 112.944,58.224 113.376,58.32 C113.184,60.984 112.68,61.608 110.808,61.608 L106.176,61.608 C103.848,61.608 103.224,61.2 103.224,59.592 L103.224,56.4 L104.784,56.4 L104.784,59.592 C104.784,60.144 105,60.264 106.272,60.264 Z M113.808,56.568 L115.08,56.016 C116.328,57.24 117.672,58.92 118.272,60.096 L116.928,60.792 C116.352,59.64 115.056,57.84 113.808,56.568 Z M112.008,43.128 L104.016,43.128 C104.472,43.896 104.952,44.904 105.12,45.6 L104.928,45.648 L110.784,45.648 C111.216,44.88 111.72,43.848 112.008,43.128 Z M112.44,45.648 L118.32,45.648 L118.32,46.944 L97.824,46.944 L97.824,45.648 L103.488,45.648 C103.296,44.976 102.96,44.136 102.552,43.464 L103.896,43.128 L98.904,43.128 L98.904,41.808 L107.664,41.808 C107.376,41.232 107.04,40.632 106.728,40.128 L108.24,39.768 C108.672,40.368 109.104,41.184 109.416,41.808 L117.096,41.808 L117.096,43.128 L112.344,43.128 L113.64,43.44 C113.232,44.208 112.824,44.976 112.44,45.648 Z M135.216,50.424 L128.808,50.424 L128.808,55.416 L135.216,55.416 L135.216,50.424 Z M136.704,56.88 L128.808,56.88 L128.808,58.632 L127.32,58.632 L127.32,48.984 L136.704,48.984 L136.704,56.88 Z M141.624,44.088 L141.624,59.568 C141.624,60.672 141.36,61.224 140.568,61.512 C139.752,61.776 138.288,61.776 136.104,61.776 C136.032,61.32 135.744,60.576 135.504,60.12 C137.28,60.192 138.936,60.168 139.44,60.144 C139.896,60.12 140.04,60 140.04,59.544 L140.04,45.648 L124.056,45.648 L124.056,61.752 L122.472,61.752 L122.472,44.088 L129.072,44.088 C129.672,42.816 130.296,41.136 130.608,39.912 L132.48,40.392 C131.952,41.592 131.376,42.96 130.824,44.088 L141.624,44.088 Z" id="对接投资意向" fill="#999999"></path>
                    <path d="M21.48,10.616 L31.28,10.616 C30.048,8.852 28.088,6.556 26.324,4.568 C24.98,6.808 23.328,8.852 21.48,10.616 Z M33.716,9.692 L31.84,11.428 C31.728,11.232 31.588,11.064 31.448,10.868 C31.448,11.092 31.448,11.372 31.42,11.568 C31.168,16.3 30.86,18.232 30.244,18.96 C29.768,19.464 29.264,19.66 28.536,19.772 C27.948,19.828 26.828,19.828 25.708,19.772 C25.652,19.128 25.4,18.204 25.036,17.56 C26.044,17.672 26.94,17.7 27.332,17.7 C27.724,17.7 27.948,17.644 28.116,17.42 C28.452,17.056 28.676,15.824 28.844,12.884 L23.496,12.884 L23.496,22.292 C23.496,23.384 23.748,23.552 25.092,23.552 L29.488,23.552 C30.692,23.552 30.916,22.964 31.056,19.8 C31.616,20.248 32.624,20.64 33.324,20.78 C33.016,24.672 32.316,25.792 29.684,25.792 L24.812,25.792 C21.872,25.792 21.004,25.092 21.004,22.292 L21.004,11.064 C20.556,11.428 20.136,11.792 19.66,12.156 C19.24,11.596 18.344,10.7 17.784,10.28 C21.228,7.872 24.168,4.092 25.652,0.508 L28.032,1.264 C27.864,1.684 27.668,2.048 27.472,2.44 C29.712,4.764 32.428,7.76 33.716,9.692 Z M37.132,3.728 L37.132,19.268 L34.64,19.268 L34.64,3.728 L37.132,3.728 Z M40.016,0.984 L42.592,0.984 L42.592,22.964 C42.592,24.56 42.2,25.288 41.192,25.68 C40.184,26.1 38.532,26.156 35.956,26.156 C35.816,25.456 35.424,24.336 35.06,23.636 C36.908,23.72 38.728,23.72 39.26,23.692 C39.792,23.664 40.016,23.496 40.016,22.964 L40.016,0.984 Z M60.596,3.896 L60.596,4.596 C60.596,7.2 59.812,10.252 56.228,12.128 C55.92,11.624 54.996,10.588 54.548,10.224 C57.712,8.628 58.16,6.472 58.16,4.512 L58.16,1.488 L67.372,1.488 L67.372,7.76 C67.372,8.544 67.428,8.852 67.876,8.852 L69.752,8.852 C70.172,8.852 70.816,8.796 71.208,8.684 C71.236,9.356 71.32,10.28 71.404,10.868 C71.012,11.008 70.396,11.036 69.78,11.036 L67.68,11.036 C65.412,11.036 64.908,10.112 64.908,7.732 L64.908,3.896 L60.596,3.896 Z M54.856,12.632 L55.192,15.012 C54.296,15.292 53.372,15.572 52.476,15.796 L52.476,23.132 C52.476,24.476 52.196,25.148 51.384,25.512 C50.572,25.932 49.34,25.988 47.408,25.988 C47.324,25.344 46.96,24.28 46.652,23.636 C47.884,23.664 49.06,23.664 49.396,23.664 C49.788,23.636 49.956,23.524 49.956,23.104 L49.956,16.524 L46.708,17.42 L46.008,14.928 C47.128,14.676 48.472,14.34 49.956,13.948 L49.956,8.404 L46.372,8.404 L46.372,5.996 L49.956,5.996 L49.956,0.536 L52.476,0.536 L52.476,5.996 L55.724,5.996 L55.724,8.404 L52.476,8.404 L52.476,13.276 L54.856,12.632 Z M66.588,15.096 L58.804,15.096 C59.756,16.916 61.072,18.512 62.724,19.828 C64.292,18.54 65.608,16.972 66.588,15.096 Z M68.352,12.576 L70.032,13.276 C68.968,16.692 67.148,19.296 64.88,21.34 C66.868,22.488 69.22,23.356 71.852,23.86 C71.292,24.42 70.592,25.54 70.2,26.268 C67.316,25.568 64.796,24.476 62.668,22.992 C60.316,24.504 57.628,25.54 54.772,26.268 C54.548,25.54 53.96,24.448 53.484,23.888 C56.032,23.384 58.468,22.544 60.568,21.312 C58.776,19.632 57.376,17.644 56.284,15.348 L56.984,15.096 L55.584,15.096 L55.584,12.66 L67.904,12.66 L68.352,12.576 Z M78.236,14.452 L81.876,14.452 L81.876,10.336 L78.292,10.336 L78.292,11.512 C78.292,12.408 78.292,13.416 78.236,14.452 Z M81.876,3.924 L78.292,3.924 L78.292,7.9 L81.876,7.9 L81.876,3.924 Z M84.284,1.516 L84.284,23.272 C84.284,24.532 84.06,25.316 83.276,25.736 C82.492,26.184 81.344,26.24 79.468,26.212 C79.412,25.568 79.104,24.364 78.768,23.72 C79.916,23.776 81.036,23.748 81.4,23.748 C81.736,23.72 81.876,23.608 81.876,23.216 L81.876,16.916 L78.096,16.916 C77.844,20.22 77.312,23.692 76.08,26.268 C75.632,25.876 74.568,25.288 73.952,25.064 C75.8,21.2 75.94,15.6 75.94,11.512 L75.94,1.516 L84.284,1.516 Z M88.82,13.472 L88.82,24.168 C90.276,23.412 91.62,22.264 92.796,20.864 C91.312,18.736 90.164,16.216 89.324,13.472 L88.82,13.472 Z M96.548,13.472 L91.536,13.472 C92.18,15.432 93.076,17.252 94.196,18.876 C95.176,17.28 95.988,15.488 96.548,13.472 Z M97.836,11.008 L99.348,11.54 C98.676,15.292 97.416,18.372 95.736,20.864 C97.024,22.264 98.508,23.44 100.188,24.224 C99.6,24.7 98.9,25.596 98.508,26.24 C96.912,25.372 95.484,24.196 94.252,22.796 C93.076,24.14 91.788,25.232 90.332,26.1 C89.996,25.512 89.352,24.672 88.82,24.224 L88.82,26.212 L86.356,26.212 L86.356,1.572 L98.536,1.572 L98.536,6.948 C98.536,8.152 98.284,8.824 97.304,9.16 C96.324,9.524 94.84,9.524 92.768,9.524 C92.656,8.852 92.264,7.928 91.956,7.312 C93.496,7.368 95.064,7.368 95.456,7.34 C95.904,7.34 96.044,7.256 96.044,6.92 L96.044,4.008 L88.82,4.008 L88.82,11.092 L97.416,11.092 L97.836,11.008 Z M115.336,15.964 L125.472,15.964 C125.472,15.964 125.388,16.692 125.332,17.028 C124.688,21.984 124.072,24.14 123.064,25.036 C122.364,25.652 121.664,25.82 120.516,25.876 C119.592,25.932 117.884,25.932 116.176,25.82 C116.148,25.148 115.784,24.196 115.336,23.552 C117.128,23.72 119.004,23.748 119.732,23.748 C120.348,23.748 120.684,23.72 120.992,23.468 C121.636,22.964 122.14,21.396 122.616,18.204 L114.58,18.204 C112.76,22.544 109.4,24.812 104.136,26.184 C103.884,25.596 103.128,24.504 102.652,24 C107.188,23.104 110.156,21.368 111.78,18.204 L104.528,18.204 L104.528,15.964 L112.648,15.964 C112.872,15.18 113.04,14.312 113.152,13.36 L115.868,13.584 C115.728,14.424 115.56,15.236 115.336,15.964 Z M110.548,5.492 L110.24,5.8 C111.388,7.144 113.068,8.236 115.14,9.104 C117.576,8.124 119.704,6.948 121.3,5.492 L110.548,5.492 Z M123.876,3.168 L125.472,4.232 C123.82,6.696 121.3,8.656 118.304,10.14 C121.104,10.868 124.38,11.288 127.88,11.484 C127.32,12.044 126.732,13.108 126.424,13.78 C122.168,13.444 118.332,12.744 115.14,11.484 C111.5,12.828 107.412,13.64 103.408,14.116 C103.212,13.472 102.792,12.436 102.4,11.848 C105.732,11.54 109.092,10.952 112.2,10.084 C110.8,9.272 109.596,8.32 108.532,7.2 C107.496,8.012 106.32,8.796 105.004,9.468 C104.696,8.88 103.968,7.9 103.436,7.508 C107.356,5.576 110.044,2.888 111.472,0.508 L114.132,1.04 C113.684,1.796 113.152,2.552 112.564,3.28 L123.428,3.28 L123.876,3.168 Z" id="创投服务" fill="#F4A500"></path>
                </g>
            </g>
        </g>
    </g>
</svg>