<?xml version="1.0" encoding="utf-8"?>
<!-- Generator: Adobe Illustrator 21.0.0, SVG Export Plug-In . SVG Version: 6.00 Build 0)  -->
<svg version="1.1" id="图层_1" xmlns="http://www.w3.org/2000/svg" xmlns:xlink="http://www.w3.org/1999/xlink" x="0px" y="0px"
	 viewBox="0 0 25 25" style="enable-background:new 0 0 25 25;" xml:space="preserve">
<style type="text/css">
	.st0{fill:#FFFFFF;}
</style>
<path class="st0" d="M4.8,10.3c-0.3,0-0.6-0.3-0.6-0.6V5.8c0-1.1,0.9-1.9,1.9-1.9H10c0.3,0,0.6,0.3,0.6,0.6C10.6,4.7,10.3,5,10,5
	H6.1C5.7,5,5.3,5.3,5.3,5.8v3.9C5.3,10,5.1,10.3,4.8,10.3z M21.5,10.3c-0.3,0-0.6-0.3-0.6-0.6V5.8c0-0.4-0.3-0.7-0.7-0.7h-3.9
	c-0.3,0-0.6-0.3-0.6-0.6c0-0.3,0.3-0.6,0.6-0.6h3.9c1.1,0,1.9,0.9,1.9,1.9v3.9C22.1,10,21.8,10.3,21.5,10.3z M10,21.9H6.1
	C5,21.9,4.2,21,4.2,20v-3.9c0-0.3,0.3-0.6,0.6-0.6s0.6,0.3,0.6,0.6V20c0,0.4,0.3,0.7,0.7,0.7H10c0.3,0,0.6,0.3,0.6,0.6
	C10.6,21.6,10.3,21.9,10,21.9z M20.2,21.9h-3.9c-0.3,0-0.6-0.3-0.6-0.6c0-0.3,0.3-0.6,0.6-0.6h3.9c0.4,0,0.7-0.3,0.7-0.7v-3.9
	c0-0.3,0.3-0.6,0.6-0.6s0.6,0.3,0.6,0.6V20C22.1,21,21.2,21.9,20.2,21.9z M21.5,13.5H4.8c-0.3,0-0.6-0.3-0.6-0.6
	c0-0.3,0.3-0.6,0.6-0.6h16.7c0.3,0,0.6,0.3,0.6,0.6C22.1,13.2,21.8,13.5,21.5,13.5z"/>
</svg>
