<?xml version="1.0" encoding="utf-8"?>
<!-- Generator: Adobe Illustrator 21.0.0, SVG Export Plug-In . SVG Version: 6.00 Build 0)  -->
<svg version="1.1" id="图层_1" xmlns="http://www.w3.org/2000/svg" xmlns:xlink="http://www.w3.org/1999/xlink" x="0px" y="0px"
	 viewBox="0 0 25 25" style="enable-background:new 0 0 25 25;" xml:space="preserve">
<style type="text/css">
	.st0{fill:#FFFFFF;}
</style>
<path class="st0" d="M18.4,1.2H6.6c-1.1,0-1.9,0.8-1.9,1.9v18.8c0,1.1,0.8,1.9,1.9,1.9h11.9c1.1,0,1.9-0.8,1.9-1.9V3.1
	C20.3,2.1,19.5,1.2,18.4,1.2z M6.6,2.5h11.9c0.4,0,0.6,0.2,0.6,0.6v14.1H5.9V3.1C5.9,2.8,6.2,2.5,6.6,2.5z M18.4,22.5H6.6
	c-0.4,0-0.6-0.2-0.6-0.6v-3.4h13.1v3.4C19.1,22.2,18.8,22.5,18.4,22.5z"/>
<path class="st0" d="M11.2,20.3c0,0.7,0.6,1.2,1.2,1.2s1.2-0.6,1.2-1.2c0-0.7-0.6-1.3-1.2-1.3C11.8,19.1,11.3,19.6,11.2,20.3
	C11.2,20.3,11.2,20.3,11.2,20.3z"/>
</svg>
