<?xml version="1.0" encoding="UTF-8"?>
<svg width="6px" height="86px" viewBox="0 0 6 86" version="1.1" xmlns="http://www.w3.org/2000/svg" xmlns:xlink="http://www.w3.org/1999/xlink">
    <!-- Generator: Sketch 45.2 (43514) - http://www.bohemiancoding.com/sketch -->
    <title>Shape</title>
    <desc>Created with Sketch.</desc>
    <defs>
        <linearGradient x1="50%" y1="100%" x2="50%" y2="2.23812181%" id="linearGradient-1">
            <stop stop-color="#F5F2EE" offset="0%"></stop>
            <stop stop-color="#D8D4CD" offset="100%"></stop>
        </linearGradient>
    </defs>
    <g id="02废除" stroke="none" stroke-width="1" fill="none" fill-rule="evenodd">
        <g id="02计算器" transform="translate(-957.000000, -1304.000000)" fill="url(#linearGradient-1)">
            <g id="方案1-2" transform="translate(660.000000, 984.000000)">
                <path d="M300,326 C298.343146,326 297,324.656854 297,323 C297,321.343146 298.343146,320 300,320 C301.656854,320 303,321.343146 303,323 C303,324.656854 301.656854,326 300,326 Z M300,336 C298.343146,336 297,334.656854 297,333 C297,331.343146 298.343146,330 300,330 C301.656854,330 303,331.343146 303,333 C303,334.656854 301.656854,336 300,336 Z M300,346 C298.343146,346 297,344.656854 297,343 C297,341.343146 298.343146,340 300,340 C301.656854,340 303,341.343146 303,343 C303,344.656854 301.656854,346 300,346 Z M300,356 C298.343146,356 297,354.656854 297,353 C297,351.343146 298.343146,350 300,350 C301.656854,350 303,351.343146 303,353 C303,354.656854 301.656854,356 300,356 Z M300,366 C298.343146,366 297,364.656854 297,363 C297,361.343146 298.343146,360 300,360 C301.656854,360 303,361.343146 303,363 C303,364.656854 301.656854,366 300,366 Z M300,376 C298.343146,376 297,374.656854 297,373 C297,371.343146 298.343146,370 300,370 C301.656854,370 303,371.343146 303,373 C303,374.656854 301.656854,376 300,376 Z M300,386 C298.343146,386 297,384.656854 297,383 C297,381.343146 298.343146,380 300,380 C301.656854,380 303,381.343146 303,383 C303,384.656854 301.656854,386 300,386 Z M300,396 C298.343146,396 297,394.656854 297,393 C297,391.343146 298.343146,390 300,390 C301.656854,390 303,391.343146 303,393 C303,394.656854 301.656854,396 300,396 Z M300,406 C298.343146,406 297,404.656854 297,403 C297,401.343146 298.343146,400 300,400 C301.656854,400 303,401.343146 303,403 C303,404.656854 301.656854,406 300,406 Z" id="Shape"></path>
            </g>
        </g>
    </g>
</svg>