<?xml version="1.0" encoding="UTF-8"?>
<svg width="75px" height="75px" viewBox="0 0 75 75" version="1.1" xmlns="http://www.w3.org/2000/svg" xmlns:xlink="http://www.w3.org/1999/xlink">
    <!-- Generator: Sketch 45.2 (43514) - http://www.bohemiancoding.com/sketch -->
    <title>人均icon</title>
    <desc>Created with Sketch.</desc>
    <defs>
        <polygon id="path-1" points="5.72519084e-05 0.000858778626 74.9991412 0.000858778626 74.9991412 75 5.72519084e-05 75"></polygon>
    </defs>
    <g id="02废除" stroke="none" stroke-width="1" fill="none" fill-rule="evenodd">
        <g id="02计算器" transform="translate(-923.000000, -1117.000000)">
            <g id="方案1-2" transform="translate(660.000000, 984.000000)">
                <g id="人均icon" transform="translate(263.000000, 133.000000)">
                    <g id="Group-3">
                        <mask id="mask-2" fill="white">
                            <use xlink:href="#path-1"></use>
                        </mask>
                        <g id="Clip-2"></g>
                        <path d="M74.9991985,37.5003721 C74.9991985,58.2109637 58.2100763,75.0000859 37.4994847,75.0000859 C16.7891794,75.0000859 5.72519084e-05,58.2109637 5.72519084e-05,37.5003721 C5.72519084e-05,16.7897805 16.7891794,0.000658396947 37.4994847,0.000658396947 C58.2100763,0.000658396947 74.9991985,16.7897805 74.9991985,37.5003721" id="Fill-1" fill="#F1743D" mask="url(#mask-2)"></path>
                        <g id="人" mask="url(#mask-2)" fill-rule="nonzero" fill="#F3BA9C">
                            <g transform="translate(12.000000, 12.000000)" id="Shape">
                                <path d="M25.457461,0.0178173719 C22.2360802,0.0178173719 19.613363,2.64053452 19.613363,5.86191537 C19.613363,9.08329621 22.2360802,11.7060134 25.457461,11.7060134 C28.6788419,11.7060134 31.301559,9.08329621 31.301559,5.86191537 C31.301559,2.64053452 28.6788419,0.0178173719 25.457461,0.0178173719 Z M39.1697105,5.57683742 C36.5755011,5.57683742 34.4944321,7.65790646 34.4944321,10.2521158 C34.4944321,12.8463252 36.5755011,14.9273942 39.1697105,14.9273942 C41.7639198,14.9273942 43.8449889,12.8178174 43.8449889,10.2521158 C43.8449889,7.65790646 41.7639198,5.57683742 39.1697105,5.57683742 Z M16.691314,30.0935412 L16.6518881,30.7769241 L16.6518881,30.7769241 C16.6496661,30.8154383 16.6496747,30.8540489 16.6519139,30.8925622 L17.5848111,46.938395 L17.5848111,46.938395 C17.6168666,47.4897487 17.1958922,47.9626952 16.6445385,47.9947507 C16.6252117,47.9958743 16.6058564,47.9964365 16.586497,47.9964365 L14.1210143,47.9964365 L14.1210143,47.9964365 C13.5884796,47.9964365 13.1493669,47.5790981 13.1223062,47.0472514 L12.4776938,34.3781383 L12.4776938,34.3781383 C12.4506331,33.8462917 12.0115204,33.4289532 11.4789857,33.4289532 L11.4587129,33.4289532 L11.4587129,33.4289532 C10.9306966,33.4289532 10.4936689,33.8394693 10.460668,34.3664533 L9.66583537,47.0589364 L9.66583537,47.0589364 C9.63283442,47.5859204 9.1958067,47.9964365 8.6677904,47.9964365 L6.45554885,47.9964365 L6.45554885,47.9964365 C5.90326411,47.9964365 5.45554885,47.5487213 5.45554885,46.9964365 C5.45554885,46.9836646 5.45579354,46.9708939 5.45628277,46.9581313 L6.0705592,30.9335287 L6.0705592,30.9335287 C6.07162617,30.9056947 6.07152973,30.8778283 6.07027012,30.8500023 L5.89154804,26.9018691 L5.89154804,26.9018691 C5.86657307,26.3501494 5.39906962,25.9231383 4.84734986,25.9481133 C4.53717006,25.9621544 4.2511098,26.1194816 4.0731397,26.3739129 L2.52810232,28.5827442 L2.52810232,28.5827442 C2.2115452,29.0353036 1.58805305,29.1455553 1.13549362,28.8289981 C1.11490943,28.8145999 1.09487507,28.7994311 1.07543319,28.7835241 L0.623170344,28.4134909 L0.623170344,28.4134909 C0.272506031,28.1265837 0.15855517,27.6397608 0.345453954,27.227026 L5.23597014,16.4271361 L5.23597014,16.4271361 C5.39794482,16.069442 5.75426561,15.8396437 6.14692432,15.8396437 L8.22978891,15.8396437 L8.22978891,15.8396437 C8.52468118,15.8396437 8.8045386,15.9698021 8.99454393,16.1953225 L10.9688395,18.5386453 L10.9688395,18.5386453 C11.3246883,18.9610078 11.9555532,19.0149279 12.3779157,18.6590791 C12.4252022,18.6192393 12.4686917,18.5750997 12.5078255,18.5272272 L14.3814273,16.2352483 L14.3814273,16.2352483 C14.5713518,16.0029136 14.8555738,15.8681514 15.1556583,15.8681514 L16.4783718,15.8681514 L16.4783718,15.8681514 C16.876075,15.8681514 17.2359762,15.6324834 17.3949762,15.267947 L18.0402131,13.7886232 L18.0402131,13.7886232 C18.1992131,13.4240868 18.5591143,13.1884187 18.9568175,13.1884187 L23.9553182,13.1884187 L23.9553182,13.1884187 C24.096098,13.1884187 24.2102225,13.3025433 24.2102225,13.4433231 C24.2102225,13.4890502 24.197922,13.5339353 24.1746102,13.5732739 L24.1746102,13.5732739 L24.1746102,13.5732739 C24.032261,13.8134883 24.0203293,14.1092054 24.1428628,14.3601073 L24.4111921,14.9095436 L24.4111921,14.9095436 C24.498547,15.088413 24.5305307,15.2892835 24.5030486,15.486438 L23.3019968,24.1026794 L23.3019968,24.1026794 C23.2590414,24.4108376 23.3619693,24.7214324 23.5804543,24.942952 L25.2263586,26.611716 L25.2263586,26.611716 C25.26484,26.6507319 25.2864143,26.703329 25.2864143,26.7581292 L25.2864143,26.7581292 L25.2864143,26.7581292 C25.2864143,26.8053624 25.3247044,26.8436526 25.3719376,26.8436526 L25.3719376,26.8436526 L25.3719376,26.8436526 C25.4191709,26.8436526 25.457461,26.8053624 25.457461,26.7581292 L25.457461,26.7581292 L25.457461,26.7581292 C25.457461,26.703329 25.4790353,26.6507319 25.5175167,26.611716 L27.163421,24.942952 L27.163421,24.942952 C27.381906,24.7214324 27.4848339,24.4108376 27.4418785,24.1026794 L26.2408267,15.486438 L26.2408267,15.486438 C26.2133445,15.2892835 26.2453283,15.088413 26.3326832,14.9095436 L26.6010125,14.3601073 L26.6010125,14.3601073 C26.723546,14.1092054 26.7116143,13.8134883 26.569265,13.5732739 L26.569265,13.5732739 L26.569265,13.5732739 C26.4974952,13.4521623 26.5374946,13.2958009 26.6586062,13.224031 C26.6979449,13.2007192 26.74283,13.1884187 26.7885571,13.1884187 L31.7608891,13.1884187 L31.7608891,13.1884187 C32.1996179,13.1884187 32.5871108,13.4743874 32.7164481,13.8936186 L33.1080508,15.1629515 L33.1080508,15.1629515 C33.2373881,15.5821827 33.624881,15.8681514 34.0636097,15.8681514 L35.7113034,15.8681514 L35.7113034,15.8681514 C36.0061957,15.8681514 36.2860531,15.9983099 36.4760584,16.2238303 L38.4510337,18.5679599 L38.4510337,18.5679599 C38.8068825,18.9903224 39.4377474,19.0442425 39.8601099,18.6883937 C39.9071765,18.6487392 39.9504818,18.6048244 39.9894745,18.5572082 L41.8914677,16.234582 L41.8914677,16.234582 C42.081401,16.0026441 42.3653704,15.8681514 42.6651535,15.8681514 L44.2535647,15.8681514 L44.2535647,15.8681514 C44.6468846,15.8681514 45.0036769,16.0987151 45.1652702,16.457307 L49.6668686,26.4468092 L49.6668686,26.4468092 C49.849069,26.8511302 49.7432126,27.3271542 49.4068339,27.6161557 L48.852699,28.0922434 L48.852699,28.0922434 C48.4337899,28.4521512 47.802434,28.4043212 47.4425262,27.9854122 C47.4049122,27.9416319 47.3711592,27.8946772 47.3416454,27.8450742 L46.2448653,26.0017463 L46.2448653,26.0017463 C45.962464,25.5271223 45.3487738,25.371295 44.8741498,25.6536963 C44.5869761,25.8245646 44.4041278,26.1275824 44.3868241,26.4612968 L44.1614224,30.8083303 L44.1614224,30.8083303 C44.1595253,30.8449169 44.1596402,30.8815801 44.1617666,30.9181541 L45.0948334,46.9669028 L45.0948334,46.9669028 C45.1268888,47.5182565 44.7059144,47.991203 44.1545607,48.0232585 C44.135234,48.0243821 44.1158786,48.0249443 44.0965192,48.0249443 L41.6310366,48.0249443 L41.6310366,48.0249443 C41.0985019,48.0249443 40.6593892,47.6076059 40.6323285,47.0757592 L39.9872254,34.3970029 L39.9872254,34.3970029 C39.9604396,33.8705595 39.5257881,33.457461 38.9986637,33.457461 L38.997243,33.457461 L38.997243,33.457461 C38.4692267,33.457461 38.032199,33.8679771 37.999198,34.3949611 L37.2043654,47.0874442 L37.2043654,47.0874442 C37.1713645,47.6144282 36.7343368,48.0249443 36.2063205,48.0249443 L33.9940789,48.0249443 L33.9940789,48.0249443 C33.4417942,48.0249443 32.9940789,47.5772291 32.9940789,47.0249443 C32.9940789,47.0121724 32.9943236,46.9994017 32.9948128,46.9866391 L33.6090654,30.9626579 L33.6090654,30.9626579 C33.6101483,30.9344102 33.6100328,30.9061292 33.6087194,30.8778913 L33.5821826,30.3073497 L33.5821826,30.3073497 C33.574373,30.1394425 33.4319264,30.0096579 33.2640193,30.0174675 C33.1975752,30.0205579 33.1339729,30.0453304 33.0829426,30.0879951 L32.1910292,30.8336932 L32.1910292,30.8336932 C31.953653,31.0321552 31.8215149,31.3293218 31.8331581,31.6385128 L32.5453359,50.5507885 L32.5453359,50.5507885 C32.5661185,51.1026821 32.1355679,51.5669278 31.5836744,51.5877104 C31.5711365,51.5881826 31.5585909,51.5884187 31.5460441,51.5884187 L28.5052431,51.5884187 L28.5052431,51.5884187 C27.9776905,51.5884187 27.5408792,51.1786 27.507274,50.6521189 L26.5149977,35.1064557 L26.5149977,35.1064557 C26.4813925,34.5799746 26.0445812,34.1701559 25.5170286,34.1701559 L25.12516,34.1701559 L25.12516,34.1701559 C24.5925698,34.1701559 24.1534317,34.5875785 24.1264446,35.1194846 L23.3390342,50.63909 L23.3390342,50.63909 C23.3120472,51.1709961 22.872909,51.5884187 22.3403188,51.5884187 L19.047235,51.5884187 L19.047235,51.5884187 C18.4949503,51.5884187 18.047235,51.1407035 18.047235,50.5884187 C18.047235,50.5693772 18.0477789,50.5503397 18.0488659,50.5313293 L19.1264166,31.687333 L19.1264166,31.687333 C19.1456523,31.3509443 18.9941939,31.0274849 18.7235011,30.8268538 L17.3305405,29.7944242 L17.3305405,29.7944242 C17.1525848,29.6625276 16.9013998,29.6998659 16.7695032,29.8778216 C16.7229886,29.9405794 16.6958133,30.0155547 16.691314,30.0935412 Z M11.6311804,5.57683742 C9.03697105,5.57683742 6.955902,7.65790646 6.955902,10.2521158 C6.955902,12.8463252 9.06547884,14.9273942 11.6311804,14.9273942 C14.2253898,14.9273942 16.3064588,12.8178174 16.3064588,10.2521158 C16.3349666,7.65790646 14.2253898,5.57683742 11.6311804,5.57683742 Z"></path>
                            </g>
                        </g>
                        <g id="1人" mask="url(#mask-2)" fill="#FFFFFF">
                            <g transform="translate(24.000000, 12.000000)" id="Path">
                                <path d="M13.457461,0.0178173719 C10.2360802,0.0178173719 7.61336303,2.64053452 7.61336303,5.86191537 C7.61336303,9.08329621 10.2360802,11.7060134 13.457461,11.7060134 C16.6788419,11.7060134 19.301559,9.08329621 19.301559,5.86191537 C19.301559,2.64053452 16.6788419,0.0178173719 13.457461,0.0178173719 Z"></path>
                                <path d="M0.882923979,27.3513184 L4.6198546,16.2689449 L4.6198546,16.2689449 C4.638948,16.2123209 4.66307843,16.1575222 4.69195626,16.1052067 L6.01676629,13.7051605 L6.01676629,13.7051605 C6.19274155,13.3863611 6.52810079,13.1884187 6.89224418,13.1884187 L11.9553182,13.1884187 L11.9553182,13.1884187 C12.096098,13.1884187 12.2102225,13.3025433 12.2102225,13.4433231 C12.2102225,13.4890502 12.197922,13.5339353 12.1746102,13.5732739 L12.1746102,13.5732739 L12.1746102,13.5732739 C12.032261,13.8134883 12.0203293,14.1092054 12.1428628,14.3601073 L12.4111921,14.9095436 L12.4111921,14.9095436 C12.498547,15.088413 12.5305307,15.2892835 12.5030486,15.486438 L11.3019968,24.1026794 L11.3019968,24.1026794 C11.2590414,24.4108376 11.3619693,24.7214324 11.5804543,24.942952 L13.2263586,26.611716 L13.2263586,26.611716 C13.26484,26.6507319 13.2864143,26.703329 13.2864143,26.7581292 L13.2864143,26.7581292 L13.2864143,26.7581292 C13.2864143,26.8053624 13.3247044,26.8436526 13.3719376,26.8436526 L13.3719376,26.8436526 L13.3719376,26.8436526 C13.4191709,26.8436526 13.457461,26.8053624 13.457461,26.7581292 L13.457461,26.7581292 L13.457461,26.7581292 C13.457461,26.703329 13.4790353,26.6507319 13.5175167,26.611716 L15.163421,24.942952 L15.163421,24.942952 C15.381906,24.7214324 15.4848339,24.4108376 15.4418785,24.1026794 L14.2408267,15.486438 L14.2408267,15.486438 C14.2133445,15.2892835 14.2453283,15.088413 14.3326832,14.9095436 L14.6010125,14.3601073 L14.6010125,14.3601073 C14.723546,14.1092054 14.7116143,13.8134883 14.569265,13.5732739 L14.569265,13.5732739 L14.569265,13.5732739 C14.4974952,13.4521623 14.5374946,13.2958009 14.6586062,13.224031 C14.6979449,13.2007192 14.74283,13.1884187 14.7885571,13.1884187 L19.7608891,13.1884187 L19.7608891,13.1884187 C20.1996179,13.1884187 20.5871108,13.4743874 20.7164481,13.8936186 L21.3195708,15.8485679 L21.3195708,15.8485679 C21.3235981,15.8616222 21.3278926,15.8745926 21.3324515,15.887471 L25.3896659,27.3486991 L25.3896659,27.3486991 C25.5739651,27.8693259 25.3013177,28.4407813 24.7806908,28.6250804 C24.7619425,28.6317173 24.7430003,28.6377933 24.7238896,28.6433004 L22.6788297,29.2326249 L22.6788297,29.2326249 C22.1619088,29.3815859 21.6197713,29.0949082 21.4518773,28.5838229 L19.8146993,23.6000977 L19.8146993,31.1295078 L19.8146993,31.1295078 C19.8146993,31.1420546 19.8149355,31.1546002 19.8154076,31.1671381 L20.5453359,50.5507885 L20.5453359,50.5507885 C20.5661185,51.1026821 20.1355679,51.5669278 19.5836744,51.5877104 C19.5711365,51.5881826 19.5585909,51.5884187 19.5460441,51.5884187 L16.5052431,51.5884187 L16.5052431,51.5884187 C15.9776905,51.5884187 15.5408792,51.1786 15.507274,50.6521189 L14.5149977,35.1064557 L14.5149977,35.1064557 C14.4813925,34.5799746 14.0445812,34.1701559 13.5170286,34.1701559 L13.12516,34.1701559 L13.12516,34.1701559 C12.5925698,34.1701559 12.1534317,34.5875785 12.1264446,35.1194846 L11.3390342,50.63909 L11.3390342,50.63909 C11.3120472,51.1709961 10.872909,51.5884187 10.3403188,51.5884187 L7.04723501,51.5884187 L7.04723501,51.5884187 C6.49495026,51.5884187 6.04723501,51.1407035 6.04723501,50.5884187 C6.04723501,50.5693772 6.04777888,50.5503397 6.04886594,50.5313293 L7.15716241,31.1496569 L7.15716241,31.1496569 C7.15721306,31.1487712 7.15726253,31.1478854 7.15731081,31.1469996 C7.42551805,26.2269389 7.42549388,23.711305 7.15723831,23.6000977 C6.90927366,23.4973021 6.17611769,25.1694488 4.9577704,28.6165378 L4.95777036,28.6165378 C4.78230741,29.1129778 4.25194894,29.3883139 3.74496335,29.2461676 L1.56053841,28.6337085 L1.56053841,28.6337085 C1.02875994,28.4846108 0.718535816,27.9326517 0.867633438,27.4008732 C0.872301036,27.3842256 0.877399597,27.3677017 0.882923979,27.3513184 Z"></path>
                            </g>
                        </g>
                    </g>
                </g>
            </g>
        </g>
    </g>
</svg>