<?xml version="1.0" encoding="UTF-8"?>
<svg width="105px" height="51px" viewBox="0 0 105 51" version="1.1" xmlns="http://www.w3.org/2000/svg" xmlns:xlink="http://www.w3.org/1999/xlink">
    <!-- Generator: Sketch 52.3 (67297) - http://www.bohemiancoding.com/sketch -->
    <title>中文LOGO</title>
    <desc>Created with Sketch.</desc>
    <g id="01首页" stroke="none" stroke-width="1" fill="none" fill-rule="evenodd">
        <g id="中文LOGO" transform="translate(0.381106, 0.500000)">
            <path d="M6.26903905,49.8961313 C2.8124081,49.8961313 4.77237465e-05,47.083771 4.77237465e-05,43.62714 L4.77237465e-05,6.26899133 C4.77237465e-05,2.81236038 2.8124081,6.39488462e-14 6.26903905,6.39488462e-14 L97.9430152,6.39488462e-14 C101.399646,6.39488462e-14 104.212007,2.81236038 104.212007,6.26899133 L104.212007,43.62714 C104.212007,47.083771 101.399646,49.8961313 97.9430152,49.8961313 L6.26903905,49.8961313 Z" id="Fill-1" fill="#FFEE2E"></path>
            <path d="M6.27300012,3.57565398 C4.78020134,3.57565398 3.56563199,4.79022332 3.56563199,6.28349935 L3.56563199,43.6196951 C3.56563199,45.1129711 4.78020134,46.3275405 6.27300012,46.3275405 L97.9216827,46.3275405 C99.4144815,46.3275405 100.629528,45.1129711 100.629528,43.6196951 L100.629528,6.28349935 C100.629528,4.79022332 99.4144815,3.57565398 97.9216827,3.57565398 L6.27300012,3.57565398 Z M6.27300012,47.3583734 C4.21181152,47.3583734 2.53479907,45.681361 2.53479907,43.6196951 L2.53479907,6.28349935 C2.53479907,4.2218335 4.21181152,2.54434382 6.27300012,2.54434382 L97.9216827,2.54434382 C99.9833486,2.54434382 101.660838,4.2218335 101.660838,6.28349935 L101.660838,43.6196951 C101.660838,45.681361 99.9833486,47.3583734 97.9216827,47.3583734 L6.27300012,47.3583734 Z" id="Fill-3" fill="#000000"></path>
            <path d="M25.9583774,28.6224601 L10.3632115,28.6224601 C10.0114875,28.6224601 9.72657676,28.9073708 9.72657676,29.2586176 L9.72657676,40.1477448 L17.3404233,40.1477448 L17.3404233,33.3905396 C17.3404233,33.0388156 17.625334,32.7539048 17.9765808,32.7539048 L25.9583774,32.7539048 C26.3101014,32.7539048 26.5945349,32.468994 26.5945349,32.1177473 L26.5945349,29.2586176 C26.5945349,28.9073708 26.3101014,28.6224601 25.9583774,28.6224601" id="Fill-5" fill="#000000"></path>
            <path d="M32.0252109,40.1379137 C34.1317371,40.1360048 35.8388155,38.4279719 35.8388155,36.3209685 L35.8388155,21.6077375 C35.8388155,18.5567584 32.1335438,17.3579379 30.2918845,19.5360497 L27.1655018,23.2332083 L22.1483044,23.2332083 C21.114608,23.2332083 20.276579,24.07076 20.276579,25.1044564 L20.276579,26.9986119 L27.1645474,26.9986119 C27.7501177,26.9986119 28.224969,27.4734632 28.224969,28.0590335 L28.224969,33.3172359 C28.224969,33.9032835 27.7501177,34.3781348 27.1645474,34.3781348 L23.1695925,34.3781348 C21.5718015,34.3781348 20.276579,35.6733573 20.276579,37.2706711 L20.276579,40.1479357 L32.0252109,40.1379137 Z" id="Fill-7" fill="#000000"></path>
            <path d="M28.1331962,13.6430737 C28.1331962,11.4888238 29.8794081,9.74261194 32.033658,9.74261194 C34.1879079,9.74261194 35.9341198,11.4888238 35.9341198,13.6430737 C35.9341198,15.7973236 34.1879079,17.5435355 32.033658,17.5435355 C29.8794081,17.5435355 28.1331962,15.7973236 28.1331962,13.6430737" id="Fill-9" fill="#000000"></path>
            <path d="M16.7997132,24.9087413 L12.6277033,17.6910019 C12.3733357,17.250989 11.8097183,17.0997047 11.3692281,17.3540723 L11.2360789,17.4309075 C10.7955887,17.6852751 10.6447816,18.2484153 10.8991492,18.6893827 L15.3956806,26.4683533 C15.5851439,26.7966927 15.9349589,26.9985642 16.3138855,26.9985642 L25.3537175,26.9985642 L25.3537175,24.9087413 L16.7997132,24.9087413 Z" id="Fill-11" fill="#000000"></path>
            <path d="M50.843925,20.5498452 L54.8803994,20.5498452 L54.8803994,19.6803185 L50.843925,19.6803185 L50.843925,20.5498452 Z M58.6219411,23.0648866 C58.2649675,22.3509394 58.0941165,20.9225677 58.0941165,18.748751 L58.0941165,15.9077564 L48.6705855,15.9077564 L48.6705855,14.572446 L59.6155495,14.572446 L59.6155495,18.748751 C59.6155495,20.2549125 59.64657,21.2175004 59.7243597,21.6517865 C59.7864006,22.0712782 59.8952107,22.2884213 60.0503129,22.2884213 C60.1281026,22.2884213 60.2211639,22.0712782 60.3142252,21.6365149 C60.3609945,21.2637925 60.4077637,20.8605268 60.4698046,20.4100146 L61.7425969,21.0309006 C61.5564743,22.2731497 61.3235824,23.0959071 61.0749417,23.5149216 C60.8267782,23.9186645 60.5318455,24.1205359 60.2211639,24.1205359 C59.4914678,24.1047871 58.9636432,23.7478135 58.6219411,23.0648866 Z M53.5765867,16.2026891 L53.5765867,16.7305138 L57.3954409,16.7305138 L57.3954409,17.910722 L53.5765867,17.910722 L53.5765867,18.5473568 L56.2467303,18.5473568 L56.2467303,21.6832842 L54.8183586,21.6832842 L54.8183586,22.5838313 C54.8183586,22.7699539 54.9271687,22.878764 55.1443117,22.878764 L56.2620019,22.878764 C56.4175813,22.878764 56.5263914,22.8167232 56.6037039,22.7231846 C56.6972425,22.6301233 56.7592833,22.3041701 56.7898265,21.7453251 L58.0941165,22.1643395 C58.0010552,23.0959071 57.8302042,23.6547521 57.5820407,23.8256032 C57.3491488,23.9807053 56.9921752,24.0742439 56.5106426,24.0742439 L54.7563177,24.0742439 C53.8715194,24.0742439 53.4367561,23.670501 53.4367561,22.8940356 L53.4367561,21.6832842 L52.3033171,21.6832842 C52.1634865,22.4592723 51.9153231,22.9870969 51.5583494,23.2667581 C51.1231089,23.6857726 50.052188,23.9654337 48.3441551,24.0895155 L47.78531,22.8319948 C49.0896,22.7852255 49.9586495,22.6458721 50.3781412,22.3972314 C50.6263047,22.2263804 50.7971557,21.9934885 50.9059658,21.6832842 L49.4775941,21.6832842 L49.4775941,18.5473568 L52.1014457,18.5473568 L52.1014457,17.910722 L48.2978631,17.910722 L48.2978631,16.7305138 L52.1014457,16.7305138 L52.1014457,16.2026891 L53.5765867,16.2026891 Z M48.1890529,14.8053378 L47.226465,13.5320683 C48.747898,12.5074395 49.7725268,11.2656676 50.3003515,9.77525498 L51.8843026,9.97664919 C51.7907641,10.2252899 51.7134516,10.4581818 51.6199131,10.6910737 L60.7489885,10.6910737 L60.7489885,12.0574045 L50.8906942,12.0574045 C50.7351148,12.2745476 50.5800126,12.4921679 50.4249105,12.6940393 L60.0350413,12.6940393 L60.0350413,13.9358112 L50.269331,13.9358112 L50.269331,12.8801619 C49.6794655,13.5788376 48.9965387,14.2154723 48.1890529,14.8053378 Z" id="Fill-13" fill="#000000"></path>
            <path d="M77.2198851,16.0474438 L76.3040664,17.4290463 C74.9067151,16.2803357 73.4625946,15.3640397 71.9879308,14.7121334 L72.8259598,13.4393411 C74.4409314,14.1532883 75.9003235,15.022815 77.2198851,16.0474438 Z M70.3419388,14.6811129 C69.1001669,15.7682599 67.5940055,16.6683297 65.824409,17.382277 L65.1257333,15.9076132 C66.833289,15.2867273 68.2463891,14.4949903 69.3330588,13.5319251 L70.3419388,14.6811129 Z M76.6452912,17.6619381 L76.6452912,19.1833712 L72.0652433,19.1833712 L72.0652433,22.2419861 L77.9495812,22.2419861 L77.9495812,23.7944396 L64.566411,23.7944396 L64.566411,22.2419861 L70.4197285,22.2419861 L70.4197285,19.1833712 L65.870701,19.1833712 L65.870701,17.6619381 L76.6452912,17.6619381 Z M72.0967409,11.2812732 L77.9958732,11.2812732 L77.9958732,14.6500925 L76.3661073,14.6500925 L76.3661073,12.7716858 L66.1656337,12.7716858 L66.1656337,14.6348209 L64.5353906,14.6348209 L64.5353906,11.2812732 L70.3887081,11.2812732 C70.2021082,10.8465099 70.000714,10.4274954 69.7830937,10.054773 L71.5531675,9.77511181 C71.7392901,10.2251467 71.9101411,10.7224282 72.0967409,11.2812732 Z" id="Fill-15" fill="#000000"></path>
            <path d="M91.3741279,24.1516518 L90.9393646,22.6302188 L92.2899466,22.6765108 C92.6784179,22.6765108 92.8802893,22.3973269 92.8802893,21.8542306 L92.8802893,12.0417511 L87.1047615,12.0417511 L87.1047615,10.5513385 L94.4637632,10.5513385 L94.4637632,22.3042656 C94.4637632,23.5307659 93.8424001,24.1516518 92.616377,24.1516518 L91.3741279,24.1516518 Z M86.3287734,20.1772182 L89.6045314,20.1772182 L89.6045314,18.5002057 L86.3287734,18.5002057 L86.3287734,20.1772182 Z M86.3287734,17.1028544 L89.6045314,17.1028544 L89.6045314,15.4263192 L86.3287734,15.4263192 L86.3287734,17.1028544 Z M84.8068632,21.6055899 L91.1102156,21.6055899 L91.1102156,13.9979475 L84.8068632,13.9979475 L84.8068632,21.6055899 Z M86.173194,12.5075349 L84.7138018,13.2682514 C84.1392079,12.1815817 83.5025732,11.2347426 82.8196464,10.411508 L84.2947874,9.74432999 C85.0087346,10.582359 85.6296205,11.4986549 86.173194,12.5075349 Z M81.546854,24.2914824 L83.1303279,24.2914824 L83.1303279,12.4922633 L81.546854,12.4922633 L81.546854,24.2914824 Z" id="Fill-16" fill="#000000"></path>
            <path d="M53.3375384,29.4708928 C53.782801,30.1500018 54.1225941,30.7455941 54.3564404,31.2591016 L53.5413188,31.824628 C53.2845651,31.2815318 52.9342728,30.6740085 52.4890102,30.0030126 L53.3375384,29.4708928 Z M52.0361119,31.8470582 L54.9105131,31.8470582 C55.3328683,31.1006588 55.6917508,30.293173 55.9857291,29.4255553 L57.0041539,29.8102087 C56.6796324,30.6024229 56.3479524,31.2815318 56.0081593,31.8470582 L57.5472501,31.8470582 L57.5472501,32.8883903 L55.2727363,32.8883903 L55.2727363,33.1036244 C55.2727363,33.6390849 55.2503062,34.1482972 55.2049686,34.6312615 L57.7510305,34.6312615 L57.7510305,35.6835702 L55.4989469,35.6835702 C55.8081968,36.8757093 56.6190232,38.078825 57.9319035,39.2933943 L57.1850269,40.1194924 C56.0010007,38.8972872 55.2235809,37.6903537 54.8537219,36.4982145 C54.3788706,38.1427748 53.5227066,39.36498 52.2852298,40.1648299 L51.6290283,39.2819406 C52.8359619,38.5503356 53.6205402,37.3510379 53.9827635,35.6835702 L51.8662153,35.6835702 L51.8662153,34.6312615 L54.1412063,34.6312615 C54.1789081,34.216065 54.2013382,33.786074 54.208974,33.3408114 L54.208974,32.8883903 L52.0361119,32.8883903 L52.0361119,31.8470582 Z M48.9020934,37.4942091 C49.3545146,37.3958982 49.7883234,37.2942466 50.2030428,37.1882999 L50.2030428,35.6950239 L48.9020934,35.6950239 L48.9020934,37.4942091 Z M48.9020934,34.6990293 L50.20352,34.6990293 L50.20352,33.2844974 L48.9020934,33.2844974 L48.9020934,34.6990293 Z M48.9020934,32.2885028 L50.20352,32.2885028 L50.20352,30.8286334 L48.9020934,30.8286334 L48.9020934,32.2885028 Z M47.2384436,29.8102087 L51.9230066,29.8102087 L51.9230066,30.8286334 L51.2558286,30.8286334 L51.2558286,36.8828679 C51.4891977,36.8151002 51.7192262,36.7435146 51.9454367,36.668111 L51.9454367,37.7318734 L51.2558286,37.9466302 L51.2558286,40.1304688 L50.2030428,40.1304688 L50.2030428,38.2186556 C49.3206307,38.4520247 48.4038575,38.6558051 47.4532005,38.8295195 L47.1931061,37.7881874 L47.8493076,37.6865358 L47.8493076,30.8286334 L47.2384436,30.8286334 L47.2384436,29.8102087 Z" id="Fill-17" fill="#000000"></path>
            <path d="M62.0375297,38.4333647 L67.4694465,38.4333647 L67.4694465,36.3172938 L62.0375297,36.3172938 L62.0375297,38.4333647 Z M61.9921921,32.9904714 L67.4918767,32.9904714 C66.4653389,32.235959 65.5528608,31.3683413 64.7530108,30.3876183 C63.9837041,31.3454339 63.063113,32.2135288 61.9921921,32.9904714 Z M68.5327316,35.2874153 L68.5327316,40.0970145 L67.4689693,40.0970145 L67.4689693,39.4746968 L62.0375297,39.4746968 L62.0375297,40.0970145 L60.9737674,40.0970145 L60.9737674,35.2874153 L68.5327316,35.2874153 Z M64.3459273,29.3916237 L65.1605716,29.3916237 C66.6166231,31.0438198 68.2912494,32.3414285 70.1849277,33.2844497 L69.5964939,34.3367583 C68.9627225,33.9974425 68.362835,33.6280607 67.7973086,33.2281357 L67.7973086,34.0542337 L61.7091903,34.0542337 L61.7091903,33.2052283 C61.1283923,33.6199476 60.5137105,34.0050783 59.8646675,34.3596657 L59.2876874,33.2959034 C61.3169011,32.2545713 63.0029811,30.9536219 64.3459273,29.3916237 Z" id="Fill-18" fill="#000000"></path>
            <path d="M75.3424329,29.4483195 L76.4510556,29.4483195 L76.4510556,31.5982743 L80.117671,31.5982743 C80.1028766,32.4210317 80.0799692,33.1755441 80.0499033,33.8618116 L80.8196873,33.4881346 C81.3623063,34.5371026 81.8791545,35.6910628 82.3697546,36.9509697 L81.3623063,37.4377519 C80.947587,36.2985861 80.5028016,35.2610718 80.0269959,34.3256864 C79.9892941,35.1933041 79.9444338,35.9511572 79.8914604,36.6002002 C79.7783552,37.8601071 79.5860285,38.7387012 79.3144804,39.2369371 C79.0500908,39.72706 78.6200998,39.9909723 78.0245075,40.0286741 L76.6662897,40.0286741 L76.3723114,38.9649118 C76.7641233,38.9878192 77.1339824,38.9992729 77.480934,38.9992729 C78.0540962,38.9992729 78.4349317,38.6108016 78.6239177,37.8333818 C78.8124265,37.0263732 78.9331676,35.3064094 78.986141,32.6734903 L76.4061952,32.6734903 C76.2926127,34.5141952 75.9685685,36.0194022 75.4326308,37.1886339 C74.8289254,38.4561766 73.837226,39.4330817 72.456578,40.1193492 L71.845714,39.1577157 C73.1810245,38.4332693 74.0858667,37.5093375 74.5611952,36.3849661 C74.9611202,35.3818129 75.2064203,34.1443362 75.2970954,32.6734903 L72.5357994,32.6734903 L72.5357994,31.5982743 L75.3424329,31.5982743 L75.3424329,29.4483195 Z M72.9433602,33.5673561 L73.9164474,33.941033 C73.5389526,35.3288395 73.037376,36.388784 72.4112404,37.1208662 L71.5851424,36.3964198 C72.1964836,35.6872449 72.6489047,34.7442237 72.9433602,33.5673561 Z" id="Fill-19" fill="#000000"></path>
            <path d="M91.1087361,29.4256985 C91.7573019,31.5455873 92.8778554,33.269369 94.4694424,34.5970436 L93.6777054,35.5023631 C92.0026019,34.069219 90.8333701,32.220401 90.1695328,29.957341 L91.1087361,29.4256985 Z M91.3010628,35.6608059 C92.1457732,36.913077 92.8702196,38.2412289 93.473925,39.644307 L92.4440466,40.1081819 C92.2856037,39.7383228 92.1271609,39.3765768 91.9687181,39.0215121 C89.9619345,39.3312393 87.717964,39.5607905 85.2353747,39.7120748 L85.043048,38.6483125 C85.8658054,38.3844001 87.0159477,36.611463 88.4944293,33.3299782 L89.5696453,33.7031778 C88.6418957,35.6646238 87.6983972,37.2982077 86.7405816,38.6029749 C88.393255,38.4975054 89.9848419,38.3242682 91.5162969,38.0827861 C91.1388021,37.3282736 90.7388771,36.6338931 90.316522,36.0001218 L91.3010628,35.6608059 Z M86.944362,29.5158963 L87.9742405,29.9234571 C87.1514831,32.3525958 86.0614727,34.2052317 84.7042094,35.4799329 L83.8322965,34.7216026 C85.2277389,33.4163581 86.2657304,31.6816 86.944362,29.5158963 Z" id="Fill-20" fill="#000000"></path>
            <polygon id="Fill-21" fill="#040001" points="41.0681927 40.1619188 42.0952078 40.1619188 42.0952078 9.77477774 41.0681927 9.77477774"></polygon>
        </g>
    </g>
</svg>