<?xml version="1.0" encoding="UTF-8"?>
<svg width="117px" height="50px" viewBox="0 0 117 50" version="1.1" xmlns="http://www.w3.org/2000/svg" xmlns:xlink="http://www.w3.org/1999/xlink">
    <!-- Generator: Sketch 52.3 (67297) - http://www.bohemiancoding.com/sketch -->
    <title>英文LOGO</title>
    <desc>Created with Sketch.</desc>
    <g id="01首页" stroke="none" stroke-width="1" fill="none" fill-rule="evenodd">
        <g id="英文LOGO" transform="translate(0.381106, 0.500000)">
            <path d="M6.99395582,49.1955221 C3.13739625,49.1955221 4.6854083e-05,46.0581727 4.6854083e-05,42.2011446 L4.6854083e-05,7.2025502 C4.6854083e-05,3.34599063 3.13739625,0.208172691 6.99395582,0.208172691 L109.26658,0.208172691 C113.123139,0.208172691 116.260489,3.34599063 116.260489,7.2025502 L116.260489,42.2011446 C116.260489,46.0581727 113.123139,49.1955221 109.26658,49.1955221 L6.99395582,49.1955221 Z" id="Fill-22" fill="#FFEE2E"></path>
            <path d="M6.99831325,4.197751 C5.3326506,4.197751 3.97809906,5.55277108 3.97809906,7.21843373 L3.97809906,42.1936011 C3.97809906,43.8587952 5.3326506,45.2138153 6.99831325,45.2138153 L109.242825,45.2138153 C110.908487,45.2138153 112.263976,43.8587952 112.263976,42.1936011 L112.263976,7.21843373 C112.263976,5.55277108 110.908487,4.197751 109.242825,4.197751 L6.99831325,4.197751 Z M6.99831325,46.3645515 C4.69871486,46.3645515 2.82783133,44.4931995 2.82783133,42.1936011 L2.82783133,7.21843373 C2.82783133,4.9183668 4.69871486,3.04701473 6.99831325,3.04701473 L109.242825,3.04701473 C111.542892,3.04701473 113.414244,4.9183668 113.414244,7.21843373 L113.414244,42.1936011 C113.414244,44.4931995 111.542892,46.3645515 109.242825,46.3645515 L6.99831325,46.3645515 Z" id="Fill-23" fill="#000000"></path>
            <path d="M25.8300937,27.8590629 L12.4401339,27.8590629 C12.1383936,27.8590629 11.8938153,28.1036412 11.8938153,28.4053815 L11.8938153,37.7541767 L18.4308969,37.7541767 L18.4308969,31.9522356 C18.4308969,31.6509639 18.6754752,31.405917 18.9772155,31.405917 L25.8300937,31.405917 C26.131834,31.405917 26.3764123,31.1618072 26.3764123,30.8595984 L26.3764123,28.4053815 C26.3764123,28.1036412 26.131834,27.8590629 25.8300937,27.8590629" id="Fill-24" fill="#000000"></path>
            <path d="M31.0387216,37.7460241 C32.8472892,37.7446185 34.3128849,36.2776171 34.3128849,34.4690495 L34.3128849,21.8362517 C34.3128849,19.2166399 31.1314926,18.1877242 29.5506359,20.0572021 L26.8663655,23.2315663 L22.5586011,23.2315663 C21.6711847,23.2315663 20.9519746,23.951245 20.9519746,24.8386613 L20.9519746,26.4649665 L26.8654284,26.4649665 C27.3686412,26.4649665 27.7762718,26.8725971 27.7762718,27.3753414 L27.7762718,31.8897323 C27.7762718,32.3929451 27.3686412,32.8005756 26.8654284,32.8005756 L23.435241,32.8005756 C22.063822,32.8005756 20.9519746,33.912423 20.9519746,35.2843106 L20.9519746,37.7544578 L31.0387216,37.7460241 Z" id="Fill-25" fill="#000000"></path>
            <path d="M27.6971821,14.997992 C27.6971821,13.1486613 29.1965127,11.6497992 31.0458434,11.6497992 C32.8956426,11.6497992 34.3945047,13.1486613 34.3945047,14.997992 C34.3945047,16.8477912 32.8956426,18.3466533 31.0458434,18.3466533 C29.1965127,18.3466533 27.6971821,16.8477912 27.6971821,14.997992" id="Fill-26" fill="#000000"></path>
            <path d="M17.9664793,24.6707831 L14.3844846,18.4738621 C14.1661446,18.0957497 13.6821419,17.9659639 13.3040295,18.1843039 L13.190174,18.2503681 C12.8120616,18.4687082 12.6822758,18.9522423 12.9006158,19.3308233 L16.7609237,26.0094043 C16.9235074,26.2914659 17.2243106,26.464826 17.5494779,26.464826 L25.3108568,26.464826 L25.3108568,24.6707831 L17.9664793,24.6707831 Z" id="Fill-27" fill="#000000"></path>
            <polygon id="Fill-28" fill="#040001" points="40.4285141 37.754083 41.6579652 37.754083 41.6579652 11.6493307 40.4285141 11.6493307"></polygon>
            <polygon id="Fill-29" fill="#2F201B" points="56.1338153 11.8517871 51.73 16.2762182 56.7930522 22.1756158 54.5773226 22.1756158 50.6219009 17.3894712 49.4018206 18.6184538 49.4018206 22.1756158 47.7609906 22.1756158 47.7609906 11.8517871 49.4018206 11.8517871 49.4018206 16.7246118 54.0581794 11.8517871"></polygon>
            <path d="M61.687664,14.6859438 L61.687664,16.334739 C61.3231392,16.2185408 60.9862584,16.1754351 60.6498461,16.1754351 C60.2290964,16.1754351 59.8505154,16.334739 59.5136345,16.6814592 C59.1209973,17.0717537 58.9387349,17.5777778 58.9387349,18.2140562 L58.9387349,22.1755689 L57.3536613,22.1755689 L57.3536613,14.7004685 L58.9387349,14.7004685 L58.9387349,15.7701473 C59.1209973,15.3948461 59.3454284,15.1052878 59.6120281,14.9028782 C59.9484404,14.6283133 60.3270214,14.4980589 60.7758835,14.4980589 C61.1268206,14.4980589 61.4351205,14.556158 61.687664,14.6859438" id="Fill-30" fill="#2F201B"></path>
            <path d="M72.0335141,12.5747456 C72.6786948,13.152925 73.0291633,13.9054016 73.1135007,14.8452945 L71.5148394,14.8452945 C71.3883333,14.2521218 71.1357898,13.818253 70.7436212,13.5291633 C70.3645716,13.2400736 69.8599531,13.1102878 69.2424163,13.1102878 C68.6117604,13.1102878 68.1207296,13.2400736 67.7697925,13.5005823 C67.4474364,13.731573 67.2932865,14.0497122 67.2932865,14.4545315 C67.2932865,15.0186546 67.8119612,15.5101539 68.8783601,15.9149732 C69.8458969,16.2912115 70.8134337,16.6665127 71.7950268,17.0572758 C72.8469009,17.6213989 73.3801004,18.401988 73.3801004,19.3849866 C73.3801004,20.2381995 73.0291633,20.9466332 72.3282262,21.5107564 C71.5987082,22.0894043 70.6311714,22.378494 69.4532597,22.378494 C68.2753481,22.378494 67.3073427,22.074411 66.5637684,21.4817068 C65.778494,20.8454284 65.3160442,19.934585 65.1895382,18.7637015 L66.8163119,18.7637015 C66.9282932,19.515241 67.2370616,20.0793641 67.7421486,20.4265529 C68.1628983,20.7296988 68.7377979,20.8890027 69.4532597,20.8890027 C70.1260843,20.8890027 70.67334,20.7587483 71.1076774,20.4987082 C71.5288956,20.2236747 71.7392704,19.8910107 71.7392704,19.48666 C71.7392704,18.8789625 71.206071,18.3874632 70.1541968,17.9971687 C69.1726037,17.6359237 68.2050669,17.2742102 67.2370616,16.9129652 C66.1711312,16.348842 65.6524565,15.568253 65.6524565,14.5562048 C65.6524565,13.6739424 66.002925,12.9655087 66.7038621,12.4449598 C67.3916801,11.9098862 68.2753481,11.6493775 69.3408099,11.6493775 C70.448909,11.6493775 71.3461647,11.952992 72.0335141,12.5747456" id="Fill-31" fill="#2F201B"></path>
            <path d="M76.2570348,16.5944043 C75.9487349,17.0427979 75.8081727,17.6359705 75.8081727,18.38751 L75.8081727,18.5032396 C75.8081727,19.2838286 75.9909036,19.9205756 76.3694846,20.3970817 C76.7058969,20.8309505 77.1266466,21.0478849 77.6457898,21.0478849 C78.3467269,21.0478849 78.8799264,20.8019009 79.2163387,20.3394511 C79.5110509,19.9055823 79.6652008,19.2838286 79.6652008,18.4741901 C79.6652008,17.6645515 79.5251071,17.0427979 79.2585074,16.608929 C78.9216265,16.0883802 78.4029518,15.82834 77.7015462,15.82834 C77.0704217,15.82834 76.5939157,16.074324 76.2570348,16.5944043 M80.4645315,15.6690361 C81.0253748,16.3919946 81.3060308,17.3173628 81.3060308,18.4741901 C81.3060308,19.5729183 81.0253748,20.4842303 80.4785877,21.2071888 C79.8896319,21.9877778 79.0621888,22.3785408 78.0239023,22.3785408 C77.1828715,22.3785408 76.4533534,21.9587282 75.8643976,21.1495582 L75.8643976,24.4434003 L74.2657363,24.4434003 L74.2657363,14.7005622 L75.7524163,14.7005622 L75.7524163,15.495676 C76.2570348,14.8303481 76.9865529,14.4976841 77.9400335,14.4976841 C79.0059639,14.4976841 79.8474632,14.8879786 80.4645315,15.6690361" id="Fill-32" fill="#2F201B"></path>
            <path d="M85.5996921,18.8067135 C84.3233869,18.8357631 83.6922624,19.2986814 83.6922624,20.195 C83.6922624,20.4555087 83.790656,20.6719746 84.015087,20.8458032 C84.2390495,21.0191633 84.5197055,21.1198996 84.870174,21.1198996 C85.4872423,21.1198996 86.0063855,20.9324833 86.4271352,20.5712383 C86.8478849,20.195 87.0723159,19.7175569 87.0723159,19.1393775 L87.0723159,18.7636078 L85.5996921,18.8067135 Z M87.9976841,15.3221754 C88.4465462,15.7991499 88.6709772,16.4935274 88.6709772,17.4043708 L88.6709772,19.4865663 C88.6709772,20.5998193 88.7970147,21.4961379 89.0776707,22.1755221 L87.5071218,22.1755221 C87.4227845,21.9300067 87.3384471,21.5687617 87.2826908,21.0772624 C86.9317537,21.4675569 86.5531727,21.7707028 86.1464793,22.002162 C85.6418608,22.2481459 85.0946051,22.3784003 84.5056493,22.3784003 C83.7484873,22.3784003 83.1595315,22.1755221 82.7247256,21.7852276 C82.2758635,21.3804083 82.0514324,20.8743842 82.0514324,20.2526305 C82.0514324,19.414411 82.3597323,18.7636078 83.004913,18.3152142 C83.6083936,17.8813454 84.4353681,17.6498862 85.4872423,17.6213052 L87.0723159,17.5777309 L87.0723159,17.2886412 C87.0723159,16.305174 86.5531727,15.828668 85.5153548,15.828668 C85.0664926,15.828668 84.7019679,15.9148795 84.4353681,16.0882396 C84.1270683,16.2620683 83.9307497,16.5516265 83.8464123,16.941921 L82.2618072,16.8111981 C82.4159572,16.0020281 82.8085944,15.3947992 83.4256627,15.0185609 C83.9729183,14.6713722 84.7019679,14.498012 85.6278046,14.498012 C86.6932664,14.498012 87.4930656,14.7730455 87.9976841,15.3221754 Z" id="Fill-33" fill="#2F201B"></path>
            <path d="M95.4749866,15.22083 C96.0498862,15.6982731 96.414411,16.3776573 96.5549732,17.2449264 L94.9698996,17.2449264 C94.7876372,16.3050335 94.2127376,15.8425837 93.2311446,15.8425837 C92.6421888,15.8425837 92.1792704,16.0595181 91.8428581,16.5219679 C91.5059772,16.9703614 91.3377711,17.6066399 91.3377711,18.4162784 C91.3377711,19.2404418 91.491921,19.891245 91.8283333,20.3541633 C92.1371017,20.8020884 92.6000201,21.0335475 93.2170884,21.0335475 C94.1284003,21.0335475 94.7037684,20.643253 94.9281995,19.8771888 L96.5128046,19.8771888 C96.03583,21.5395716 94.9417871,22.3782597 93.2030321,22.3782597 C92.0808768,22.3782597 91.2112651,22.00249 90.5806091,21.2504819 C89.9911847,20.5275234 89.6969411,19.5876305 89.6969411,18.4312718 C89.6969411,17.3030254 89.9911847,16.3776573 90.5806091,15.6692236 C91.2112651,14.888166 92.0949331,14.4978715 93.2311446,14.4978715 C94.1569813,14.4978715 94.8996185,14.7293307 95.4749866,15.22083" id="Fill-34" fill="#2F201B"></path>
            <path d="M99.5559772,16.3052209 C99.2617336,16.6088353 99.065415,17.0572289 98.9670214,17.6499331 L102.697544,17.6499331 C102.55745,16.4354752 101.926325,15.8427711 100.80417,15.8427711 C100.271439,15.8427711 99.8647456,15.9870817 99.5559772,16.3052209 M103.496874,15.7415663 C104.072242,16.4931058 104.366486,17.5487282 104.366486,18.8934404 L98.938909,18.8934404 C98.9951339,19.5878179 99.1773963,20.122423 99.4861647,20.4841365 C99.7944645,20.8453815 100.243327,21.0337349 100.818226,21.0337349 C101.309257,21.0337349 101.701894,20.9180054 102.010194,20.6865462 C102.248681,20.4986613 102.459056,20.1950469 102.655375,19.7757028 L104.254036,19.7757028 C104.08583,20.4696118 103.749418,21.0623159 103.244799,21.5252343 C102.599618,22.0893574 101.800288,22.3784471 100.832282,22.3784471 C99.7522959,22.3784471 98.8967403,22.0312584 98.2660843,21.3518742 C97.5927912,20.6434404 97.2559103,19.6740295 97.2559103,18.4309906 C97.2559103,17.3172691 97.5646787,16.3923695 98.2098594,15.6403614 C98.8269277,14.8738286 99.6824833,14.4980589 100.762001,14.4980589 C101.954438,14.4980589 102.86575,14.9028782 103.496874,15.7415663" id="Fill-35" fill="#2F201B"></path>
            <path d="M54.3701339,27.2152878 C55.065917,27.7531727 55.4632396,28.4709772 55.5752209,29.3672959 L54.842423,29.3672959 C54.7304418,28.6626104 54.3949665,28.112075 53.8359973,27.7147523 C53.3018608,27.3305489 52.6683936,27.1384471 51.9477778,27.1384471 C50.854672,27.1384471 50.0094244,27.5357697 49.3886078,28.3299465 C48.8048059,29.0725837 48.518996,30.0335609 48.518996,31.2114726 C48.518996,32.4025033 48.8048059,33.35083 49.3759572,34.0676975 C49.9724096,34.8234538 50.8050067,35.2076573 51.8732798,35.2076573 C52.5564123,35.2076573 53.1523963,35.0535074 53.6495181,34.7466131 C54.1963052,34.3881794 54.6062784,33.8755957 54.8546051,33.1840295 L55.6127041,33.1840295 C55.363909,34.0803481 54.8794378,34.7850335 54.1714726,35.2713788 C53.5253548,35.7071218 52.7550736,35.9249933 51.8854618,35.9249933 C50.5562115,35.9249933 49.5249531,35.45083 48.7795047,34.516091 C48.0963722,33.6577242 47.7613655,32.5561847 47.7613655,31.2114726 C47.7613655,29.8667604 48.1090228,28.7521017 48.8048059,27.8689023 C49.5624364,26.8952744 50.6185274,26.4215797 51.9599598,26.4215797 C52.8918876,26.4215797 53.6991834,26.6778715 54.3701339,27.2152878" id="Fill-36" fill="#2F201B"></path>
            <path d="M57.8857831,30.4813454 C57.5006426,30.993929 57.3146319,31.647075 57.3146319,32.4412517 C57.3146319,33.2227778 57.5006426,33.8754552 57.8857831,34.3880388 C58.308407,34.964344 58.8800268,35.2585877 59.6128246,35.2585877 C60.3456225,35.2585877 60.9294244,34.964344 61.3520482,34.3880388 C61.7245382,33.8628046 61.9231995,33.2096586 61.9231995,32.4412517 C61.9231995,31.647075 61.7245382,30.993929 61.3520482,30.4813454 C60.9294244,29.8923896 60.3456225,29.6107965 59.6128246,29.6107965 C58.8800268,29.6107965 58.308407,29.8923896 57.8857831,30.4813454 M61.8861847,29.995 C62.4076707,30.6476774 62.6686479,31.4676238 62.6686479,32.4412517 C62.6686479,33.414411 62.4076707,34.2212383 61.8861847,34.8748527 C61.3145649,35.566419 60.5569344,35.9248527 59.6128246,35.9248527 C58.6682463,35.9248527 57.9106158,35.566419 57.338996,34.8748527 C56.81751,34.2212383 56.5565328,33.414411 56.5565328,32.4412517 C56.5565328,31.4676238 56.81751,30.6476774 57.3516466,29.995 C57.9106158,29.2903146 58.6682463,28.9445315 59.6128246,28.9445315 C60.5569344,28.9445315 61.3145649,29.2903146 61.8861847,29.995" id="Fill-37" fill="#2F201B"></path>
            <polygon id="Fill-38" fill="#2F201B" points="63.8489491 29.1237483 65.5881727 34.7593574 67.2032329 29.1237483 67.9238487 29.1237483 69.538909 34.7593574 71.2903146 29.1237483 72.110261 29.1237483 69.9113989 35.7456359 69.1907831 35.7456359 67.5761914 30.1231459 65.9362985 35.7456359 65.2278648 35.7456359 63.0168206 29.1237483"></polygon>
            <path d="M73.6457162,30.4813454 C73.2605756,30.993929 73.0740964,31.647075 73.0740964,32.4412517 C73.0740964,33.2227778 73.2605756,33.8754552 73.6457162,34.3880388 C74.0678715,34.964344 74.6394913,35.2585877 75.3727577,35.2585877 C76.1055556,35.2585877 76.6893574,34.964344 77.1115127,34.3880388 C77.4844712,33.8628046 77.6831325,33.2096586 77.6831325,32.4412517 C77.6831325,31.647075 77.4844712,30.993929 77.1115127,30.4813454 C76.6893574,29.8923896 76.1055556,29.6107965 75.3727577,29.6107965 C74.6394913,29.6107965 74.0678715,29.8923896 73.6457162,30.4813454 M77.6461178,29.995 C78.1676037,30.6476774 78.428581,31.4676238 78.428581,32.4412517 C78.428581,33.414411 78.1676037,34.2212383 77.6461178,34.8748527 C77.074498,35.566419 76.3168675,35.9248527 75.3727577,35.9248527 C74.4281794,35.9248527 73.6705489,35.566419 73.098929,34.8748527 C72.5774431,34.2212383 72.3164659,33.414411 72.3164659,32.4412517 C72.3164659,31.4676238 72.5774431,30.6476774 73.1115797,29.995 C73.6705489,29.2903146 74.4281794,28.9445315 75.3727577,28.9445315 C76.3168675,28.9445315 77.074498,29.2903146 77.6461178,29.995" id="Fill-39" fill="#2F201B"></path>
            <path d="M83.2487885,29.085328 L83.2487885,29.8668541 C82.9133133,29.7642436 82.5904886,29.7258233 82.2671954,29.7258233 C81.6960442,29.7258233 81.223755,29.9821151 80.8760977,30.52 C80.5279719,31.0068139 80.3667938,31.5831191 80.3667938,32.2489157 L80.3667938,35.7456359 L79.6213454,35.7456359 L79.6213454,29.1237483 L80.3667938,29.1237483 L80.3667938,30.3916198 C80.5279719,29.9821151 80.7641165,29.6616332 81.0621084,29.4058099 C81.4224163,29.0979786 81.8450402,28.9442972 82.3168608,28.9442972 C82.6898193,28.9442972 83.0004618,28.9827175 83.2487885,29.085328" id="Fill-40" fill="#2F201B"></path>
            <polygon id="Fill-41" fill="#2F201B" points="84.8086078 26.4213922 84.8086078 32.466506 88.3742035 29.1239357 89.3928112 29.1239357 86.572664 31.7496386 89.6786212 35.7453548 88.6970281 35.7453548 86.0385274 32.2491031 84.8086078 33.4017135 84.8086078 35.7453548 84.0631593 35.7453548 84.0631593 26.4213922"></polygon>
            <path d="M90.2962517,35.7454485 L91.0417001,35.7454485 L91.0417001,29.1235609 L90.2962517,29.1235609 L90.2962517,35.7454485 Z M91.1161981,26.9336011 C91.2403614,27.035743 91.3026774,27.1894244 91.3026774,27.3819946 C91.3026774,27.5609772 91.2281794,27.7151272 91.1035475,27.8430388 C90.9793842,27.9582999 90.8430388,28.02249 90.6692102,28.02249 C90.4827309,28.02249 90.3337349,27.9582999 90.2217537,27.8430388 C90.0975904,27.7151272 90.0352744,27.5609772 90.0352744,27.3819946 C90.0352744,27.1894244 90.0975904,27.035743 90.2217537,26.9336011 C90.3337349,26.8056894 90.4827309,26.7414993 90.6692102,26.7414993 C90.8430388,26.7414993 90.9920348,26.8056894 91.1161981,26.9336011 Z" id="Fill-42" fill="#2F201B"></path>
            <path d="M97.4452477,31.6728447 L97.4452477,35.7454016 L96.6997992,35.7454016 L96.6997992,31.7239157 C96.6997992,30.3150134 96.0911647,29.6107965 94.873427,29.6107965 C94.3514726,29.6107965 93.9293173,29.8028983 93.58166,30.1866332 C93.2087015,30.5708367 93.0100402,31.0965395 92.9730254,31.7496854 L92.9730254,35.7454016 L92.227577,35.7454016 L92.227577,29.1239826 L92.9730254,29.1239826 L92.9730254,30.2124029 C93.1965194,29.8155489 93.4823293,29.5081861 93.8426372,29.277664 C94.2024766,29.0471419 94.6129183,28.9445315 95.0599063,28.9445315 C96.6501339,28.9445315 97.4452477,29.8539692 97.4452477,31.6728447" id="Fill-43" fill="#2F201B"></path>
            <path d="M99.7574967,30.3660375 C99.3723561,30.8402008 99.1858768,31.4422758 99.1858768,32.184913 C99.1858768,32.902249 99.3597055,33.4912048 99.7078313,33.9395984 C100.105154,34.4521821 100.664592,34.7211245 101.39739,34.7211245 C102.105355,34.7211245 102.664793,34.4648327 103.062115,33.9780187 C103.434605,33.5174431 103.621084,32.9148996 103.621084,32.184913 C103.621084,31.4422758 103.434605,30.8402008 103.062115,30.3660375 C102.652142,29.8539224 102.105355,29.5976305 101.409572,29.5976305 C100.714257,29.5976305 100.155288,29.8539224 99.7574967,30.3660375 M103.621084,30.4555288 L103.621084,29.1239357 L104.366533,29.1239357 L104.366533,34.5524498 C104.366533,36.6786881 103.39759,37.7544578 101.484538,37.7544578 C99.88166,37.7544578 98.9623829,36.9987015 98.7140562,35.4876573 L99.4595047,35.4876573 C99.658166,36.563427 100.329116,37.113494 101.484538,37.113494 C102.900469,37.113494 103.621084,36.2813655 103.621084,34.6419411 L103.621084,33.9269478 C103.148795,34.8748059 102.378983,35.3611513 101.322892,35.3611513 C100.428447,35.3611513 99.7078313,35.0416064 99.1736948,34.4264123 C98.676573,33.836988 98.4282463,33.0817001 98.4282463,32.184913 C98.4282463,31.2885944 98.676573,30.5323695 99.1736948,29.9181124 C99.7078313,29.264498 100.428447,28.9444846 101.322892,28.9444846 C102.378983,28.9444846 103.148795,29.4439491 103.621084,30.4555288" id="Fill-44" fill="#2F201B"></path>
        </g>
    </g>
</svg>