<?xml version="1.0" encoding="UTF-8"?>
<svg width="15px" height="17px" viewBox="0 0 15 17" version="1.1" xmlns="http://www.w3.org/2000/svg" xmlns:xlink="http://www.w3.org/1999/xlink">
    <!-- Generator: Sketch 50.2 (55047) - http://www.bohemiancoding.com/sketch -->
    <title>location</title>
    <desc>Created with Sketch.</desc>
    <defs></defs>
    <g id="02社区" stroke="none" stroke-width="1" fill="none" fill-rule="evenodd">
        <g id="04社区详情" transform="translate(-389.000000, -825.000000)" stroke="#666666">
            <g id="03社区信息" transform="translate(390.000000, 714.000000)">
                <g id="location" transform="translate(0.000000, 112.000000)">
                    <path d="M8.89850358,13.7965353 L11.6043737,10.6515369 C12.5257229,9.17897789 12.8958308,8.03543752 12.8793641,6.70973317 C12.8362371,3.32565615 10.1145324,0.495293416 6.81022127,0.403810186 C5.12591651,0.358068571 3.49414825,1.01048845 2.28580857,2.21341267 C1.07746889,3.41553441 0.394494286,5.06704745 0.392141905,6.79158658 C0.392141905,8.27457789 0.904176825,9.40768596 1.67026889,10.6563518 L4.34241674,13.7874172 C5.41798388,15.0477035 7.31156716,15.1974478 8.57185337,14.1218807 C8.68892094,14.0219716 8.79812673,13.9132021 8.89850358,13.7965353 Z" id="Stroke-1"></path>
                    <path d="M6.63565247,9.50833441 C5.04083198,9.50610672 3.74857753,8.18359881 3.74712637,6.55218395 C3.74857753,4.92002653 5.04083198,3.59751863 6.63565247,3.59529093 C8.23047296,3.59677606 9.52272741,4.91928396 9.52490415,6.55218395 C9.52272741,8.18434138 8.23047296,9.50684928 6.63565247,9.50833441 Z" id="Stroke-3"></path>
                </g>
            </g>
        </g>
    </g>
</svg>