<?xml version="1.0" encoding="UTF-8"?>
<svg width="20px" height="20px" viewBox="0 0 20 20" version="1.1" xmlns="http://www.w3.org/2000/svg" xmlns:xlink="http://www.w3.org/1999/xlink">
    <!-- Generator: Sketch 45.2 (43514) - http://www.bohemiancoding.com/sketch -->
    <title>icon_24小时保安服务</title>
    <desc>Created with Sketch.</desc>
    <defs></defs>
    <g id="01PCbest" stroke="none" stroke-width="1" fill="none" fill-rule="evenodd">
        <g id="01首页-" transform="translate(-418.000000, -1604.000000)">
            <g id="灵活的办公方式" transform="translate(0.000000, 1216.000000)">
                <g id="02_空间简介" transform="translate(389.000000, 144.000000)">
                    <g id="文字" transform="translate(30.000000, 35.000000)">
                        <g id="icon_24小时保安服务" transform="translate(0.000000, 210.000000)">
                            <circle id="Oval-2-Copy-11" stroke="#333333" fill="#FFFFFF" cx="9" cy="9" r="9"></circle>
                            <path d="M8.77486915,11.9152164 L8.77486915,12.3040114 L4.17412861,12.3040114 L4.17412861,11.9152164 C4.64932484,10.9864238 5.42690701,10.1548429 6.50689846,9.42044869 C7.67328921,8.62125502 8.22407659,7.91927111 8.1592771,7.3144759 C8.13767727,6.29928395 7.61928916,5.78089583 6.6040972,5.759296 C5.71850422,5.82409549 5.12451783,6.2992846 4.82212023,7.18487758 L4.23892777,7.18487758 C4.62772469,5.99688699 5.43770612,5.40290061 6.66889636,5.40290061 C8.00808575,5.4677001 8.69926991,6.07248623 8.74246956,7.21727716 C8.85046871,8.01647083 8.23488282,8.85885152 6.89569343,9.7444445 C5.88050148,10.4140392 5.16771782,11.1376226 4.75732107,11.9152164 L8.77486915,11.9152164 Z M13.2784109,12.3040114 L12.7600176,12.3040114 L12.7600176,10.6516328 L9.35806161,10.6516328 L9.35806161,10.2952374 L12.7600176,5.50009935 L13.2784109,5.50009935 L13.2784109,10.2952374 L14.2179988,10.2952374 L14.2179988,10.6516328 L13.2784109,10.6516328 L13.2784109,12.3040114 Z M9.90885449,10.2952374 L12.7600176,10.2952374 L12.7600176,6.2776893 L9.90885449,10.2952374 Z" id="24" stroke="#FF9D00" stroke-width="0.4" fill="#FF9D00"></path>
                        </g>
                    </g>
                </g>
            </g>
        </g>
    </g>
</svg>