<?xml version="1.0" encoding="UTF-8"?>
<svg width="14px" height="16px" viewBox="0 0 14 16" version="1.1" xmlns="http://www.w3.org/2000/svg" xmlns:xlink="http://www.w3.org/1999/xlink">
    <!-- Generator: Sketch 45.2 (43514) - http://www.bohemiancoding.com/sketch -->
    <title>icon_日历</title>
    <desc>Created with Sketch.</desc>
    <defs></defs>
    <g id="01首页" stroke="none" stroke-width="1" fill="none" fill-rule="evenodd">
        <g id="01首页-" transform="translate(-1307.000000, -630.000000)">
            <g id="icon_日历" transform="translate(1307.000000, 630.000000)">
                <g id="Group-3" transform="translate(0.000000, 0.761905)" fill="#333333">
                    <path d="M9.77923584,1.77798095 C10.4072006,1.77798095 9.89798114,1.49379048 9.89798114,1.14331429 C9.89798114,0.79207619 10.2932174,0.507885714 9.66525269,0.507885714 C9.24660951,0.507885714 7.47524721,0.507885714 4.35116577,0.507885714 C3.93343072,0.507885714 3.58674086,0.719695238 3.31109619,1.14331429 C3.50774801,1.5664254 3.81494144,1.77798095 4.2326765,1.77798095 L9.77923584,1.77798095 Z M12.0640762,1.77798095 C12.3985524,1.77798095 12.6995048,2.11169524 12.6995048,2.5543619 L12.6995048,12.4301714 C12.6995048,12.8728381 12.3985524,13.2065524 12.0640762,13.2065524 L1.9048381,13.2065524 C1.5703619,13.2065524 1.27017143,12.8728381 1.27017143,12.4301714 L1.27017143,2.5543619 C1.27017143,2.11169524 1.5703619,1.77798095 1.9048381,1.77798095 L3.19093333,1.77798095 C3.54140952,1.77798095 3.64923096,1.49379048 3.64923096,1.14331429 C3.64923096,0.79207619 3.54140952,0.507885714 3.19093333,0.507885714 L1.9048381,0.507885714 C0.836647619,0.507885714 7.61904762e-05,1.43817143 7.61904762e-05,2.5543619 L7.61904762e-05,12.4301714 C7.61904762e-05,13.5463619 0.836647619,14.4766476 1.9048381,14.4766476 L12.0640762,14.4766476 C13.1322667,14.4766476 13.9688381,13.5463619 13.9688381,12.4301714 L13.9688381,2.5543619 C13.9688381,1.43817143 13.1322667,0.507885714 12.0640762,0.507885714 L10.8046476,0.507885714 C10.4541714,0.507885714 10.169981,0.79207619 10.169981,1.14331429 C10.169981,1.49379048 10.4541714,1.77798095 10.8046476,1.77798095 L12.0640762,1.77798095 Z" id="Fill-1"></path>
                </g>
                <path d="M9.52426667,0.63512381 L9.52426667,3.17455238 C9.52426667,3.52502857 9.80845714,3.80998095 10.1589333,3.80998095 C10.5101714,3.80998095 10.7943619,3.52502857 10.7943619,3.17455238 L10.7943619,0.63512381 C10.7943619,0.284647619 10.5101714,0.000457142857 10.1589333,0.000457142857 C9.80845714,0.000457142857 9.52426667,0.284647619 9.52426667,0.63512381 M3.17455238,0.63512381 L3.17455238,3.17455238 C3.17455238,3.52502857 3.45874286,3.80998095 3.80998095,3.80998095 C4.16045714,3.80998095 4.44464762,3.52502857 4.44464762,3.17455238 L4.44464762,0.63512381 C4.44464762,0.284647619 4.16045714,0.000457142857 3.80998095,0.000457142857 C3.45874286,0.000457142857 3.17455238,0.284647619 3.17455238,0.63512381 M3.80998095,10.1589333 L10.145219,10.1589333 C10.3722667,10.1589333 10.5825524,10.0377905 10.6953143,9.84121905 C10.8096,9.64540952 10.8096,9.40312381 10.6953143,9.20655238 C10.5825524,9.00998095 10.3722667,8.8888381 10.145219,8.8888381 L3.80998095,8.8888381 C3.45874286,8.8888381 3.17455238,9.17379048 3.17455238,9.52426667 C3.17455238,9.87474286 3.45874286,10.1589333 3.80998095,10.1589333 M3.80998095,6.98407619 L10.145219,6.98407619 C10.4964571,6.98407619 10.7806476,6.69988571 10.7806476,6.34940952 C10.7806476,5.99893333 10.4964571,5.71474286 10.145219,5.71474286 L3.80998095,5.71474286 C3.45874286,5.71474286 3.17455238,5.99893333 3.17455238,6.34940952 C3.17455238,6.69988571 3.45874286,6.98407619 3.80998095,6.98407619" id="Fill-4" fill="#FF9D00"></path>
            </g>
        </g>
    </g>
</svg>